<svg width="64" height="64" viewBox="0 0 64 64" fill="none" xmlns="http://www.w3.org/2000/svg">
<g clip-path="url(#clip0_2923_30668)">
<path d="M48 0H16C11.7565 0 7.68687 1.68571 4.68629 4.68629C1.68571 7.68687 0 11.7565 0 16L0 48C0 52.2435 1.68571 56.3131 4.68629 59.3137C7.68687 62.3143 11.7565 64 16 64H48C52.2435 64 56.3131 62.3143 59.3137 59.3137C62.3143 56.3131 64 52.2435 64 48V16C64 11.7565 62.3143 7.68687 59.3137 4.68629C56.3131 1.68571 52.2435 0 48 0V0ZM46.4 36.8H36.8V46.4C36.8 47.673 36.2943 48.8939 35.3941 49.7941C34.4939 50.6943 33.273 51.2 32 51.2C30.727 51.2 29.5061 50.6943 28.6059 49.7941C27.7057 48.8939 27.2 47.673 27.2 46.4V36.8H17.6C16.327 36.8 15.1061 36.2943 14.2059 35.3941C13.3057 34.4939 12.8 33.273 12.8 32C12.8 30.727 13.3057 29.5061 14.2059 28.6059C15.1061 27.7057 16.327 27.2 17.6 27.2H27.2V17.6C27.2 16.327 27.7057 15.1061 28.6059 14.2059C29.5061 13.3057 30.727 12.8 32 12.8C33.273 12.8 34.4939 13.3057 35.3941 14.2059C36.2943 15.1061 36.8 16.327 36.8 17.6V27.2H46.4C47.673 27.2 48.8939 27.7057 49.7941 28.6059C50.6943 29.5061 51.2 30.727 51.2 32C51.2 33.273 50.6943 34.4939 49.7941 35.3941C48.8939 36.2943 47.673 36.8 46.4 36.8Z" fill="#1476FF"/>
</g>
<defs>
<clipPath id="clip0_2923_30668">
<rect width="64" height="64" fill="white"/>
</clipPath>
</defs>
</svg>
