<svg width="64" height="65" viewBox="0 0 64 65" fill="none" xmlns="http://www.w3.org/2000/svg">
<path d="M28 64.7949C35.4239 64.7879 42.5417 61.8356 47.7912 56.5861C53.0407 51.3366 55.9929 44.2188 56 36.7949C56 36.4413 55.8595 36.1022 55.6095 35.8521C55.3594 35.6021 55.0203 35.4616 54.6667 35.4616H30.6667C30.313 35.4616 29.9739 35.3211 29.7239 35.0711C29.4738 34.821 29.3333 34.4819 29.3333 34.1283V10.1283C29.3333 9.77463 29.1929 9.43549 28.9428 9.18545C28.6928 8.9354 28.3536 8.79492 28 8.79492C20.5739 8.79492 13.452 11.7449 8.20101 16.9959C2.94999 22.247 0 29.3689 0 36.7949C0 44.221 2.94999 51.3429 8.20101 56.5939C13.452 61.8449 20.5739 64.7949 28 64.7949Z" fill="#1476FF"/>
<path d="M35.9993 0.794922C35.6457 0.794922 35.3066 0.935398 35.0565 1.18545C34.8065 1.43549 34.666 1.77463 34.666 2.12826V27.4616C34.666 28.1688 34.947 28.8471 35.4471 29.3472C35.9472 29.8473 36.6254 30.1283 37.3327 30.1283H62.666C63.0196 30.1283 63.3588 29.9878 63.6088 29.7377C63.8589 29.4877 63.9994 29.1485 63.9994 28.7949C63.9923 21.371 61.04 14.2532 55.7905 9.00373C50.5411 3.75424 43.4232 0.801982 35.9993 0.794922V0.794922Z" fill="#1476FF"/>
</svg>
