<svg width="64" height="64" viewBox="0 0 64 64" fill="none" xmlns="http://www.w3.org/2000/svg">
<path d="M37.9852 56H26.0386C25.8794 56.0052 25.7274 56.0672 25.61 56.1748C25.4926 56.2824 25.4176 56.4285 25.3986 56.5866C25.3854 56.8353 25.3854 57.0846 25.3986 57.3333C25.3986 59.1014 26.101 60.7971 27.3512 62.0473C28.6014 63.2976 30.2971 64 32.0652 64C33.8334 64 35.529 63.2976 36.7793 62.0473C38.0295 60.7971 38.7319 59.1014 38.7319 57.3333C38.7451 57.0846 38.7451 56.8353 38.7319 56.5866C38.722 56.4988 38.6948 56.4139 38.6517 56.3367C38.6087 56.2595 38.5508 56.1917 38.4813 56.1371C38.4118 56.0825 38.3322 56.0423 38.247 56.0187C38.1619 55.9952 38.0729 55.9888 37.9852 56Z" fill="#1476FF"/>
<path d="M57.2123 51.4133C54.1463 45.3441 52.5479 38.6398 52.5457 31.84V29.8133C52.6228 25.8362 51.7221 21.9009 49.9227 18.3532C48.1233 14.8055 45.4802 11.754 42.2257 9.46667C40.3373 8.25126 38.2246 7.42616 36.0123 7.04V4C36.0123 2.93913 35.5909 1.92172 34.8408 1.17157C34.0906 0.421427 33.0732 0 32.0123 0C30.9515 0 29.9341 0.421427 29.1839 1.17157C28.4338 1.92172 28.0123 2.93913 28.0123 4V7.06667C25.2448 7.5877 22.6403 8.75747 20.4123 10.48C17.5632 12.8215 15.2799 15.7765 13.733 19.1243C12.1861 22.472 11.4156 26.126 11.479 29.8133V31.84C11.4768 38.6398 9.87839 45.3441 6.81234 51.4133C6.70729 51.6103 6.65234 51.8301 6.65234 52.0533C6.65234 52.2766 6.70729 52.4964 6.81234 52.6933C6.94055 52.8941 7.11831 53.0584 7.3285 53.1705C7.53868 53.2826 7.7742 53.3387 8.01234 53.3333H56.0123C56.2415 53.3297 56.4661 53.2694 56.6662 53.1577C56.8663 53.046 57.0356 52.8865 57.159 52.6933C57.2724 52.5008 57.3365 52.2833 57.3458 52.06C57.3551 51.8368 57.3093 51.6147 57.2123 51.4133V51.4133Z" fill="#1476FF"/>
</svg>
