<svg width="177" height="178" viewBox="0 0 177 178" fill="none" xmlns="http://www.w3.org/2000/svg">
<g filter="url(#filter0_d_2924_30862)">
<path d="M144.761 89.9103C142.861 100.516 137.975 110.359 130.678 118.285C123.38 126.211 113.973 131.89 103.56 134.657C93.1481 137.424 82.1625 137.164 71.893 133.906C61.6236 130.649 52.4963 124.53 45.5824 116.267C38.6685 108.004 34.2549 97.9398 32.8597 87.2563C31.4645 76.5729 33.1455 65.7131 37.7054 55.9515C42.2654 46.19 49.515 37.9317 58.6035 32.146C67.692 26.3602 78.2422 23.287 89.0159 23.287" stroke="#FF000F" stroke-opacity="0.01" stroke-width="22" shape-rendering="crispEdges"/>
</g>
<path d="M143.649 79.922C143.649 87.0968 142.236 94.2014 139.49 100.83C136.745 107.459 132.72 113.482 127.647 118.555C122.574 123.628 116.551 127.653 109.923 130.398C103.295 133.144 96.1903 134.557 89.0159 134.557C81.8414 134.557 74.7372 133.144 68.1088 130.398C61.4805 127.653 55.4578 123.628 50.3846 118.555C45.3114 113.482 41.2872 107.459 38.5416 100.83C35.796 94.2014 34.3828 87.0968 34.3828 79.922C34.3828 72.7472 35.796 65.6426 38.5416 59.014C41.2872 52.3853 45.3114 46.3624 50.3846 41.2891C55.4578 36.2158 61.4805 32.1914 68.1088 29.4458C74.7372 26.7001 81.8414 25.287 89.0159 25.287C96.1903 25.287 103.295 26.7001 109.923 29.4458C116.551 32.1914 122.574 36.2158 127.647 41.2891C132.72 46.3624 136.745 52.3853 139.49 59.014C142.236 65.6426 143.649 72.7472 143.649 79.922L143.649 79.922Z" stroke="#E9EAF3" stroke-width="26"/>
<path d="M106.149 131.801C98.3986 134.361 90.1729 135.151 82.0767 134.114C73.9805 133.078 66.2194 130.24 59.3639 125.81C52.5083 121.379 46.7326 115.469 42.461 108.514C38.1895 101.558 35.5307 93.7332 34.6802 85.6149C33.8297 77.4966 34.809 69.2909 37.5462 61.6008C40.2834 53.9107 44.7088 46.9317 50.4973 41.1767C56.2858 35.4217 63.2902 31.0369 70.9958 28.3445C78.7013 25.6522 86.9122 24.7207 95.025 25.6185" stroke="#45C74E" stroke-width="26" stroke-linecap="round"/>
<path d="M36.7518 96.7683C34.1919 89.0177 33.4013 80.7921 34.4381 72.6958C35.4749 64.5996 38.3127 56.8386 42.7429 49.983C47.1732 43.1275 53.0834 37.3517 60.0391 33.0802C66.9949 28.8086 74.8194 26.1499 82.9377 25.2994C91.056 24.4488 99.2617 25.4281 106.952 28.1653C114.642 30.9025 121.621 35.328 127.376 41.1165C133.131 46.9049 137.516 53.9094 140.208 61.6149C142.9 69.3205 143.832 77.5314 142.934 85.6442" stroke="#45C74E" stroke-width="26" stroke-linecap="round"/>
<path d="M95.4882 134.172C84.5291 135.48 73.4309 133.437 63.6552 128.314" stroke="#9240FB" stroke-width="26" stroke-linecap="round"/>
<path d="M142.795 89.5452C140.816 100.607 135.474 110.789 127.498 118.704C119.522 126.619 109.299 131.882 98.2227 133.776" stroke="#FFB016" stroke-width="26" stroke-linecap="round"/>
<defs>
<filter id="filter0_d_2924_30862" x="0.382812" y="0.286987" width="176.205" height="177.27" filterUnits="userSpaceOnUse" color-interpolation-filters="sRGB">
<feFlood flood-opacity="0" result="BackgroundImageFix"/>
<feColorMatrix in="SourceAlpha" type="matrix" values="0 0 0 0 0 0 0 0 0 0 0 0 0 0 0 0 0 0 127 0" result="hardAlpha"/>
<feOffset dy="9"/>
<feGaussianBlur stdDeviation="10.5"/>
<feComposite in2="hardAlpha" operator="out"/>
<feColorMatrix type="matrix" values="0 0 0 0 0.0791667 0 0 0 0 0.39225 0 0 0 0 1 0 0 0 0.08 0"/>
<feBlend mode="normal" in2="BackgroundImageFix" result="effect1_dropShadow_2924_30862"/>
<feBlend mode="normal" in="SourceGraphic" in2="effect1_dropShadow_2924_30862" result="shape"/>
</filter>
</defs>
</svg>
