<svg width="64" height="64" viewBox="0 0 64 64" fill="none" xmlns="http://www.w3.org/2000/svg">
<g clip-path="url(#clip0_2923_30694)">
<path d="M32 0C25.671 0 19.4841 1.87677 14.2218 5.39297C8.9594 8.90918 4.85787 13.9069 2.43587 19.7541C0.0138651 25.6014 -0.619842 32.0355 0.614886 38.2429C1.84961 44.4503 4.89731 50.1521 9.37259 54.6274C13.8479 59.1027 19.5497 62.1504 25.7571 63.3851C31.9645 64.6199 38.3986 63.9861 44.2459 61.5641C50.0931 59.1421 55.0908 55.0406 58.607 49.7782C62.1232 44.5159 64 38.329 64 32C63.987 23.5171 60.6114 15.3853 54.6131 9.38697C48.6147 3.38862 40.4829 0.0130206 32 0ZM35.6923 50.4123V52.9231C35.6923 53.9023 35.3033 54.8415 34.6109 55.5339C33.9184 56.2264 32.9793 56.6154 32 56.6154C31.0208 56.6154 30.0816 56.2264 29.3892 55.5339C28.6967 54.8415 28.3077 53.9023 28.3077 52.9231V50.4615H24.6154C23.6361 50.4615 22.697 50.0725 22.0045 49.3801C21.3121 48.6876 20.9231 47.7485 20.9231 46.7692C20.9231 45.79 21.3121 44.8508 22.0045 44.1584C22.697 43.4659 23.6361 43.0769 24.6154 43.0769H34.4616C35.2319 43.0769 35.9707 42.7709 36.5154 42.2262C37.0601 41.6815 37.3662 40.9427 37.3662 40.1723C37.3755 39.5889 37.206 39.0167 36.8803 38.5326C36.5547 38.0485 36.0885 37.6758 35.5446 37.4646L25.4031 33.3785C23.3143 32.4964 21.5754 30.9491 20.4565 28.9771C19.3377 27.005 18.9015 24.7186 19.2159 22.4731C19.5303 20.2277 20.5775 18.1489 22.1949 16.5599C23.8123 14.9709 25.9093 13.9607 28.16 13.6862V11.0769C28.16 10.0977 28.549 9.15851 29.2415 8.46607C29.9339 7.77363 30.8731 7.38462 31.8523 7.38462C32.8316 7.38462 33.7707 7.77363 34.4632 8.46607C35.1556 9.15851 35.5446 10.0977 35.5446 11.0769V13.5385H39.2369C40.2162 13.5385 41.1554 13.9275 41.8478 14.6199C42.5402 15.3124 42.9292 16.2515 42.9292 17.2308C42.9292 18.21 42.5402 19.1492 41.8478 19.8416C41.1554 20.5341 40.2162 20.9231 39.2369 20.9231H29.3908C28.6139 20.7795 27.8118 20.9503 27.1609 21.3981C26.51 21.8459 26.0636 22.5339 25.92 23.3108C25.7764 24.0877 25.9473 24.8898 26.395 25.5407C26.8428 26.1916 27.5308 26.6379 28.3077 26.7815L38.4492 30.8185C40.5043 31.7285 42.2069 33.2835 43.2991 35.2479C44.3912 37.2123 44.8135 39.4791 44.5018 41.705C44.1902 43.9308 43.1617 45.9945 41.5721 47.5835C39.9825 49.1724 37.9183 50.2001 35.6923 50.5108V50.4123Z" fill="#1476FF"/>
</g>
<defs>
<clipPath id="clip0_2923_30694">
<rect width="64" height="64" fill="white"/>
</clipPath>
</defs>
</svg>
