<svg width="16" height="12" viewBox="0 0 16 12" fill="none" xmlns="http://www.w3.org/2000/svg">
<path d="M13.687 1.37806C15.4036 3.90202 16.2514 6.74897 15.9345 10.0265C15.9332 10.0403 15.9259 10.0531 15.9145 10.0614C14.6146 11.016 13.355 11.5953 12.1132 11.9795C12.1035 11.9824 12.0932 11.9822 12.0836 11.979C12.074 11.9758 12.0657 11.9696 12.0598 11.9614C11.7729 11.5622 11.5122 11.1414 11.2839 10.6994C11.2708 10.6734 11.2827 10.6421 11.3097 10.6318C11.7237 10.4758 12.1174 10.2889 12.4961 10.0675C12.5259 10.05 12.5278 10.0073 12.5002 9.98676C12.4199 9.9271 12.3403 9.8644 12.2641 9.8017C12.2498 9.79011 12.2306 9.78783 12.2145 9.79562C9.75607 10.9309 7.06302 10.9309 4.57554 9.79562C4.55939 9.7884 4.5402 9.79087 4.52633 9.80227C4.45033 9.86497 4.37053 9.9271 4.29092 9.98676C4.26337 10.0073 4.26565 10.05 4.29567 10.0675C4.67434 10.2847 5.06802 10.4758 5.48146 10.6326C5.50825 10.6428 5.52098 10.6734 5.50768 10.6994C5.28424 11.142 5.02356 11.5628 4.73134 11.962C4.71861 11.9781 4.69771 11.9856 4.67795 11.9795C3.44201 11.5953 2.1825 11.016 0.88252 10.0614C0.87169 10.0531 0.8639 10.0398 0.86276 10.0259C0.597901 7.19091 1.13769 4.3204 3.10818 1.37749C3.11293 1.3697 3.12015 1.36362 3.12851 1.36001C4.09807 0.915032 5.1368 0.587663 6.22246 0.400703C6.24222 0.397663 6.26198 0.406783 6.27224 0.424263C6.40638 0.661763 6.55971 0.966332 6.66345 1.21523C7.80782 1.04043 8.97005 1.04043 10.1384 1.21523C10.2421 0.971652 10.3901 0.661763 10.5237 0.424263C10.5284 0.415592 10.5358 0.408644 10.5447 0.404413C10.5537 0.400182 10.5637 0.398884 10.5735 0.400703C11.6597 0.588233 12.6984 0.915602 13.6672 1.36001C13.6758 1.36362 13.6828 1.3697 13.687 1.37806ZM7.24523 6.76835C7.2572 5.93026 6.64616 5.23676 5.87913 5.23676C5.11837 5.23676 4.51322 5.92418 4.51322 6.76835C4.51322 7.61233 5.13034 8.29975 5.87913 8.29975C6.64008 8.29975 7.24523 7.61233 7.24523 6.76835ZM12.2958 6.76835C12.3078 5.93026 11.6967 5.23676 10.9299 5.23676C10.1689 5.23676 9.5638 5.92418 9.5638 6.76835C9.5638 7.61233 10.1809 8.29975 10.9299 8.29975C11.6967 8.29975 12.2958 7.61233 12.2958 6.76835Z" fill="white"/>
</svg>
