<svg width="37" height="34" viewBox="0 0 37 34" fill="none" xmlns="http://www.w3.org/2000/svg">
<g filter="url(#filter0_d_2946_31280)">
<path d="M27.9356 6.15415C31.0631 10.7525 32.6077 15.9393 32.0303 21.9105C32.0279 21.9357 32.0147 21.9589 31.994 21.9742C29.6256 23.7132 27.3309 24.7687 25.0684 25.4686C25.0508 25.4739 25.032 25.4737 25.0145 25.4678C24.9971 25.4619 24.9819 25.4507 24.9711 25.4357C24.4485 24.7084 23.9735 23.9417 23.5574 23.1365C23.5336 23.0891 23.5554 23.032 23.6045 23.0133C24.3588 22.7291 25.076 22.3885 25.7659 21.9852C25.8203 21.9534 25.8237 21.8755 25.7735 21.8381C25.6271 21.7294 25.4821 21.6152 25.3433 21.501C25.3173 21.4798 25.2823 21.4757 25.2529 21.4899C20.774 23.5582 15.8676 23.5582 11.3357 21.4899C11.3063 21.4767 11.2713 21.4812 11.2461 21.502C11.1076 21.6162 10.9622 21.7294 10.8172 21.8381C10.767 21.8755 10.7712 21.9534 10.8258 21.9852C11.5157 22.3809 12.233 22.7291 12.9862 23.0147C13.035 23.0334 13.0582 23.0891 13.034 23.1365C12.6269 23.9427 12.152 24.7095 11.6196 25.4368C11.5964 25.4662 11.5583 25.4797 11.5223 25.4686C9.27057 24.7687 6.9759 23.7132 4.60751 21.9742C4.58778 21.9589 4.57358 21.9347 4.57151 21.9094C4.08896 16.7444 5.07239 11.5147 8.66237 6.15312C8.67103 6.13892 8.68418 6.12785 8.69941 6.12127C10.4658 5.31057 12.3583 4.71415 14.3362 4.37353C14.3722 4.36799 14.4082 4.38461 14.4269 4.41645C14.6713 4.84915 14.9506 5.40403 15.1396 5.8575C17.2245 5.53904 19.342 5.53904 21.4705 5.8575C21.6595 5.41373 21.9291 4.84915 22.1725 4.41645C22.1811 4.40065 22.1946 4.388 22.2109 4.38029C22.2272 4.37258 22.2455 4.37021 22.2632 4.37353C24.2421 4.71519 26.1346 5.31161 27.8996 6.12127C27.9152 6.12785 27.928 6.13892 27.9356 6.15415ZM16.1996 15.9746C16.2214 14.4477 15.1081 13.1842 13.7107 13.1842C12.3247 13.1842 11.2222 14.4366 11.2222 15.9746C11.2222 17.5122 12.3465 18.7646 13.7107 18.7646C15.0971 18.7646 16.1996 17.5122 16.1996 15.9746ZM25.4011 15.9746C25.4229 14.4477 24.3096 13.1842 22.9126 13.1842C21.5262 13.1842 20.4237 14.4366 20.4237 15.9746C20.4237 17.5122 21.548 18.7646 22.9126 18.7646C24.3096 18.7646 25.4011 17.5122 25.4011 15.9746Z" fill="#0B0E2C"/>
</g>
<defs>
<filter id="filter0_d_2946_31280" x="-1" y="0" width="37.1504" height="37.1499" filterUnits="userSpaceOnUse" color-interpolation-filters="sRGB">
<feFlood flood-opacity="0" result="BackgroundImageFix"/>
<feColorMatrix in="SourceAlpha" type="matrix" values="0 0 0 0 0 0 0 0 0 0 0 0 0 0 0 0 0 0 127 0" result="hardAlpha"/>
<feOffset dy="4"/>
<feGaussianBlur stdDeviation="2"/>
<feComposite in2="hardAlpha" operator="out"/>
<feColorMatrix type="matrix" values="0 0 0 0 0 0 0 0 0 0 0 0 0 0 0 0 0 0 0.25 0"/>
<feBlend mode="normal" in2="BackgroundImageFix" result="effect1_dropShadow_2946_31280"/>
<feBlend mode="normal" in="SourceGraphic" in2="effect1_dropShadow_2946_31280" result="shape"/>
</filter>
</defs>
</svg>
