<svg width="519" height="292" viewBox="0 0 519 292" fill="none" xmlns="http://www.w3.org/2000/svg">
<g filter="url(#filter0_d_2924_30827)">
<rect x="10.2871" y="8.87354" width="498.097" height="270.35" rx="30" fill="white"/>
<rect x="10.7871" y="9.37354" width="497.097" height="269.35" rx="29.5" stroke="#E9EAF3"/>
</g>
<line x1="149.367" y1="248.934" x2="149.367" y2="94.7967" stroke="#E9EAF3"/>
<line x1="247.164" y1="248.934" x2="247.164" y2="94.7967" stroke="#E9EAF3"/>
<line x1="344.959" y1="248.934" x2="344.959" y2="94.7967" stroke="#E9EAF3"/>
<line x1="442.758" y1="248.934" x2="442.758" y2="94.7968" stroke="#E9EAF3"/>
<path d="M79.4844 249.141L79.4844 93.9276" stroke="#E9EAF3"/>
<path d="M39 249L39 50" stroke="#E9EAF3"/>
<path d="M457.202 37.4143L466.535 28.081" stroke="#14CA74" stroke-width="1.4" stroke-linecap="round" stroke-linejoin="round"/>
<path d="M466.535 36.8805V28.081H457.736" stroke="#14CA74" stroke-width="1.4" stroke-linecap="round" stroke-linejoin="round"/>
<path d="M184.883 137.884C125.464 137.884 66.4213 154.946 38.8809 164.89V250.305H479.717V100.515C456.704 119.147 425.957 153.585 359.746 153.585C293.536 153.585 243.072 137.884 184.883 137.884Z" fill="url(#paint0_linear_2924_30827)"/>
<g filter="url(#filter1_d_2924_30827)">
<path d="M38.8809 165.069C66.4213 155.097 125.464 137.988 184.883 137.988C243.072 137.988 293.536 153.733 359.746 153.733C425.957 153.733 456.704 119.199 479.717 100.515" stroke="#FF000F" stroke-opacity="0.01" stroke-width="5" stroke-linecap="round" shape-rendering="crispEdges"/>
</g>
<path d="M38.918 167.068C66.4584 157.097 125.501 139.987 184.92 139.987C243.109 139.987 293.573 155.732 359.783 155.732C425.994 155.732 456.741 121.198 479.754 102.514" stroke="#1476FF" stroke-width="6" stroke-linecap="round"/>
<path d="M407.991 38.6314C407.21 38.6314 406.513 38.4969 405.9 38.228C405.29 37.959 404.807 37.5859 404.451 37.1087C404.099 36.6276 403.909 36.0708 403.883 35.4382H405.667C405.69 35.7829 405.805 36.0821 406.013 36.3359C406.226 36.5859 406.502 36.7791 406.843 36.9155C407.184 37.0518 407.563 37.12 407.979 37.12C408.438 37.12 408.843 37.0405 409.195 36.8814C409.551 36.7223 409.83 36.5007 410.031 36.2166C410.231 35.9287 410.332 35.5973 410.332 35.2223C410.332 34.8321 410.231 34.4893 410.031 34.1939C409.834 33.8946 409.544 33.6598 409.161 33.4893C408.782 33.3189 408.324 33.2337 407.786 33.2337H406.803V31.8018H407.786C408.218 31.8018 408.597 31.7242 408.923 31.5689C409.252 31.4136 409.51 31.1977 409.695 30.9212C409.881 30.6409 409.974 30.3132 409.974 29.9382C409.974 29.5784 409.892 29.2659 409.729 29.0007C409.57 28.7318 409.343 28.5215 409.048 28.37C408.756 28.2185 408.411 28.1427 408.013 28.1427C407.635 28.1427 407.281 28.2128 406.951 28.353C406.625 28.4893 406.36 28.6863 406.156 28.9439C405.951 29.1977 405.841 29.5026 405.826 29.8587H404.127C404.146 29.2299 404.332 28.6768 404.684 28.1996C405.04 27.7223 405.51 27.3492 406.093 27.0802C406.676 26.8113 407.324 26.6768 408.036 26.6768C408.782 26.6768 409.426 26.8227 409.968 27.1143C410.513 27.4022 410.934 27.7867 411.229 28.2677C411.529 28.7488 411.676 29.2753 411.673 29.8473C411.676 30.4988 411.495 31.0518 411.127 31.5064C410.763 31.9609 410.279 32.2659 409.673 32.4212V32.5121C410.445 32.6295 411.044 32.9363 411.468 33.4325C411.896 33.9287 412.108 34.5443 412.104 35.2791C412.108 35.9193 411.93 36.4931 411.57 37.0007C411.214 37.5083 410.728 37.9079 410.11 38.1996C409.493 38.4874 408.786 38.6314 407.991 38.6314ZM418.315 38.6314C417.796 38.6238 417.284 38.5291 416.781 38.3473C416.281 38.1655 415.826 37.8624 415.417 37.4382C415.008 37.014 414.68 36.4439 414.434 35.728C414.192 35.0121 414.07 34.1181 414.07 33.0462C414.07 32.031 414.171 31.1295 414.371 30.3416C414.576 29.5537 414.87 28.889 415.252 28.3473C415.635 27.8018 416.097 27.3871 416.638 27.103C417.18 26.8189 417.788 26.6768 418.462 26.6768C419.156 26.6768 419.771 26.8132 420.309 27.0859C420.847 27.3587 421.282 27.7355 421.616 28.2166C421.953 28.6977 422.167 29.245 422.258 29.8587H420.525C420.407 29.3738 420.174 28.978 419.826 28.6712C419.478 28.3643 419.023 28.2109 418.462 28.2109C417.61 28.2109 416.945 28.5821 416.468 29.3246C415.995 30.067 415.756 31.0992 415.752 32.4212H415.837C416.038 32.0916 416.284 31.8113 416.576 31.5802C416.871 31.3454 417.201 31.1655 417.565 31.0405C417.932 30.9117 418.318 30.8473 418.724 30.8473C419.398 30.8473 420.008 31.0121 420.553 31.3416C421.103 31.6674 421.54 32.1181 421.866 32.6939C422.192 33.2696 422.354 33.9287 422.354 34.6712C422.354 35.4136 422.186 36.0859 421.849 36.6882C421.515 37.2905 421.046 37.7677 420.44 38.12C419.834 38.4685 419.125 38.639 418.315 38.6314ZM418.309 37.1541C418.756 37.1541 419.156 37.0443 419.508 36.8246C419.86 36.6049 420.138 36.3094 420.343 35.9382C420.548 35.567 420.65 35.1522 420.65 34.6939C420.65 34.2469 420.549 33.8397 420.349 33.4723C420.152 33.1049 419.879 32.8132 419.531 32.5973C419.186 32.3814 418.792 32.2734 418.349 32.2734C418.012 32.2734 417.699 32.3378 417.411 32.4666C417.127 32.5954 416.877 32.7734 416.661 33.0007C416.445 33.228 416.275 33.4893 416.15 33.7848C416.029 34.0765 415.968 34.3852 415.968 34.7109C415.968 35.1465 416.068 35.5499 416.269 35.9212C416.474 36.2924 416.752 36.5916 417.104 36.8189C417.46 37.0424 417.862 37.1541 418.309 37.1541ZM425.035 38.5802C424.724 38.5802 424.457 38.4704 424.234 38.2507C424.01 38.0272 423.898 37.7583 423.898 37.4439C423.898 37.1333 424.01 36.8681 424.234 36.6484C424.457 36.4249 424.724 36.3132 425.035 36.3132C425.345 36.3132 425.612 36.4249 425.836 36.6484C426.059 36.8681 426.171 37.1333 426.171 37.4439C426.171 37.6522 426.118 37.8435 426.012 38.0177C425.91 38.1882 425.773 38.3246 425.603 38.4268C425.433 38.5291 425.243 38.5802 425.035 38.5802ZM432.077 38.6314C431.365 38.6314 430.725 38.495 430.157 38.2223C429.593 37.9458 429.142 37.567 428.805 37.0859C428.468 36.6049 428.288 36.0556 428.265 35.4382H429.969C430.011 35.9382 430.233 36.3492 430.634 36.6712C431.036 36.9931 431.517 37.1541 432.077 37.1541C432.524 37.1541 432.92 37.0518 433.265 36.8473C433.613 36.639 433.886 36.353 434.083 35.9893C434.284 35.6257 434.384 35.2109 434.384 34.745C434.384 34.2715 434.282 33.8492 434.077 33.478C433.873 33.1068 433.591 32.8151 433.231 32.603C432.875 32.3909 432.466 32.2829 432.004 32.2791C431.651 32.2791 431.297 32.3397 430.941 32.4609C430.585 32.5821 430.297 32.7412 430.077 32.9382L428.469 32.6996L429.123 26.8359H435.521V28.3416H430.583L430.214 31.5973H430.282C430.509 31.3776 430.81 31.1939 431.185 31.0462C431.564 30.8984 431.969 30.8246 432.401 30.8246C433.11 30.8246 433.74 30.9931 434.293 31.3302C434.85 31.6674 435.288 32.1276 435.606 32.7109C435.928 33.2905 436.087 33.9571 436.083 34.7109C436.087 35.4647 435.916 36.1371 435.572 36.728C435.231 37.3189 434.757 37.7848 434.151 38.1257C433.549 38.4628 432.858 38.6314 432.077 38.6314ZM444.232 36.2905V35.6768C444.232 35.2374 444.323 34.8359 444.505 34.4723C444.691 34.1049 444.96 33.8113 445.312 33.5916C445.668 33.3681 446.098 33.2564 446.602 33.2564C447.117 33.2564 447.549 33.3662 447.897 33.5859C448.246 33.8056 448.509 34.0992 448.687 34.4666C448.869 34.834 448.96 35.2374 448.96 35.6768V36.2905C448.96 36.7299 448.869 37.1333 448.687 37.5007C448.505 37.8643 448.238 38.1579 447.886 38.3814C447.537 38.6011 447.109 38.7109 446.602 38.7109C446.09 38.7109 445.658 38.6011 445.306 38.3814C444.954 38.1579 444.687 37.8643 444.505 37.5007C444.323 37.1333 444.232 36.7299 444.232 36.2905ZM445.556 35.6768V36.2905C445.556 36.6162 445.634 36.9117 445.789 37.1768C445.944 37.442 446.215 37.5746 446.602 37.5746C446.984 37.5746 447.251 37.442 447.403 37.1768C447.554 36.9117 447.63 36.6162 447.63 36.2905V35.6768C447.63 35.3511 447.556 35.0556 447.408 34.7905C447.264 34.5253 446.996 34.3927 446.602 34.3927C446.223 34.3927 445.954 34.5253 445.795 34.7905C445.636 35.0556 445.556 35.3511 445.556 35.6768ZM438.38 29.6314V29.0177C438.38 28.5784 438.471 28.1749 438.653 27.8075C438.838 27.4401 439.107 27.1465 439.46 26.9268C439.816 26.7071 440.246 26.5973 440.749 26.5973C441.264 26.5973 441.696 26.7071 442.045 26.9268C442.393 27.1465 442.656 27.4401 442.835 27.8075C443.013 28.1749 443.102 28.5784 443.102 29.0177V29.6314C443.102 30.0708 443.011 30.4742 442.829 30.8416C442.651 31.2052 442.386 31.4988 442.033 31.7223C441.685 31.942 441.257 32.0518 440.749 32.0518C440.234 32.0518 439.8 31.942 439.448 31.7223C439.1 31.4988 438.835 31.2052 438.653 30.8416C438.471 30.4742 438.38 30.0708 438.38 29.6314ZM439.71 29.0177V29.6314C439.71 29.9571 439.785 30.2526 439.937 30.5177C440.092 30.7829 440.363 30.9155 440.749 30.9155C441.128 30.9155 441.393 30.7829 441.545 30.5177C441.7 30.2526 441.778 29.9571 441.778 29.6314V29.0177C441.778 28.692 441.704 28.3965 441.556 28.1314C441.408 27.8662 441.139 27.7337 440.749 27.7337C440.371 27.7337 440.102 27.8662 439.942 28.1314C439.787 28.3965 439.71 28.692 439.71 29.0177ZM438.92 38.4723L446.92 26.8359H448.278L440.278 38.4723H438.92Z" fill="#14CA74"/>
<line x1="39.6523" y1="49.8894" x2="478.078" y2="49.8894" stroke="#E9EAF3"/>
<line x1="38.9997" y1="249.5" x2="478.893" y2="249.207" stroke="#E9EAF3"/>
<defs>
<filter id="filter0_d_2924_30827" x="0.287109" y="0.873535" width="518.098" height="290.35" filterUnits="userSpaceOnUse" color-interpolation-filters="sRGB">
<feFlood flood-opacity="0" result="BackgroundImageFix"/>
<feColorMatrix in="SourceAlpha" type="matrix" values="0 0 0 0 0 0 0 0 0 0 0 0 0 0 0 0 0 0 127 0" result="hardAlpha"/>
<feOffset dy="2"/>
<feGaussianBlur stdDeviation="5"/>
<feComposite in2="hardAlpha" operator="out"/>
<feColorMatrix type="matrix" values="0 0 0 0 0.0984896 0 0 0 0 0.364094 0 0 0 0 0.7625 0 0 0 0.07 0"/>
<feBlend mode="normal" in2="BackgroundImageFix" result="effect1_dropShadow_2924_30827"/>
<feBlend mode="normal" in="SourceGraphic" in2="effect1_dropShadow_2924_30827" result="shape"/>
</filter>
<filter id="filter1_d_2924_30827" x="22.3809" y="93.0146" width="473.836" height="97.5549" filterUnits="userSpaceOnUse" color-interpolation-filters="sRGB">
<feFlood flood-opacity="0" result="BackgroundImageFix"/>
<feColorMatrix in="SourceAlpha" type="matrix" values="0 0 0 0 0 0 0 0 0 0 0 0 0 0 0 0 0 0 127 0" result="hardAlpha"/>
<feOffset dy="9"/>
<feGaussianBlur stdDeviation="7"/>
<feComposite in2="hardAlpha" operator="out"/>
<feColorMatrix type="matrix" values="0 0 0 0 0.0791667 0 0 0 0 0.462847 0 0 0 0 1 0 0 0 0.26 0"/>
<feBlend mode="normal" in2="BackgroundImageFix" result="effect1_dropShadow_2924_30827"/>
<feBlend mode="normal" in="SourceGraphic" in2="effect1_dropShadow_2924_30827" result="shape"/>
</filter>
<linearGradient id="paint0_linear_2924_30827" x1="259.299" y1="100.515" x2="259.299" y2="250.305" gradientUnits="userSpaceOnUse">
<stop stop-color="#0257FB" stop-opacity="0.33"/>
<stop offset="0.908888" stop-color="#0257FB" stop-opacity="0"/>
</linearGradient>
</defs>
</svg>
