<svg width="64" height="38" viewBox="0 0 64 38" fill="none" xmlns="http://www.w3.org/2000/svg">
<path d="M3.86296 37.3555C4.86923 37.3657 5.84055 36.9868 6.57428 36.2981L23.8454 20.1387C24.0884 19.9018 24.4143 19.7693 24.7537 19.7693C25.093 19.7693 25.4189 19.9018 25.662 20.1387L31.4371 25.9409C33.1825 27.6082 35.5033 28.5386 37.9171 28.5386C40.3309 28.5386 42.6518 27.6082 44.3972 25.9409L54.0223 16.3428C54.0828 16.2822 54.1546 16.234 54.2337 16.2012C54.3128 16.1683 54.3976 16.1514 54.4833 16.1514C54.5689 16.1514 54.6537 16.1683 54.7328 16.2012C54.8119 16.234 54.8837 16.2822 54.9442 16.3428L59.5534 20.9249C59.793 21.1702 60.0801 21.364 60.3971 21.4945C60.7141 21.625 61.0544 21.6896 61.3971 21.6841C61.7405 21.685 62.081 21.6205 62.4003 21.4943C62.8677 21.2844 63.2661 20.9463 63.5492 20.5192C63.8323 20.0921 63.9886 19.5935 64 19.0813V3.35561C64 2.63652 63.7143 1.94689 63.2059 1.43841C62.6974 0.929944 62.0078 0.644287 61.2887 0.644287H45.6986C45.1987 0.683073 44.7194 0.859694 44.3139 1.15452C43.9084 1.44935 43.5926 1.85085 43.4016 2.31438C43.2105 2.77792 43.1518 3.28535 43.2318 3.78028C43.3118 4.27521 43.5275 4.73825 43.8549 5.11796L48.4641 9.70009C48.5258 9.75974 48.5744 9.83146 48.6071 9.91076C48.6398 9.99007 48.6557 10.0753 48.6539 10.161C48.6593 10.2472 48.645 10.3335 48.6122 10.4134C48.5793 10.4932 48.5287 10.5645 48.4641 10.6219L38.7847 20.3285C38.5341 20.5609 38.2048 20.6901 37.8629 20.6901C37.521 20.6901 37.1917 20.5609 36.941 20.3285L31.1388 14.5262C29.4552 12.8474 27.1804 11.8957 24.8029 11.8755C22.4254 11.8552 20.1348 12.768 18.4227 14.4178L1.17876 30.6857C0.454098 31.3922 0.0321062 32.3525 0.00175759 33.3641C-0.0285911 34.3758 0.335075 35.3596 1.01608 36.1083C1.37681 36.504 1.81663 36.8195 2.30705 37.0343C2.79747 37.2492 3.32755 37.3586 3.86296 37.3555Z" fill="#1476FF"/>
</svg>
