<svg width="64" height="50" viewBox="0 0 64 50" fill="none" xmlns="http://www.w3.org/2000/svg">
<path d="M9.32181 32.277C10.0288 32.277 10.7068 31.9961 11.2067 31.4962C11.7065 30.9964 11.9874 30.3184 11.9874 29.6114V7.46056C11.9874 6.98691 12.1755 6.53265 12.5105 6.19772C12.8454 5.8628 13.2997 5.67464 13.7733 5.67464H50.1849C50.4195 5.67464 50.6517 5.72083 50.8684 5.81058C51.085 5.90033 51.2819 6.03188 51.4478 6.19772C51.6136 6.36356 51.7452 6.56044 51.8349 6.77712C51.9247 6.9938 51.9709 7.22603 51.9709 7.46056V29.6114C51.9709 30.3184 52.2517 30.9964 52.7516 31.4962C53.2515 31.9961 53.9295 32.277 54.6364 32.277C55.3434 32.277 56.0214 31.9961 56.5213 31.4962C57.0211 30.9964 57.302 30.3184 57.302 29.6114V7.46056C57.295 5.57516 56.5429 3.76899 55.2097 2.4358C53.8765 1.10261 52.0703 0.350528 50.1849 0.343506H13.7733C11.8879 0.350528 10.0817 1.10261 8.74855 2.4358C7.41536 3.76899 6.66327 5.57516 6.65625 7.46056V29.6114C6.65625 30.3184 6.93709 30.9964 7.43698 31.4962C7.93687 31.9961 8.61486 32.277 9.32181 32.277Z" fill="#1476FF"/>
<path d="M63.673 36.8351C63.5503 36.6765 63.3926 36.5484 63.2124 36.4605C63.0321 36.3727 62.834 36.3276 62.6335 36.3286H41.309C40.9555 36.3286 40.6165 36.469 40.3665 36.719C40.1166 36.9689 39.9762 37.3079 39.9762 37.6614C39.9762 39.554 36.6975 41.6598 31.9795 41.6598C27.2614 41.6598 23.9828 39.554 23.9828 37.6614C23.9828 37.3079 23.8424 36.9689 23.5924 36.719C23.3425 36.469 23.0035 36.3286 22.65 36.3286H1.32548C1.12495 36.3276 0.926873 36.3727 0.746596 36.4605C0.566319 36.5484 0.408685 36.6765 0.285913 36.8351C0.157581 36.9933 0.0688631 37.1798 0.0271368 37.3791C-0.0145895 37.5785 -0.00811838 37.7849 0.046012 37.9813C0.869132 41.3169 2.78722 44.28 5.49342 46.3966C8.19961 48.5133 11.5375 49.6611 14.9732 49.6565H48.9858C52.4305 49.673 55.7808 48.5307 58.4979 46.4131C61.215 44.2956 63.141 41.3258 63.9663 37.9813C64.0133 37.7807 64.0111 37.5718 63.9601 37.3723C63.909 37.1727 63.8106 36.9884 63.673 36.8351Z" fill="#1476FF"/>
</svg>
