<svg width="390" height="118" viewBox="0 0 390 118" fill="none" xmlns="http://www.w3.org/2000/svg">
<mask id="mask0_2924_30903" style="mask-type:alpha" maskUnits="userSpaceOnUse" x="0" y="0" width="390" height="118">
<rect x="0.419922" y="0.2771" width="388.888" height="117.009" rx="24" fill="#1476FF"/>
</mask>
<g mask="url(#mask0_2924_30903)">
<g opacity="0.06">
<mask id="mask1_2924_30903" style="mask-type:alpha" maskUnits="userSpaceOnUse" x="-45" y="-64" width="160" height="153">
<ellipse cx="35.1458" cy="12.4272" rx="79.5442" ry="75.8638" fill="#1476FF"/>
</mask>
<g mask="url(#mask1_2924_30903)">
<path d="M101.52 5.76443C100.17 5.76443 98.8292 5.74028 97.4934 5.68141L96.6783 5.64821C93.9354 5.53953 90.8222 5.41725 88.4481 4.20361C83.5638 1.7069 80.7275 -4.09864 78.8504 -7.94485C77.79 -10.1155 76.7564 -12.3345 75.7577 -14.481C73.7872 -18.7076 71.7518 -23.0851 69.4268 -27.2498C62.3733 -39.9799 53.8232 -51.9027 43.9417 -62.788C43.8789 -62.8648 43.8494 -62.9617 43.8593 -63.0586C43.8692 -63.1556 43.9176 -63.2452 43.9947 -63.309C44.0718 -63.3729 44.1717 -63.4061 44.2737 -63.4019C44.3757 -63.3976 44.4721 -63.3562 44.5431 -63.2861C54.4654 -52.3571 63.0516 -40.3868 70.1359 -27.6061C72.4672 -23.4142 74.5089 -19.0291 76.4842 -14.7889C77.4813 -12.6454 78.5148 -10.4295 79.5705 -8.26486C81.4033 -4.51225 84.1731 1.15745 88.8247 3.5349C91.0406 4.66703 94.0478 4.78629 96.7099 4.89346L97.5298 4.92667C103.144 5.17422 109.066 4.81949 114.291 4.50552C114.389 4.50972 114.482 4.54835 114.552 4.61399C114.623 4.67964 114.665 4.76768 114.671 4.86123C114.677 4.95478 114.647 5.04725 114.586 5.12089C114.526 5.19453 114.438 5.24416 114.342 5.26027C110.329 5.49424 105.907 5.76443 101.52 5.76443Z" fill="white"/>
<path d="M114.316 15.6816C113.015 15.665 111.709 15.6605 110.328 15.6544C101.488 15.6197 91.471 15.5805 83.2519 12.4075C77.2169 10.0768 75.3937 5.02 73.4643 -0.334194L73.3361 -0.690434C70.666 -8.08699 67.9042 -15.7371 64.142 -23.0084C57.1163 -36.5849 46.9425 -49.5907 33.0429 -62.7686C32.9682 -62.8395 32.9261 -62.9358 32.9258 -63.0363C32.9255 -63.1368 32.9671 -63.2333 33.0414 -63.3045C33.1157 -63.3758 33.2166 -63.416 33.322 -63.4163C33.4273 -63.4165 33.5285 -63.3769 33.6032 -63.306C47.5629 -50.0692 57.7842 -36.9969 64.8495 -23.3375C68.6338 -16.0239 71.4036 -8.35115 74.0831 -0.93045L74.2113 -0.575718C76.1613 4.83584 77.8516 9.50925 83.5495 11.7101C91.6214 14.8287 101.563 14.868 110.329 14.9027C111.713 14.9027 113.02 14.9133 114.324 14.9299C114.423 14.9383 114.515 14.9817 114.582 15.0516C114.649 15.1214 114.686 15.2126 114.686 15.3073C114.686 15.4019 114.649 15.4931 114.582 15.5629C114.515 15.6328 114.423 15.6762 114.324 15.6846L114.316 15.6816Z" fill="white"/>
<path d="M114.314 26.099H114.281C112.89 25.9903 111.492 25.8891 110.007 25.7835C99.3905 25.0287 87.3554 24.1608 77.8939 19.5825C71.6452 16.5635 69.4642 11.9851 67.8071 5.10635C65.1608 -5.88734 62.2676 -14.022 58.4263 -21.2707C50.9225 -35.4343 39.386 -48.6138 22.1216 -62.7472C22.0414 -62.8127 21.9918 -62.9058 21.9836 -63.0062C21.9755 -63.1065 22.0094 -63.2059 22.0781 -63.2823C22.1467 -63.3588 22.2444 -63.4061 22.3496 -63.4139C22.4548 -63.4217 22.559 -63.3893 22.6391 -63.3238C39.9922 -49.1224 51.5889 -35.866 59.1432 -21.6133C63.013 -14.3088 65.9268 -6.11981 68.589 4.93427C70.1923 11.5942 72.2894 16.0155 78.261 18.9047C87.5802 23.4136 99.5298 24.271 110.074 25.0257C111.555 25.1314 112.953 25.2325 114.347 25.3427C114.447 25.3542 114.538 25.4009 114.602 25.4736C114.667 25.5463 114.701 25.6395 114.696 25.7347C114.692 25.83 114.65 25.9202 114.58 25.9874C114.509 26.0547 114.414 26.0939 114.314 26.0975V26.099Z" fill="white"/>
<path d="M114.316 36.5187H114.259C112.954 36.3406 111.619 36.164 110.265 35.9844C97.3194 34.2711 82.6459 32.3299 71.7867 25.6443C64.8765 21.3905 63.115 14.9465 62.3046 9.20281C60.6886 -2.24977 57.8935 -11.3777 53.5078 -19.526C49.0761 -27.7679 43.0143 -35.5629 34.9898 -43.358C28.6494 -49.5288 21.0935 -55.6846 11.2077 -62.7355C11.1608 -62.7632 11.1205 -62.7998 11.0893 -62.8432C11.0581 -62.8866 11.0367 -62.9357 11.0264 -62.9874C11.0162 -63.0391 11.0174 -63.0922 11.0299 -63.1435C11.0423 -63.1947 11.0659 -63.2429 11.099 -63.285C11.1321 -63.3271 11.174 -63.3621 11.2221 -63.3879C11.2701 -63.4137 11.3233 -63.4296 11.3782 -63.4347C11.4331 -63.4398 11.4885 -63.434 11.5409 -63.4176C11.5933 -63.4011 11.6415 -63.3745 11.6825 -63.3393C21.5984 -56.2657 29.186 -50.0859 35.5612 -43.8924C43.6331 -36.043 49.7393 -28.186 54.2137 -19.8747C58.6453 -11.6479 61.4626 -2.44148 63.0912 9.09866C63.623 12.8724 64.4603 15.7405 65.7249 18.1557C67.2127 20.9905 69.3351 23.2306 72.2141 25.0028C82.926 31.5978 97.5061 33.5269 110.371 35.2281C111.727 35.4077 113.061 35.5844 114.37 35.764C114.471 35.7761 114.563 35.8246 114.628 35.8996C114.692 35.9746 114.724 36.0704 114.717 36.1671C114.71 36.2639 114.664 36.3543 114.589 36.4197C114.513 36.4851 114.415 36.5206 114.313 36.5187H114.316Z" fill="white"/>
<path d="M114.316 46.9084C114.286 46.9086 114.255 46.905 114.226 46.8979C111.589 46.3182 108.932 45.7778 106.118 45.2072C91.9411 42.3256 77.2803 39.3564 65.9986 31.2051C58.4315 25.7392 57.1052 18.557 56.7982 11.6088C56.2743 -0.260437 53.4839 -10.4058 48.2672 -19.4069C43.3608 -27.8602 36.4078 -35.7971 26.989 -43.6616C18.7746 -50.5208 9.60904 -56.5935 0.156972 -62.7236C0.11374 -62.7515 0.0767121 -62.7873 0.0479858 -62.8289C0.0192596 -62.8705 -0.000601839 -62.9171 -0.0104488 -62.966C-0.0202958 -63.015 -0.0199369 -63.0652 -0.00940553 -63.114C0.00112584 -63.1628 0.0216258 -63.2092 0.0509322 -63.2504C0.0802387 -63.2916 0.117777 -63.3269 0.161397 -63.3543C0.205017 -63.3817 0.253868 -63.4007 0.30516 -63.4101C0.356453 -63.4195 0.409186 -63.4191 0.460342 -63.4091C0.511499 -63.399 0.560072 -63.3795 0.603304 -63.3515C10.0775 -57.2064 19.2637 -51.1246 27.5097 -44.2322C37.0061 -36.3073 44.0145 -28.307 48.9605 -19.7783C54.2373 -10.673 57.0593 -0.417427 57.5895 11.5725C58.0944 23.0145 62.1589 27.4781 66.475 30.5922C77.6174 38.6409 92.188 41.598 106.281 44.457C109.096 45.0276 111.759 45.568 114.403 46.1507C114.455 46.1563 114.505 46.1717 114.551 46.1959C114.597 46.22 114.637 46.2526 114.67 46.2916C114.702 46.3307 114.727 46.3754 114.741 46.4234C114.755 46.4713 114.76 46.5215 114.754 46.5711C114.748 46.6206 114.732 46.6686 114.706 46.7122C114.681 46.7558 114.647 46.7943 114.606 46.8253C114.565 46.8563 114.518 46.8794 114.468 46.8932C114.418 46.9069 114.365 46.9111 114.313 46.9054L114.316 46.9084Z" fill="white"/>
<path d="M114.314 57.3048C114.27 57.3044 114.226 57.2973 114.184 57.2837C108.39 55.3712 102.396 53.5749 96.5998 51.8374C90.4098 49.9808 84.0092 48.0637 77.8239 45.9957C71.4597 43.8703 65.0576 40.2354 59.7998 35.7628C56.0455 32.5702 53.4831 29.0304 52.1805 25.2446C50.9855 21.7727 51.1137 18.0835 51.2308 14.515C51.2514 13.955 51.2704 13.395 51.2847 12.8395C51.6186 -0.163361 48.9754 -10.5578 42.9674 -19.8956C32.1447 -36.7144 13.9401 -47.6855 -3.66618 -58.2973C-6.07193 -59.7464 -8.55998 -61.2468 -10.9547 -62.7186C-11.0432 -62.773 -11.1055 -62.8588 -11.1277 -62.957C-11.15 -63.0553 -11.1304 -63.1579 -11.0734 -63.2424C-11.0163 -63.3268 -10.9263 -63.3862 -10.8233 -63.4075C-10.7203 -63.4287 -10.6127 -63.41 -10.5242 -63.3556C-8.13264 -61.8853 -5.64617 -60.3864 -3.24359 -58.9373C14.4387 -48.2802 32.7224 -37.2609 43.648 -20.2941C49.7383 -10.831 52.429 -0.297699 52.0855 12.8576C52.0713 13.4161 52.0523 13.9776 52.0333 14.5407C51.9114 18.0427 51.7848 21.6625 52.9354 25.0076C54.1937 28.6651 56.6818 32.0932 60.33 35.1967C65.5118 39.6044 71.8174 43.1865 78.0866 45.2802C84.2593 47.3421 90.6551 49.2592 96.8388 51.1144C102.64 52.8533 108.638 54.6511 114.444 56.5667C114.533 56.5953 114.609 56.6536 114.658 56.7309C114.707 56.8083 114.725 56.8997 114.709 56.9886C114.694 57.0776 114.645 57.1584 114.573 57.2163C114.5 57.2743 114.408 57.3057 114.314 57.3048Z" fill="white"/>
<path d="M114.316 67.7218C114.257 67.7217 114.198 67.7088 114.145 67.6841C106.276 64.105 98.0504 60.917 90.0972 57.8331C85.588 56.0851 80.9268 54.2782 76.3828 52.42L75.6674 52.1272C67.9611 48.9798 59.9984 45.7269 53.9175 39.7779C49.4859 35.4321 46.8411 31.3942 45.8456 27.4332C44.896 23.6021 45.2489 19.454 45.5971 15.4433C45.6652 14.6598 45.7285 13.9217 45.7839 13.179L45.8519 12.2733C46.2175 7.39309 46.5974 2.34683 45.738 -2.47905C44.7155 -8.21515 41.9837 -14.3105 37.837 -20.1115C32.1027 -28.133 24.0466 -33.9567 15.598 -39.7033C7.60049 -45.1451 -0.862373 -50.1189 -9.03876 -54.9312C-13.3343 -57.4566 -17.7738 -60.0635 -22.1089 -62.7232C-22.1975 -62.7777 -22.2598 -62.8634 -22.282 -62.9617C-22.3043 -63.0599 -22.2847 -63.1625 -22.2277 -63.247C-22.1706 -63.3315 -22.0806 -63.3909 -21.9776 -63.4121C-21.8746 -63.4333 -21.767 -63.4147 -21.6784 -63.3602C-17.3513 -60.7095 -12.9133 -58.0996 -8.6225 -55.5757C-0.430286 -50.7589 8.04049 -45.7776 16.0681 -40.3207C24.5753 -34.5273 32.6931 -28.6583 38.5033 -20.5342C42.715 -14.6471 45.4911 -8.44308 46.5309 -2.60131C47.4062 2.31513 47.0247 7.40668 46.6544 12.3322L46.5863 13.2379C46.5309 13.9836 46.4644 14.7595 46.3996 15.5097C46.0561 19.4615 45.7016 23.5493 46.6291 27.2611C47.5787 31.0862 50.1554 35.0094 54.4905 39.2526C60.4558 45.0929 68.3489 48.3096 75.984 51.4358L76.6978 51.7271C81.237 53.5823 85.895 55.3892 90.3995 57.1357C98.3638 60.2226 106.6 63.4167 114.49 67.0048C114.572 67.0416 114.638 67.1039 114.678 67.1813C114.717 67.2588 114.728 67.3469 114.708 67.431C114.688 67.515 114.639 67.5901 114.568 67.6438C114.497 67.6975 114.41 67.7266 114.319 67.7263L114.316 67.7218Z" fill="white"/>
<path d="M114.315 78.1659C114.238 78.166 114.164 78.145 114.099 78.1055C104.783 72.389 94.6824 67.7292 84.9138 63.2218C82.3324 62.0309 79.6623 60.8066 77.0429 59.5643C76.0827 59.1115 75.1114 58.6586 74.1291 58.2058C65.2341 54.0516 56.0369 49.7526 48.9083 43.4504C44.4988 39.5499 41.767 34.9142 40.5562 29.2777C39.3818 23.8163 39.7648 17.9565 40.2856 12.9404C41.2843 3.42147 40.5879 -1.78329 39.9769 -4.87173C38.7503 -11.0728 36.1056 -16.2352 31.8908 -20.6551C24.4788 -28.426 15.022 -34.3779 5.17268 -40.2906C0.187073 -43.284 -4.97104 -46.1445 -9.95823 -48.9114C-17.7294 -53.221 -25.7665 -57.6771 -33.3067 -62.7233C-33.3931 -62.781 -33.4521 -62.869 -33.4705 -62.9681C-33.4889 -63.0672 -33.4652 -63.1692 -33.4048 -63.2517C-33.3444 -63.3341 -33.252 -63.3903 -33.1481 -63.4079C-33.0443 -63.4254 -32.9373 -63.4029 -32.8508 -63.3453C-25.3376 -58.3171 -17.3163 -53.8686 -9.55938 -49.5665C-4.56586 -46.7966 0.598591 -43.9331 5.59527 -40.9322C15.4953 -34.9908 24.9995 -29.0071 32.4795 -21.1577C36.7956 -16.6292 39.5037 -11.346 40.7588 -5.00608C42.0519 1.53308 41.5597 8.41338 41.0753 13.0189C40.5562 17.9761 40.1811 23.7665 41.3333 29.1283C42.5109 34.6047 45.1635 39.1091 49.448 42.8979C56.4895 49.1276 65.6346 53.398 74.4773 57.528C75.4586 57.9859 76.4309 58.4387 77.3943 58.8866C80.0105 60.1198 82.679 61.3501 85.2589 62.5411C95.048 67.0575 105.171 71.7279 114.528 77.47C114.6 77.5143 114.656 77.5797 114.685 77.6564C114.715 77.7331 114.718 77.817 114.694 77.8955C114.67 77.974 114.62 78.0429 114.551 78.0919C114.482 78.1409 114.399 78.1674 114.313 78.1674L114.315 78.1659Z" fill="white"/>
<path d="M114.315 88.2917C114.217 88.2921 114.122 88.2571 114.049 88.1936C103.909 79.4566 91.6488 73.3734 79.7941 67.4908C68.131 61.7034 56.0706 55.7167 45.9411 47.1865C39.5405 41.7931 35.8116 35.9755 34.5454 29.4001C33.466 23.8029 34.1228 18.0788 34.7575 12.5541L34.7939 12.2356C35.427 6.7606 36.0712 1.09998 35.0139 -4.38705C33.781 -10.7888 30.1375 -16.4631 23.8746 -21.7463C13.8338 -30.2131 1.81613 -36.1681 -9.80587 -41.9434C-21.7048 -47.8471 -34.0074 -53.953 -44.2239 -62.7564C-44.2659 -62.7888 -44.3004 -62.829 -44.3255 -62.8746C-44.3506 -62.9202 -44.3657 -62.9701 -44.3699 -63.0214C-44.3741 -63.0727 -44.3673 -63.1243 -44.3499 -63.173C-44.3324 -63.2217 -44.3048 -63.2666 -44.2686 -63.3048C-44.2325 -63.343 -44.1885 -63.3737 -44.1395 -63.3952C-44.0904 -63.4166 -44.0373 -63.4283 -43.9834 -63.4296C-43.9294 -63.4308 -43.8758 -63.4216 -43.8257 -63.4024C-43.7756 -63.3832 -43.7302 -63.3545 -43.6921 -63.318C-33.5516 -54.584 -21.2933 -48.4977 -9.43867 -42.6152C2.22606 -36.8277 14.288 -30.8411 24.4096 -22.3124C30.8102 -16.9174 34.5391 -11.0998 35.8053 -4.52442C36.8831 1.07281 36.2279 6.79684 35.5932 12.3186L35.5568 12.6371C34.9237 18.1121 34.2795 23.7742 35.3368 29.2642C36.5697 35.6645 40.2132 41.3402 46.4745 46.6235C56.5232 55.0918 68.5409 61.0558 80.1629 66.8221C92.0618 72.7273 104.368 78.8332 114.583 87.6366C114.642 87.688 114.684 87.7552 114.702 87.8296C114.721 87.904 114.715 87.982 114.687 88.0533C114.658 88.1247 114.607 88.1861 114.541 88.2295C114.475 88.2728 114.397 88.2961 114.317 88.2963L114.315 88.2917Z" fill="white"/>
<path d="M103.434 88.2918C103.353 88.2914 103.274 88.2677 103.206 88.2239C95.7897 83.2591 87.8713 78.8649 80.2141 74.6233C75.5339 72.0284 70.6955 69.34 66.0027 66.5489C55.1531 60.0883 45.5491 54.085 37.8776 46.0439C33.5599 41.5154 30.8519 36.2321 29.5967 29.8922C28.3052 23.3531 28.7975 16.4743 29.2802 11.8673C29.7993 6.90555 30.176 1.11209 29.0317 -4.24965C27.8573 -9.75178 25.2078 -14.2576 20.9091 -18.0118C13.9293 -24.1207 4.99795 -28.3322 -3.63901 -32.4049L-5.80102 -33.4268C-8.77655 -34.8367 -11.8154 -36.239 -14.7561 -37.5945C-24.5959 -42.1321 -34.7776 -46.8251 -44.1727 -52.5929C-44.2615 -52.6474 -44.324 -52.7332 -44.3464 -52.8316C-44.3688 -52.93 -44.3493 -53.0328 -44.2922 -53.1175C-44.2351 -53.2021 -44.1451 -53.2617 -44.042 -53.2831C-43.9388 -53.3045 -43.831 -53.2859 -43.7422 -53.2314C-34.382 -47.4893 -24.2287 -42.8098 -14.4095 -38.2813C-11.4688 -36.9228 -8.42677 -35.522 -5.44648 -34.1091L-3.28131 -33.0856C5.40471 -28.9889 14.3883 -24.7517 21.452 -18.5703C25.8694 -14.7044 28.606 -10.0688 29.8152 -4.40211C30.9816 1.05775 30.6065 6.91915 30.0747 11.9413C29.3055 19.2865 29.4005 24.772 30.3834 29.7534C31.61 35.9544 34.2547 41.1169 38.4711 45.5367C46.0682 53.5069 55.6311 59.4784 66.4285 65.915C71.1102 68.7045 75.9438 71.3839 80.6176 73.9757C88.2891 78.2295 96.2234 82.6281 103.669 87.611C103.738 87.6572 103.79 87.7234 103.818 87.8C103.845 87.8766 103.846 87.9595 103.82 88.0365C103.795 88.1136 103.744 88.1809 103.675 88.2284C103.607 88.276 103.524 88.3013 103.439 88.3008L103.434 88.2918Z" fill="white"/>
<path d="M92.2475 88.2913C92.1711 88.2914 92.0963 88.2704 92.0322 88.2309C87.7034 85.5802 83.2654 82.9703 78.9747 80.4464C70.7825 75.6296 62.3117 70.6482 54.2936 65.1914C45.7753 59.3964 37.6496 53.5214 31.8568 45.4094C27.68 39.557 24.9038 33.356 23.8308 27.478C22.9444 22.628 23.3259 17.5878 23.6946 12.7121L23.7754 11.6418C23.8292 10.8871 23.8972 10.1157 23.9637 9.36402C24.3056 5.41366 24.6601 1.33046 23.7342 -2.3814C22.7846 -6.16572 20.143 -10.2006 15.8712 -14.3729C9.88532 -20.2207 1.97325 -23.4525 -5.67926 -26.5787L-6.33767 -26.8474C-10.8738 -28.7026 -15.5302 -30.5079 -20.0346 -32.2544C-28.0005 -35.3429 -36.237 -38.5355 -44.1285 -42.125C-44.2238 -42.1683 -44.2972 -42.2459 -44.3325 -42.3407C-44.3678 -42.4355 -44.3622 -42.5399 -44.3169 -42.6307C-44.2715 -42.7216 -44.1902 -42.7916 -44.0908 -42.8253C-43.9913 -42.859 -43.8819 -42.8536 -43.7867 -42.8104C-35.9157 -39.2298 -27.6903 -36.0403 -19.7292 -32.9563C-15.2231 -31.2083 -10.5636 -29.4015 -6.01954 -27.5448L-5.36113 -27.2746C2.3626 -24.1197 10.3491 -20.8577 16.4457 -14.8967C20.8188 -10.6248 23.5332 -6.47064 24.5177 -2.55198C25.4673 1.27913 25.1144 5.42422 24.7662 9.43195C24.6981 10.2169 24.6332 10.9581 24.5794 11.6962L24.4987 12.7679C24.1331 17.5983 23.7548 22.5918 24.6253 27.3497C25.6794 33.122 28.4112 39.2204 32.5263 44.9852C38.2431 52.9856 46.3071 58.8213 54.7636 64.5755C62.7612 70.0097 71.224 74.9911 79.4004 79.8018C83.696 82.3288 88.1371 84.9342 92.4722 87.5954C92.5443 87.6397 92.5995 87.7051 92.6294 87.7818C92.6593 87.8585 92.6624 87.9424 92.6381 88.0209C92.6139 88.0994 92.5637 88.1683 92.495 88.2173C92.4263 88.2663 92.3428 88.2928 92.257 88.2928L92.2475 88.2913Z" fill="white"/>
<path d="M81.0973 88.2912C81.021 88.2913 80.9462 88.2704 80.8821 88.2309C78.4874 86.7591 75.9977 85.2587 73.5904 83.808C55.9113 73.154 37.6308 62.1361 26.7052 45.1648C20.6196 35.7063 17.9289 25.173 18.2724 12.0177C18.2866 11.4229 18.3088 10.8237 18.3309 10.2229C18.4512 6.90199 18.5779 3.45881 17.5649 0.284328C16.3462 -3.5181 13.8138 -7.08656 10.0279 -10.3214C4.8809 -14.7171 -1.4247 -18.2976 -7.72871 -20.4049C-13.9014 -22.4669 -20.2956 -24.3839 -26.4777 -26.2376C-32.28 -27.978 -38.2802 -29.7759 -44.0856 -31.6914C-44.1853 -31.7242 -44.2673 -31.7935 -44.3134 -31.8839C-44.3596 -31.9744 -44.3662 -32.0786 -44.3317 -32.1737C-44.2973 -32.2688 -44.2247 -32.3469 -44.1299 -32.391C-44.035 -32.435 -43.9258 -32.4413 -43.8261 -32.4084C-38.0301 -30.4959 -32.0363 -28.6996 -26.2403 -26.9606C-20.0503 -25.1055 -13.6497 -23.1869 -7.46598 -21.1204C-1.06542 -18.9814 5.33514 -15.3465 10.5582 -10.886C14.4564 -7.56507 17.0695 -3.87283 18.3262 0.0639496C19.3771 3.35919 19.2489 6.8567 19.1176 10.2485C19.0954 10.8523 19.0732 11.4441 19.059 12.0358C18.725 25.0386 21.3682 35.4331 27.3747 44.7708C38.2037 61.5897 56.4051 72.5592 74.0083 83.1665C76.4172 84.6186 78.9068 86.1206 81.3046 87.5938C81.3768 87.6382 81.4319 87.7036 81.4618 87.7803C81.4917 87.857 81.4948 87.9409 81.4706 88.0194C81.4463 88.0979 81.3961 88.1668 81.3274 88.2158C81.2587 88.2648 81.1752 88.2913 81.0894 88.2912H81.0973Z" fill="white"/>
<path d="M69.9814 88.2916C69.9019 88.2917 69.8242 88.2691 69.7583 88.2267C60.4202 82.169 51.3606 76.1718 43.2111 69.4122C33.835 61.6353 26.852 53.798 21.8633 45.4535C16.2889 36.1278 13.3165 25.6096 12.7689 13.3011C12.5758 8.92354 11.9854 5.72491 10.8538 2.92479C9.5227 -0.371958 7.39235 -3.08755 4.34243 -5.37746C-6.73669 -13.6918 -21.5257 -16.6806 -35.8336 -19.5668C-38.6825 -20.1434 -41.3732 -20.6868 -44.0448 -21.274C-44.1422 -21.3016 -44.2249 -21.3636 -44.276 -21.4474C-44.3271 -21.5312 -44.3427 -21.6304 -44.3197 -21.7248C-44.2967 -21.8192 -44.2367 -21.9017 -44.1521 -21.9554C-44.0675 -22.0091 -43.9646 -22.0299 -43.8644 -22.0137C-41.207 -21.428 -38.5179 -20.8846 -35.669 -20.3079C-21.9436 -17.535 -6.38849 -14.3907 4.83307 -5.96767C11.9965 -0.590832 13.2627 6.45853 13.5634 13.2754C14.1031 25.4647 17.0454 35.8712 22.5549 45.0882C27.4978 53.3587 34.4254 61.1311 43.7319 68.8507C51.8497 75.5831 60.8855 81.5652 70.2046 87.6093C70.2478 87.6373 70.2847 87.6732 70.3133 87.7148C70.3419 87.7565 70.3616 87.8031 70.3713 87.852C70.381 87.901 70.3805 87.9512 70.3699 88C70.3592 88.0487 70.3385 88.095 70.3091 88.1361C70.2718 88.1854 70.2225 88.2254 70.1654 88.2525C70.1083 88.2796 70.0452 88.293 69.9814 88.2916Z" fill="white"/>
<path d="M58.9213 88.2916C58.8352 88.2918 58.7513 88.2653 58.6823 88.2161C48.9311 81.2618 41.4543 75.1891 35.1551 69.1089C27.1844 61.4104 21.1226 53.7255 16.6181 45.5954C11.9158 37.1044 8.9466 27.6323 7.27999 15.7782C6.76085 12.1011 5.96632 9.28735 4.78086 6.94007C3.41123 4.18138 1.2767 1.83242 -1.39179 0.147323C-11.9961 -6.67562 -26.7503 -8.61684 -39.7667 -10.3286C-41.237 -10.5218 -42.6251 -10.7045 -44.0068 -10.8947C-44.1118 -10.9091 -44.2064 -10.9627 -44.2699 -11.0436C-44.3334 -11.1246 -44.3606 -11.2263 -44.3455 -11.3264C-44.3304 -11.4265 -44.2742 -11.5167 -44.1893 -11.5773C-44.1045 -11.6379 -43.9978 -11.6638 -43.8929 -11.6494C-42.5143 -11.4607 -41.1263 -11.2781 -39.6575 -11.0849C-26.5556 -9.36102 -11.7049 -7.40773 -0.948631 -0.486669C5.5738 3.70974 7.26574 10.0345 8.06186 15.665C9.72056 27.4255 12.6644 36.8191 17.3208 45.2285C21.7873 53.2938 27.8064 60.9274 35.7201 68.5639C41.9861 74.6291 49.4329 80.6777 59.1524 87.6108C59.2192 87.6584 59.2685 87.7249 59.2935 87.8008C59.3185 87.8766 59.3178 87.9581 59.2915 88.0335C59.2653 88.109 59.2148 88.1747 59.1472 88.2213C59.0796 88.2679 58.9984 88.293 58.915 88.2931L58.9213 88.2916Z" fill="white"/>
<path d="M47.9679 88.2913C47.8733 88.2913 47.7819 88.2592 47.7099 88.2007C30.6528 74.2363 19.2049 61.2637 11.6806 47.3762C7.56551 39.7729 4.50451 31.3106 1.76797 19.9396C-0.302242 11.3354 -3.17806 8.39188 -7.44668 6.20311C-16.6803 1.46932 -28.7866 0.617957 -39.4685 -0.136794C-41.037 -0.246987 -42.52 -0.351143 -43.9919 -0.467375C-44.0945 -0.47864 -44.1884 -0.527543 -44.2538 -0.603722C-44.3193 -0.6799 -44.351 -0.777369 -44.3424 -0.875485C-44.3337 -0.973602 -44.2854 -1.06466 -44.2075 -1.12937C-44.1297 -1.19407 -44.0286 -1.22733 -43.9255 -1.22212C-42.4583 -1.10589 -40.9768 -1.00174 -39.4099 -0.891544C-28.6474 -0.136794 -16.4603 0.726643 -7.06999 5.53591C-0.55389 8.87644 1.19502 14.1748 2.54193 19.7705C5.26423 31.0767 8.2999 39.4831 12.3865 47.0276C19.8602 60.8259 31.2479 73.7261 48.2259 87.6241C48.2878 87.6744 48.3321 87.7417 48.3526 87.8169C48.3731 87.892 48.3689 87.9714 48.3406 88.0442C48.3123 88.117 48.2612 88.1797 48.1942 88.2239C48.1273 88.2681 48.0477 88.2916 47.9663 88.2913H47.9679Z" fill="white"/>
<path d="M37.0386 88.292C36.9866 88.2922 36.9351 88.2826 36.887 88.2636C36.8389 88.2447 36.7952 88.2169 36.7585 88.1818C23.0821 75.2152 13.0175 62.4464 5.98702 49.1416C1.92099 41.4432 -1.07829 33.1409 -3.72303 25.8123L-3.92879 25.2447C-5.71885 20.2634 -7.4108 15.5688 -12.7209 13.3634C-20.7611 10.0229 -30.8463 10.0003 -39.7428 9.97764C-41.2068 9.97764 -42.5917 9.97009 -43.9624 9.95348C-44.0612 9.94504 -44.1532 9.90163 -44.2201 9.83179C-44.2871 9.76195 -44.3242 9.67074 -44.3242 9.57611C-44.3242 9.48147 -44.2871 9.39026 -44.2201 9.32042C-44.1532 9.25058 -44.0612 9.20717 -43.9624 9.19873C-42.5933 9.21533 -41.2116 9.21836 -39.7507 9.22289C-30.7751 9.24553 -20.5997 9.26968 -12.4122 12.6706C-6.76346 15.0043 -5.02245 19.8603 -3.1754 24.9987L-2.9649 25.5708C-0.328075 32.8768 2.66171 41.1579 6.70242 48.8065C13.6933 62.0373 23.7104 74.7428 37.3251 87.6505C37.3809 87.7034 37.419 87.7709 37.4345 87.8445C37.45 87.918 37.4422 87.9943 37.4122 88.0637C37.3822 88.1331 37.3313 88.1924 37.2659 88.2341C37.2005 88.2758 37.1236 88.2981 37.0449 88.2981L37.0386 88.292Z" fill="white"/>
<path d="M26.1174 88.2914C26.0605 88.2915 26.0042 88.2799 25.9523 88.2576C25.9005 88.2352 25.8542 88.2024 25.8167 88.1616C15.8938 77.2325 7.30761 65.2615 0.223965 52.48C-2.10582 48.2896 -4.14754 43.9076 -6.12121 39.6689C-7.11991 37.5239 -8.15343 35.3064 -9.2107 33.1403C-11.0356 29.3877 -13.8117 23.7195 -18.4649 21.3435C-20.6902 20.2054 -23.6658 20.0907 -26.2931 19.985L-27.1699 19.9503C-32.7823 19.7027 -38.7049 20.0575 -43.9311 20.3714C-43.9863 20.3806 -44.0429 20.3786 -44.0972 20.3655C-44.1515 20.3524 -44.2023 20.3286 -44.2464 20.2955C-44.2904 20.2625 -44.3266 20.2209 -44.3527 20.1736C-44.3787 20.1263 -44.394 20.0743 -44.3976 20.021C-44.4012 19.9677 -44.393 19.9142 -44.3734 19.8641C-44.3539 19.814 -44.3235 19.7684 -44.2843 19.7303C-44.2451 19.6921 -44.1978 19.6623 -44.1457 19.6427C-44.0936 19.6232 -44.0377 19.6143 -43.9817 19.6167C-38.735 19.3027 -32.7886 18.9465 -27.1335 19.1955L-26.2599 19.2302C-23.5487 19.3344 -20.475 19.4537 -18.0882 20.6733C-13.2023 23.17 -10.3661 28.9756 -8.49055 32.8203C-7.42854 34.9925 -6.39502 37.2129 -5.39473 39.3609C-3.42581 43.5875 -1.39042 47.9575 0.926697 52.1253C7.97935 64.8551 16.5284 76.7779 26.4087 87.6635C26.4588 87.7183 26.4913 87.7857 26.5024 87.8576C26.5134 87.9296 26.5025 88.003 26.471 88.0692C26.4394 88.1354 26.3886 88.1916 26.3245 88.231C26.2604 88.2704 26.1858 88.2914 26.1095 88.2914H26.1174Z" fill="white"/>
<path d="M15.1939 88.2921C15.1324 88.2923 15.0717 88.2788 15.0168 88.2526C14.9618 88.2263 14.914 88.1882 14.8773 88.1411C7.50814 78.8471 0.601112 68.6293 -5.65067 57.7745C-6.91686 55.5767 -8.14347 53.3094 -9.32735 51.1176C-11.0304 47.9703 -12.7904 44.7143 -14.6976 41.6078C-16.8343 38.1359 -19.5645 34.2761 -23.6068 32.0179C-29.3647 28.8042 -35.9521 29.7084 -42.332 30.5824C-42.8559 30.6548 -43.3798 30.7333 -43.9005 30.7967C-44.0055 30.8107 -44.112 30.7844 -44.1965 30.7235C-44.2811 30.6627 -44.3369 30.5722 -44.3516 30.4722C-44.3663 30.3721 -44.3387 30.2705 -44.2749 30.1898C-44.2111 30.1092 -44.1163 30.056 -44.0113 30.042L-42.4444 29.8291C-35.9346 28.937 -29.2033 28.0177 -23.2047 31.3613C-19.0042 33.707 -16.1996 37.6619 -14.0107 41.2213C-12.094 44.3399 -10.3292 47.6035 -8.62146 50.7614C-7.43916 52.9486 -6.21571 55.2114 -4.95427 57.4032C1.28011 68.2263 8.16498 78.4124 15.5104 87.6792C15.5545 87.7353 15.5814 87.802 15.588 87.8718C15.5946 87.9416 15.5807 88.0117 15.5478 88.0744C15.5149 88.1371 15.4644 88.1898 15.4019 88.2267C15.3394 88.2635 15.2674 88.283 15.1939 88.283V88.2921Z" fill="white"/>
<path d="M4.28233 88.2912C4.21776 88.2914 4.15411 88.2766 4.09698 88.2479C4.03986 88.2192 3.991 88.1776 3.9547 88.1267C-0.184139 82.3573 -3.96845 76.1533 -7.62772 70.153C-11.5751 63.6818 -15.6553 56.9902 -20.1835 50.845C-26.0729 42.8446 -33.3882 39.9057 -43.9023 41.2914C-43.9543 41.2981 -44.0071 41.295 -44.0578 41.2823C-44.1086 41.2695 -44.1561 41.2474 -44.1979 41.2171C-44.2822 41.156 -44.3376 41.0654 -44.3518 40.9653C-44.3661 40.8652 -44.3381 40.7638 -44.274 40.6834C-44.2099 40.603 -44.1149 40.5502 -44.01 40.5366C-33.1651 39.1071 -25.6155 42.1518 -19.533 50.4057C-14.9858 56.5766 -10.8961 63.2833 -6.94082 69.7696C-3.28788 75.7563 0.488518 81.9483 4.61311 87.6949C4.65405 87.7518 4.67791 87.8183 4.68213 87.8872C4.68634 87.9561 4.67074 88.0248 4.63702 88.0859C4.6033 88.1469 4.55274 88.198 4.49078 88.2337C4.42883 88.2693 4.35785 88.2882 4.28548 88.2882L4.28233 88.2912Z" fill="white"/>
</g>
</g>
<g opacity="0.06">
<mask id="mask2_2924_30903" style="mask-type:alpha" maskUnits="userSpaceOnUse" x="293" y="-69" width="160" height="152">
<ellipse cx="372.722" cy="7.09892" rx="79.5442" ry="75.8638" fill="#1476FF"/>
</mask>
<g mask="url(#mask2_2924_30903)">
<path d="M439.094 0.435822C437.744 0.435822 436.403 0.411667 435.068 0.352798L434.252 0.319595C431.51 0.210915 428.396 0.0886383 426.022 -1.125C421.138 -3.62171 418.302 -9.42726 416.425 -13.2735C415.364 -15.4441 414.331 -17.6631 413.332 -19.8096C411.361 -24.0362 409.326 -28.4137 407.001 -32.5785C399.948 -45.3085 391.397 -57.2313 381.516 -68.1166C381.453 -68.1934 381.424 -68.2903 381.434 -68.3872C381.443 -68.4842 381.492 -68.5738 381.569 -68.6377C381.646 -68.7015 381.746 -68.7347 381.848 -68.7305C381.95 -68.7262 382.046 -68.6848 382.117 -68.6148C392.04 -57.6857 400.626 -45.7154 407.71 -32.9347C410.041 -28.7428 412.083 -24.3577 414.058 -20.1175C415.056 -17.974 416.089 -15.7581 417.145 -13.5935C418.978 -9.84086 421.747 -4.17117 426.399 -1.79371C428.615 -0.661583 431.622 -0.542328 434.284 -0.435158L435.104 -0.401947C440.718 -0.154396 446.641 -0.509125 451.865 -0.823097C451.963 -0.818893 452.056 -0.780266 452.127 -0.714622C452.197 -0.648972 452.239 -0.560928 452.245 -0.467384C452.252 -0.373833 452.221 -0.281364 452.161 -0.207726C452.1 -0.134087 452.013 -0.0844498 451.916 -0.0683441C447.904 0.165627 443.481 0.435822 439.094 0.435822Z" fill="white"/>
<path d="M451.892 10.3532C450.591 10.3366 449.286 10.3321 447.904 10.3261C439.064 10.2914 429.047 10.2521 420.828 7.07912C414.793 4.74846 412.97 -0.308365 411.04 -5.66256L410.912 -6.0188C408.242 -13.4154 405.48 -21.0655 401.718 -28.3368C394.692 -41.9132 384.519 -54.9191 370.619 -68.097C370.544 -68.1679 370.502 -68.2641 370.502 -68.3646C370.502 -68.4651 370.543 -68.5616 370.618 -68.6329C370.692 -68.7042 370.793 -68.7443 370.898 -68.7446C371.004 -68.7449 371.105 -68.7053 371.179 -68.6344C385.139 -55.3976 395.36 -42.3253 402.426 -28.6658C406.21 -21.3523 408.98 -13.6795 411.659 -6.25882L411.788 -5.90409C413.737 -0.492531 415.428 4.18089 421.126 6.38174C429.198 9.50037 439.139 9.53962 447.905 9.57434C449.289 9.57434 450.596 9.58491 451.9 9.60151C451.999 9.60995 452.091 9.65336 452.158 9.7232C452.225 9.79304 452.262 9.88425 452.262 9.97889C452.262 10.0735 452.225 10.1647 452.158 10.2346C452.091 10.3044 451.999 10.3478 451.9 10.3563L451.892 10.3532Z" fill="white"/>
<path d="M451.89 20.7705H451.857C450.466 20.6618 449.068 20.5607 447.584 20.455C436.967 19.7002 424.932 18.8323 415.47 14.254C409.221 11.235 407.04 6.65665 405.383 -0.222145C402.737 -11.2158 399.844 -19.3505 396.002 -26.5992C388.499 -40.7628 376.962 -53.9422 359.698 -68.0757C359.618 -68.1411 359.568 -68.2343 359.56 -68.3347C359.552 -68.435 359.586 -68.5343 359.654 -68.6108C359.723 -68.6873 359.821 -68.7346 359.926 -68.7424C360.031 -68.7502 360.135 -68.7178 360.215 -68.6523C377.568 -54.4509 389.165 -41.1945 396.719 -26.9418C400.589 -19.6373 403.503 -11.4483 406.165 -0.394226C407.768 6.26569 409.866 10.687 415.837 13.5762C425.156 18.0851 437.106 18.9425 447.65 19.6972C449.132 19.8029 450.529 19.904 451.923 20.0142C452.023 20.0257 452.114 20.0724 452.178 20.1451C452.243 20.2178 452.277 20.311 452.273 20.4062C452.268 20.5015 452.227 20.5917 452.156 20.6589C452.085 20.7262 451.99 20.7655 451.89 20.769V20.7705Z" fill="white"/>
<path d="M451.892 31.1904H451.835C450.53 31.0122 449.196 30.8356 447.841 30.656C434.896 28.9427 420.222 27.0015 409.363 20.3159C402.453 16.0621 400.691 9.61809 399.881 3.87444C398.265 -7.57814 395.47 -16.7061 391.084 -24.8544C386.652 -33.0963 380.59 -40.8913 372.566 -48.6864C366.226 -54.8572 358.67 -61.013 348.784 -68.0638C348.737 -68.0915 348.697 -68.1282 348.665 -68.1716C348.634 -68.215 348.613 -68.264 348.603 -68.3157C348.592 -68.3674 348.594 -68.4206 348.606 -68.4718C348.619 -68.5231 348.642 -68.5713 348.675 -68.6133C348.708 -68.6554 348.75 -68.6905 348.798 -68.7163C348.846 -68.742 348.9 -68.758 348.954 -68.7631C349.009 -68.7682 349.065 -68.7624 349.117 -68.7459C349.169 -68.7295 349.218 -68.7028 349.259 -68.6676C359.175 -61.5941 366.762 -55.4142 373.137 -49.2207C381.209 -41.3713 387.315 -33.5144 391.79 -25.2031C396.222 -16.9763 399.039 -7.76985 400.667 3.77029C401.199 7.54404 402.036 10.4121 403.301 12.8273C404.789 15.6621 406.911 17.9022 409.79 19.6744C420.502 26.2694 435.082 28.1985 447.947 29.8997C449.303 30.0794 450.637 30.256 451.946 30.4356C452.047 30.4477 452.139 30.4962 452.204 30.5713C452.268 30.6462 452.3 30.742 452.293 30.8388C452.286 30.9355 452.24 31.0259 452.165 31.0913C452.09 31.1568 451.991 31.1922 451.889 31.1904H451.892Z" fill="white"/>
<path d="M451.892 41.5799C451.862 41.5801 451.832 41.5765 451.802 41.5694C449.165 40.9897 446.508 40.4493 443.694 39.8787C429.517 36.9971 414.856 34.0279 403.575 25.8766C396.008 20.4107 394.681 13.2285 394.374 6.28027C393.85 -5.58893 391.06 -15.7343 385.843 -24.7354C380.937 -33.1886 373.984 -41.1256 364.565 -48.9901C356.351 -55.8493 347.185 -61.922 337.733 -68.0521C337.69 -68.08 337.653 -68.1158 337.624 -68.1574C337.595 -68.199 337.576 -68.2456 337.566 -68.2945C337.556 -68.3434 337.556 -68.3937 337.567 -68.4425C337.577 -68.4913 337.598 -68.5377 337.627 -68.5789C337.656 -68.6201 337.694 -68.6554 337.738 -68.6828C337.781 -68.7102 337.83 -68.7292 337.881 -68.7386C337.933 -68.748 337.985 -68.7476 338.037 -68.7376C338.088 -68.7275 338.136 -68.708 338.179 -68.68C347.654 -62.5348 356.84 -56.4531 365.086 -49.5607C374.582 -41.6358 381.591 -33.6354 386.537 -25.1068C391.813 -16.0015 394.635 -5.74592 395.166 6.24405C395.671 17.6861 399.735 22.1497 404.051 25.2638C415.194 33.3124 429.764 36.2695 443.857 39.1285C446.673 39.6991 449.335 40.2395 451.979 40.8222C452.031 40.8278 452.082 40.8432 452.127 40.8674C452.173 40.8915 452.213 40.9241 452.246 40.9631C452.279 41.0022 452.303 41.0469 452.317 41.0949C452.332 41.1428 452.336 41.193 452.33 41.2426C452.324 41.2921 452.308 41.3401 452.283 41.3837C452.257 41.4273 452.223 41.4658 452.182 41.4968C452.141 41.5279 452.094 41.5509 452.044 41.5647C451.994 41.5784 451.941 41.5826 451.889 41.5769L451.892 41.5799Z" fill="white"/>
<path d="M451.89 51.9761C451.846 51.9757 451.802 51.9686 451.76 51.955C445.966 50.0424 439.972 48.2461 434.176 46.5087C427.986 44.652 421.585 42.7349 415.4 40.6669C409.036 38.5415 402.634 34.9067 397.376 30.434C393.622 27.2414 391.059 23.7017 389.757 19.9158C388.562 16.444 388.69 12.7548 388.807 9.18629C388.828 8.62627 388.847 8.06624 388.861 7.51074C389.195 -5.4921 386.552 -15.8865 380.544 -25.2243C369.721 -42.0431 351.516 -53.0142 333.91 -63.626C331.504 -65.0751 329.016 -66.5755 326.622 -68.0473C326.533 -68.1018 326.471 -68.1875 326.448 -68.2858C326.426 -68.384 326.446 -68.4866 326.503 -68.5711C326.56 -68.6556 326.65 -68.715 326.753 -68.7362C326.856 -68.7574 326.963 -68.7388 327.052 -68.6843C329.444 -67.2141 331.93 -65.7151 334.333 -64.266C352.015 -53.6089 370.299 -42.5896 381.224 -25.6228C387.315 -16.1597 390.005 -5.62643 389.662 7.52886C389.647 8.08738 389.628 8.64891 389.609 9.21195C389.488 12.714 389.361 16.3338 390.512 19.6788C391.77 23.3364 394.258 26.7644 397.906 29.868C403.088 34.2757 409.394 37.8577 415.663 39.9514C421.835 42.0134 428.231 43.9305 434.415 45.7856C440.216 47.5246 446.214 49.3224 452.02 51.238C452.109 51.2666 452.185 51.3248 452.234 51.4022C452.283 51.4795 452.301 51.5709 452.285 51.6599C452.27 51.7489 452.221 51.8296 452.149 51.8876C452.076 51.9455 451.985 51.9769 451.89 51.9761Z" fill="white"/>
<path d="M451.892 62.3934C451.833 62.3934 451.775 62.3805 451.721 62.3557C443.852 58.7767 435.627 55.5886 427.673 52.5047C423.164 50.7567 418.503 48.9498 413.959 47.0916L413.244 46.7988C405.537 43.6515 397.575 40.3985 391.494 34.4496C387.062 30.1037 384.417 26.0658 383.422 22.1049C382.472 18.2738 382.825 14.1256 383.173 10.1149C383.241 9.33146 383.305 8.59331 383.36 7.85063L383.428 6.94493C383.794 2.06472 384.174 -2.98154 383.314 -7.80742C382.292 -13.5435 379.56 -19.6389 375.413 -25.4399C369.679 -33.4614 361.623 -39.285 353.174 -45.0317C345.177 -50.4734 336.714 -55.4473 328.537 -60.2595C324.242 -62.7849 319.802 -65.3918 315.467 -68.0516C315.379 -68.106 315.316 -68.1918 315.294 -68.29C315.272 -68.3883 315.291 -68.4909 315.349 -68.5754C315.406 -68.6599 315.496 -68.7192 315.599 -68.7405C315.702 -68.7617 315.809 -68.743 315.898 -68.6886C320.225 -66.0379 324.663 -63.428 328.954 -60.9041C337.146 -56.0873 345.617 -51.1059 353.644 -45.6491C362.151 -39.8556 370.269 -33.9867 376.079 -25.8625C380.291 -19.9755 383.067 -13.7715 384.107 -7.92968C384.982 -3.01324 384.601 2.07831 384.231 7.00381L384.162 7.90951C384.107 8.6552 384.041 9.43108 383.976 10.1813C383.632 14.1332 383.278 18.2209 384.205 21.9328C385.155 25.7579 387.732 29.681 392.067 33.9243C398.032 39.7645 405.925 42.9813 413.56 46.1074L414.274 46.3988C418.813 48.2539 423.471 50.0608 427.976 51.8073C435.94 54.8942 444.176 58.0883 452.066 61.6764C452.148 61.7132 452.214 61.7755 452.254 61.853C452.294 61.9305 452.304 62.0185 452.284 62.1026C452.264 62.1867 452.215 62.2618 452.144 62.3155C452.074 62.3692 451.986 62.3983 451.895 62.398L451.892 62.3934Z" fill="white"/>
<path d="M451.891 72.8371C451.814 72.8372 451.74 72.8162 451.676 72.7767C442.36 67.0602 432.259 62.4004 422.49 57.893C419.909 56.702 417.238 55.4778 414.619 54.2355C413.659 53.7826 412.688 53.3298 411.705 52.8769C402.81 48.7228 393.613 44.4237 386.484 38.1215C382.075 34.221 379.343 29.5853 378.132 23.9488C376.958 18.4875 377.341 12.6276 377.862 7.61152C378.86 -1.90739 378.164 -7.11215 377.553 -10.2006C376.326 -16.4016 373.682 -21.5641 369.467 -25.9839C362.055 -33.7548 352.598 -39.7068 342.749 -45.6195C337.763 -48.6128 332.605 -51.4734 327.618 -54.2403C319.847 -58.5499 311.81 -63.0059 304.269 -68.0522C304.183 -68.1098 304.124 -68.1979 304.106 -68.297C304.087 -68.3961 304.111 -68.498 304.171 -68.5805C304.232 -68.663 304.324 -68.7192 304.428 -68.7367C304.532 -68.7543 304.639 -68.7318 304.725 -68.6741C312.239 -63.646 320.26 -59.1975 328.017 -54.8954C333.01 -52.1255 338.175 -49.2619 343.171 -46.261C353.071 -40.3197 362.576 -34.336 370.056 -26.4866C374.372 -21.9581 377.08 -16.6748 378.335 -10.3349C379.628 -3.79578 379.136 3.08453 378.652 7.69001C378.132 12.6472 377.757 18.4377 378.91 23.7994C380.087 29.2759 382.74 33.7802 387.024 37.5691C394.066 43.7988 403.211 48.0691 412.053 52.1991C413.035 52.657 414.007 53.1099 414.97 53.5577C417.587 54.791 420.255 56.0212 422.835 57.2122C432.624 61.7286 442.747 66.399 452.104 72.1412C452.177 72.1855 452.232 72.2509 452.262 72.3276C452.292 72.4043 452.295 72.4882 452.27 72.5667C452.246 72.6452 452.196 72.7141 452.127 72.7631C452.059 72.8121 451.975 72.8386 451.889 72.8385L451.891 72.8371Z" fill="white"/>
<path d="M451.891 82.9628C451.793 82.9632 451.698 82.9281 451.625 82.8647C441.485 74.1277 429.225 68.0444 417.37 62.1618C405.707 56.3744 393.647 50.3877 383.517 41.8576C377.117 36.4641 373.388 30.6465 372.122 24.0711C371.042 18.4739 371.699 12.7499 372.334 7.2251L372.37 6.90659C373.003 1.43163 373.647 -4.229 372.59 -9.71603C371.357 -16.1178 367.714 -21.792 361.451 -27.0753C351.41 -35.5421 339.392 -41.4971 327.77 -47.2724C315.871 -53.1761 303.569 -59.282 293.352 -68.0854C293.31 -68.1178 293.276 -68.158 293.251 -68.2036C293.226 -68.2491 293.21 -68.2991 293.206 -68.3504C293.202 -68.4017 293.209 -68.4533 293.226 -68.502C293.244 -68.5507 293.271 -68.5956 293.308 -68.6337C293.344 -68.6719 293.388 -68.7027 293.437 -68.7242C293.486 -68.7456 293.539 -68.7573 293.593 -68.7586C293.647 -68.7598 293.7 -68.7505 293.75 -68.7313C293.801 -68.7122 293.846 -68.6834 293.884 -68.6469C304.025 -59.913 316.283 -53.8267 328.138 -47.9441C339.802 -42.1567 351.864 -36.17 361.986 -27.6414C368.386 -22.2464 372.115 -16.4288 373.381 -9.8534C374.459 -4.25616 373.804 1.46786 373.169 6.98962L373.133 7.30811C372.5 12.7831 371.856 18.4452 372.913 23.9353C374.146 30.3355 377.789 36.0113 384.051 41.2945C394.099 49.7628 406.117 55.7269 417.739 61.4931C429.638 67.3983 441.944 73.5042 452.159 82.3076C452.218 82.359 452.26 82.4263 452.278 82.5006C452.297 82.575 452.292 82.653 452.263 82.7244C452.234 82.7957 452.183 82.8571 452.117 82.9005C452.051 82.9438 451.973 82.9671 451.893 82.9673L451.891 82.9628Z" fill="white"/>
<path d="M441.01 82.9631C440.929 82.9627 440.85 82.939 440.783 82.8951C433.366 77.9304 425.447 73.5362 417.79 69.2945C413.11 66.6997 408.272 64.0113 403.579 61.2202C392.729 54.7595 383.125 48.7563 375.454 40.7151C371.136 36.1866 368.428 30.9034 367.173 24.5635C365.881 18.0243 366.374 11.1455 366.856 6.53854C367.376 1.57682 367.752 -4.21664 366.608 -9.57838C365.433 -15.0805 362.784 -19.5864 358.485 -23.3405C351.505 -29.4494 342.574 -33.661 333.937 -37.7336L331.775 -38.7555C328.8 -40.1654 325.761 -41.5677 322.82 -42.9233C312.98 -47.4608 302.799 -52.1539 293.403 -57.9217C293.315 -57.9761 293.252 -58.062 293.23 -58.1603C293.207 -58.2587 293.227 -58.3615 293.284 -58.4462C293.341 -58.5309 293.431 -58.5905 293.534 -58.6118C293.637 -58.6332 293.745 -58.6146 293.834 -58.5602C303.194 -52.818 313.347 -48.1386 323.167 -43.6101C326.107 -42.2515 329.149 -40.8507 332.13 -39.4378L334.295 -38.4144C342.981 -34.3176 351.964 -30.0804 359.028 -23.899C363.446 -20.0332 366.182 -15.3975 367.391 -9.73085C368.558 -4.27098 368.183 1.59041 367.651 6.61252C366.882 13.9577 366.977 19.4433 367.96 24.4246C369.186 30.6256 371.831 35.7881 376.047 40.208C383.644 48.1781 393.207 54.1497 404.005 60.5862C408.686 63.3758 413.52 66.0551 418.194 68.647C425.865 72.9007 433.8 77.2994 441.245 82.2823C441.314 82.3285 441.367 82.3947 441.394 82.4713C441.421 82.5478 441.422 82.6307 441.396 82.7078C441.371 82.7849 441.32 82.8521 441.251 82.8997C441.183 82.9473 441.1 82.9726 441.015 82.9721L441.01 82.9631Z" fill="white"/>
<path d="M429.824 82.9632C429.747 82.9633 429.673 82.9423 429.608 82.9028C425.28 80.2521 420.842 77.6422 416.551 75.1183C408.359 70.3015 399.888 65.3201 391.87 59.8633C383.351 54.0683 375.226 48.1933 369.433 40.0813C365.256 34.2289 362.48 28.0279 361.407 22.1499C360.521 17.2999 360.902 12.2597 361.271 7.38396L361.352 6.31372C361.405 5.55898 361.473 4.78762 361.54 4.0359C361.882 0.0855331 362.236 -3.99767 361.31 -7.70953C360.361 -11.4938 357.719 -15.5287 353.447 -19.701C347.461 -25.5488 339.549 -28.7807 331.897 -31.9068L331.238 -32.1755C326.702 -34.0307 322.046 -35.8361 317.542 -37.5826C309.576 -40.671 301.339 -43.8636 293.448 -47.4532C293.352 -47.4964 293.279 -47.574 293.244 -47.6688C293.208 -47.7636 293.214 -47.868 293.259 -47.9589C293.305 -48.0497 293.386 -48.1197 293.485 -48.1534C293.585 -48.1871 293.694 -48.1817 293.79 -48.1385C301.66 -44.558 309.886 -41.3684 317.847 -38.2845C322.353 -36.5365 327.013 -34.7296 331.557 -32.8729L332.215 -32.6027C339.939 -29.4478 347.925 -26.1858 354.022 -20.2248C358.395 -15.9529 361.109 -11.7988 362.094 -7.8801C363.043 -4.04899 362.691 0.0960999 362.342 4.10382C362.274 4.88876 362.209 5.62993 362.156 6.36808L362.075 7.43982C361.709 12.2702 361.331 17.2636 362.201 22.0216C363.256 27.7939 365.987 33.8923 370.102 39.6571C375.819 47.6574 383.883 53.4932 392.34 59.2474C400.337 64.6816 408.8 69.6629 416.977 74.4737C421.272 77.0006 425.713 79.606 430.048 82.2673C430.12 82.3116 430.176 82.377 430.206 82.4537C430.235 82.5304 430.239 82.6143 430.214 82.6928C430.19 82.7713 430.14 82.8402 430.071 82.8892C430.002 82.9382 429.919 82.9647 429.833 82.9647L429.824 82.9632Z" fill="white"/>
<path d="M418.672 82.9634C418.595 82.9635 418.52 82.9425 418.456 82.903C416.062 81.4312 413.572 79.9308 411.165 78.4801C393.486 67.8261 375.205 56.8082 364.279 39.8369C358.194 30.3784 355.503 19.8451 355.847 6.68979C355.861 6.09505 355.883 5.49578 355.905 4.895C356.025 1.5741 356.152 -1.86907 355.139 -5.04355C353.92 -8.84598 351.388 -12.4144 347.602 -15.6493C342.455 -20.045 336.15 -23.6255 329.846 -25.7328C323.673 -27.7947 317.279 -29.7118 311.096 -31.5655C305.294 -33.3059 299.294 -35.1037 293.489 -37.0193C293.389 -37.0521 293.307 -37.1214 293.261 -37.2118C293.215 -37.3023 293.208 -37.4065 293.242 -37.5016C293.277 -37.5967 293.35 -37.6748 293.444 -37.7188C293.539 -37.7629 293.648 -37.7691 293.748 -37.7363C299.544 -35.8238 305.538 -34.0275 311.334 -32.2885C317.524 -30.4333 323.925 -28.5148 330.108 -26.4483C336.509 -24.3093 342.909 -20.6744 348.132 -16.2139C352.031 -12.893 354.644 -9.20071 355.9 -5.26393C356.951 -1.96869 356.823 1.52882 356.692 4.92066C356.67 5.52446 356.647 6.11619 356.633 6.70792C356.299 19.7108 358.942 30.1052 364.949 39.4429C375.778 56.2618 393.979 67.2314 411.582 77.8386C413.991 79.2907 416.481 80.7927 418.879 82.266C418.951 82.3103 419.006 82.3757 419.036 82.4524C419.066 82.5291 419.069 82.613 419.045 82.6915C419.021 82.77 418.97 82.8389 418.902 82.8879C418.833 82.9369 418.749 82.9634 418.664 82.9634H418.672Z" fill="white"/>
<path d="M407.558 82.9632C407.478 82.9634 407.4 82.9408 407.334 82.8983C397.996 76.8407 388.937 70.8434 380.787 64.0839C371.411 56.3069 364.428 48.4696 359.439 40.1251C353.865 30.7994 350.893 20.2812 350.345 7.97273C350.152 3.59517 349.562 0.396545 348.43 -2.40358C347.099 -5.70033 344.969 -8.41592 341.919 -10.7058C330.839 -19.0202 316.05 -22.009 301.743 -24.8951C298.894 -25.4718 296.203 -26.0152 293.531 -26.6024C293.434 -26.63 293.351 -26.692 293.3 -26.7758C293.249 -26.8596 293.233 -26.9588 293.256 -27.0532C293.279 -27.1476 293.339 -27.2301 293.424 -27.2838C293.509 -27.3374 293.612 -27.3583 293.712 -27.342C296.369 -26.7563 299.058 -26.2129 301.907 -25.6363C315.633 -22.8633 331.188 -19.7191 342.409 -11.296C349.573 -5.9192 350.839 1.13016 351.14 7.94707C351.679 20.1363 354.622 30.5428 360.131 39.7598C365.074 48.0303 372.002 55.8028 381.308 63.5223C389.426 70.2547 398.462 76.2369 407.781 82.2809C407.824 82.3089 407.861 82.3448 407.889 82.3865C407.918 82.4281 407.938 82.4747 407.948 82.5237C407.957 82.5726 407.957 82.6229 407.946 82.6716C407.935 82.7204 407.915 82.7666 407.885 82.8077C407.848 82.8571 407.799 82.897 407.742 82.9241C407.684 82.9512 407.621 82.9646 407.558 82.9632Z" fill="white"/>
<path d="M396.497 82.9632C396.411 82.9634 396.327 82.9369 396.259 82.8877C386.507 75.9335 379.03 69.8608 372.731 63.7805C364.761 56.082 358.699 48.3972 354.194 40.267C349.492 31.776 346.523 22.3039 344.856 10.4498C344.337 6.77269 343.542 3.95898 342.357 1.61171C340.987 -1.14699 338.853 -3.49595 336.184 -5.18105C325.58 -12.004 310.826 -13.9452 297.809 -15.657C296.339 -15.8502 294.951 -16.0328 293.569 -16.223C293.464 -16.2375 293.37 -16.291 293.306 -16.372C293.243 -16.453 293.216 -16.5547 293.231 -16.6548C293.246 -16.7548 293.302 -16.8451 293.387 -16.9057C293.472 -16.9663 293.578 -16.9922 293.683 -16.9778C295.062 -16.7891 296.45 -16.6065 297.919 -16.4132C311.021 -14.6894 325.871 -12.7361 336.628 -5.81504C343.15 -1.61863 344.842 4.70618 345.638 10.3366C347.297 22.0971 350.241 31.4907 354.897 39.9002C359.363 47.9654 365.383 55.599 373.296 63.2355C379.562 69.3007 387.009 75.3493 396.729 82.2824C396.795 82.3301 396.845 82.3965 396.87 82.4724C396.895 82.5483 396.894 82.6297 396.868 82.7052C396.841 82.7806 396.791 82.8463 396.723 82.8929C396.656 82.9395 396.575 82.9646 396.491 82.9647L396.497 82.9632Z" fill="white"/>
<path d="M385.544 82.9631C385.45 82.9632 385.358 82.9311 385.286 82.8726C368.229 68.9082 356.781 55.9355 349.257 42.0481C345.142 34.4448 342.081 25.9825 339.344 14.6114C337.274 6.00729 334.398 3.06376 330.129 0.874984C320.896 -3.85881 308.79 -4.71017 298.108 -5.46492C296.539 -5.57511 295.056 -5.67927 293.584 -5.7955C293.482 -5.80677 293.388 -5.85567 293.322 -5.93185C293.257 -6.00802 293.225 -6.10549 293.234 -6.20361C293.242 -6.30173 293.291 -6.39279 293.369 -6.45749C293.446 -6.52219 293.548 -6.55546 293.651 -6.55025C295.118 -6.43402 296.599 -6.32986 298.166 -6.21967C308.929 -5.46492 321.116 -4.60148 330.506 0.207788C337.022 3.54831 338.771 8.84666 340.118 14.4424C342.84 25.7485 345.876 34.1549 349.963 41.6994C357.436 55.4978 368.824 68.398 385.802 82.2959C385.864 82.3463 385.908 82.4136 385.929 82.4888C385.949 82.5639 385.945 82.6433 385.917 82.7161C385.888 82.7889 385.837 82.8516 385.77 82.8958C385.703 82.94 385.624 82.9635 385.542 82.9631H385.544Z" fill="white"/>
<path d="M374.615 82.9634C374.563 82.9636 374.511 82.9539 374.463 82.935C374.415 82.9161 374.371 82.8883 374.335 82.8532C360.658 69.8866 350.594 57.1178 343.563 43.813C339.497 36.1146 336.498 27.8123 333.853 20.4837L333.647 19.9161C331.857 14.9348 330.165 10.2402 324.855 8.03483C316.815 4.69431 306.73 4.67167 297.833 4.64902C296.369 4.64902 294.984 4.64147 293.614 4.62487C293.515 4.61643 293.423 4.57302 293.356 4.50318C293.289 4.43334 293.252 4.34213 293.252 4.24749C293.252 4.15285 293.289 4.06164 293.356 3.99181C293.423 3.92197 293.515 3.87856 293.614 3.87012C294.983 3.88672 296.365 3.88975 297.825 3.89427C306.801 3.91692 316.976 3.94106 325.164 7.34197C330.813 9.67566 332.554 14.5317 334.401 19.6701L334.611 20.2422C337.248 27.5481 340.238 35.8293 344.279 43.4779C351.27 56.7087 361.287 69.4141 374.901 82.3219C374.957 82.3748 374.995 82.4423 375.011 82.5159C375.026 82.5894 375.018 82.6657 374.988 82.7351C374.958 82.8044 374.907 82.8637 374.842 82.9055C374.777 82.9472 374.7 82.9695 374.621 82.9695L374.615 82.9634Z" fill="white"/>
<path d="M363.694 82.9628C363.637 82.9629 363.58 82.9513 363.529 82.9289C363.477 82.9066 363.43 82.8738 363.393 82.833C353.47 71.9039 344.884 59.9329 337.8 47.1514C335.47 42.961 333.429 38.5789 331.455 34.3403C330.456 32.1953 329.423 29.9778 328.365 27.8117C326.541 24.0591 323.764 18.3909 319.111 16.0149C316.886 14.8768 313.91 14.762 311.283 14.6564L310.406 14.6217C304.794 14.3741 298.871 14.7288 293.645 15.0428C293.59 15.052 293.533 15.05 293.479 15.0369C293.425 15.0238 293.374 15 293.33 14.9669C293.286 14.9339 293.25 14.8923 293.224 14.845C293.197 14.7977 293.182 14.7457 293.179 14.6924C293.175 14.639 293.183 14.5856 293.203 14.5355C293.222 14.4854 293.253 14.4398 293.292 14.4017C293.331 14.3635 293.378 14.3337 293.43 14.3141C293.483 14.2946 293.538 14.2857 293.594 14.2881C298.841 13.9741 304.788 13.6178 310.443 13.8669L311.316 13.9016C314.028 14.0058 317.101 14.125 319.488 15.3447C324.374 17.8414 327.21 23.647 329.086 27.4917C330.148 29.6638 331.181 31.8843 332.181 34.0323C334.15 38.2589 336.186 42.6289 338.503 46.7967C345.556 59.5265 354.105 71.4493 363.985 82.3348C364.035 82.3896 364.067 82.457 364.079 82.529C364.09 82.601 364.079 82.6744 364.047 82.7406C364.016 82.8068 363.965 82.863 363.901 82.9024C363.837 82.9418 363.762 82.9628 363.686 82.9628H363.694Z" fill="white"/>
<path d="M352.77 82.9635C352.709 82.9637 352.648 82.9502 352.593 82.9239C352.538 82.8977 352.49 82.8596 352.454 82.8125C345.084 73.5185 338.177 63.3007 331.925 52.4459C330.659 50.2481 329.433 47.9808 328.249 45.789C326.546 42.6417 324.786 39.3857 322.879 36.2791C320.742 32.8073 318.012 28.9475 313.969 26.6893C308.211 23.4756 301.624 24.3797 295.244 25.2537C294.72 25.3262 294.196 25.4047 293.676 25.4681C293.571 25.4821 293.464 25.4558 293.38 25.3949C293.295 25.3341 293.239 25.2436 293.225 25.1435C293.21 25.0435 293.237 24.9419 293.301 24.8612C293.365 24.7806 293.46 24.7274 293.565 24.7133L295.132 24.5005C301.642 23.6084 308.373 22.6891 314.371 26.0326C318.572 28.3784 321.377 32.3333 323.566 35.8927C325.482 39.0113 327.247 42.2749 328.955 45.4328C330.137 47.62 331.36 49.8828 332.622 52.0746C338.856 62.8977 345.741 73.0838 353.087 82.3506C353.131 82.4067 353.158 82.4733 353.164 82.5431C353.171 82.6129 353.157 82.6831 353.124 82.7458C353.091 82.8085 353.041 82.8612 352.978 82.8981C352.916 82.9349 352.844 82.9544 352.77 82.9544V82.9635Z" fill="white"/>
<path d="M341.858 82.9631C341.794 82.9633 341.73 82.9485 341.673 82.9198C341.616 82.8911 341.567 82.8494 341.531 82.7985C337.392 77.0292 333.608 70.8252 329.948 64.8249C326.001 58.3537 321.921 51.6621 317.393 45.5169C311.503 37.5165 304.188 34.5775 293.674 35.9633C293.622 35.97 293.569 35.9669 293.518 35.9542C293.468 35.9414 293.42 35.9193 293.378 35.889C293.294 35.8279 293.239 35.7373 293.224 35.6372C293.21 35.5371 293.238 35.4357 293.302 35.3553C293.366 35.2749 293.461 35.2221 293.566 35.2085C304.411 33.779 311.961 36.8237 318.043 45.0776C322.59 51.2485 326.68 57.9552 330.635 64.4415C334.288 70.4282 338.065 76.6201 342.189 82.3668C342.23 82.4237 342.254 82.4902 342.258 82.5591C342.263 82.628 342.247 82.6967 342.213 82.7577C342.179 82.8188 342.129 82.8699 342.067 82.9055C342.005 82.9412 341.934 82.96 341.862 82.96L341.858 82.9631Z" fill="white"/>
<path d="M330.97 82.9636C330.904 82.9637 330.838 82.9479 330.78 82.9176C330.722 82.8873 330.672 82.8434 330.636 82.79C328.563 79.7318 326.542 76.4939 324.586 73.3617C320.69 67.1259 316.664 60.6819 311.909 55.0861C306.728 48.9953 301.09 46.3597 293.635 46.5575H293.618C293.519 46.5504 293.426 46.5083 293.358 46.4394C293.29 46.3704 293.251 46.2796 293.25 46.1849C293.249 46.0902 293.284 45.9985 293.351 45.9277C293.417 45.857 293.508 45.8124 293.607 45.8027C301.332 45.6004 307.168 48.319 312.52 54.6122C317.311 60.2456 321.352 66.7183 325.261 72.9767C327.214 76.1029 329.232 79.3348 331.298 82.3824C331.355 82.4667 331.375 82.5693 331.353 82.6675C331.331 82.7657 331.269 82.8516 331.181 82.9062C331.117 82.9434 331.045 82.9633 330.97 82.9636Z" fill="white"/>
<path d="M320.048 82.9638C319.982 82.9636 319.916 82.9477 319.858 82.9174C319.8 82.8871 319.75 82.8433 319.714 82.7902C318.738 81.3365 317.747 79.7576 316.699 78.0851C311.204 69.3209 304.365 58.4148 293.566 57.174C293.514 57.168 293.464 57.1524 293.418 57.1279C293.372 57.1034 293.332 57.0706 293.3 57.0314C293.268 56.9921 293.244 56.9472 293.23 56.8992C293.216 56.8511 293.211 56.8009 293.218 56.7513C293.224 56.7017 293.24 56.6538 293.266 56.6103C293.292 56.5668 293.326 56.5285 293.367 56.4977C293.408 56.4669 293.455 56.4441 293.506 56.4306C293.556 56.4171 293.609 56.4133 293.661 56.4192C304.848 57.7023 311.797 68.7865 317.381 77.6926C318.426 79.353 319.413 80.9335 320.388 82.372C320.427 82.4293 320.449 82.4954 320.452 82.5634C320.454 82.6315 320.437 82.6989 320.403 82.7587C320.369 82.8185 320.319 82.8684 320.257 82.9031C320.196 82.9379 320.126 82.9562 320.054 82.9562L320.048 82.9638Z" fill="white"/>
<path d="M309.117 82.9636C309.053 82.9636 308.989 82.9488 308.932 82.9204C308.875 82.8921 308.826 82.8509 308.789 82.8006C308.425 82.3009 308.061 81.7937 307.694 81.2911C303.804 75.8855 299.78 70.2958 293.467 67.8112C293.375 67.7689 293.304 67.6949 293.268 67.6043C293.232 67.5137 293.234 67.4134 293.272 67.3238C293.311 67.2343 293.384 67.1622 293.477 67.1223C293.57 67.0824 293.675 67.0778 293.771 67.1093C300.303 69.6754 304.578 75.6214 308.349 80.8623C308.714 81.3715 309.079 81.8747 309.443 82.3718C309.503 82.4543 309.526 82.5562 309.507 82.6549C309.489 82.7537 309.43 82.8414 309.343 82.8987C309.277 82.942 309.198 82.9647 309.117 82.9636Z" fill="white"/>
<path d="M298.147 82.963C298.091 82.9632 298.035 82.9518 297.983 82.9297C297.931 82.9076 297.885 82.8752 297.848 82.8347C297.669 82.6415 297.497 82.4513 297.327 82.2656C296.048 80.8663 294.944 79.6587 293.37 78.4436C293.288 78.3803 293.236 78.2886 293.225 78.1885C293.214 78.0884 293.245 77.9883 293.311 77.91C293.377 77.8317 293.474 77.7818 293.579 77.7712C293.683 77.7605 293.789 77.7901 293.871 77.8534C295.499 79.1108 296.625 80.3425 297.929 81.7675L298.446 82.3336C298.497 82.3882 298.53 82.4556 298.541 82.5277C298.552 82.5998 298.542 82.6734 298.51 82.7399C298.479 82.8063 298.428 82.8627 298.364 82.9023C298.3 82.9419 298.225 82.963 298.149 82.963H298.147Z" fill="white"/>
</g>
</g>
<g opacity="0.1">
<mask id="mask3_2924_30903" style="mask-type:alpha" maskUnits="userSpaceOnUse" x="121" y="53" width="160" height="153">
<ellipse rx="76.3035" ry="79.1225" transform="matrix(-0.356546 -0.934278 0.944701 -0.327934 201.43 129.237)" fill="#1476FF"/>
</mask>
<g mask="url(#mask3_2924_30903)">
<path d="M125.778 75.1432L125.792 75.1801C128.494 85.535 119.868 95.6278 112.941 103.737C111.654 105.242 110.439 106.665 109.361 108.012C109.297 108.092 109.203 108.145 109.098 108.158C108.994 108.172 108.888 108.145 108.804 108.084C108.72 108.023 108.664 107.933 108.65 107.833C108.636 107.734 108.664 107.633 108.728 107.553C109.813 106.196 111.034 104.768 112.323 103.252C119.142 95.2743 127.627 85.3441 125.023 75.3587C125 75.2654 125.016 75.1674 125.066 75.0846C125.116 75.0017 125.198 74.9401 125.294 74.9121C125.39 74.8841 125.493 74.8917 125.583 74.9335C125.674 74.9753 125.744 75.0482 125.78 75.1374L125.778 75.1432Z" fill="white"/>
<path d="M136.516 72.2016C139.027 78.7818 138.246 84.7541 134.026 91.4653C130.114 97.6858 125.12 103.522 120.29 109.165C117.878 111.985 115.384 114.899 113.087 117.792C113.056 117.832 113.016 117.865 112.971 117.89C112.926 117.915 112.876 117.932 112.825 117.938C112.773 117.945 112.72 117.942 112.67 117.929C112.619 117.917 112.572 117.895 112.53 117.865C112.489 117.835 112.454 117.797 112.428 117.754C112.401 117.711 112.384 117.664 112.377 117.614C112.37 117.565 112.373 117.515 112.386 117.467C112.4 117.419 112.423 117.373 112.454 117.334C114.758 114.43 117.257 111.511 119.674 108.686C124.486 103.063 129.461 97.2573 133.344 91.0758C137.574 84.348 138.242 78.3973 135.498 71.7806L135.494 71.7707C135.468 71.6796 135.477 71.5821 135.522 71.4975C135.567 71.4129 135.643 71.3473 135.736 71.3137C135.829 71.2801 135.931 71.2808 136.024 71.3158C136.116 71.3507 136.191 71.4174 136.234 71.5027C136.334 71.7364 136.427 71.9689 136.516 72.2016Z" fill="white"/>
<path d="M148.655 72.0971C151.49 79.527 150.393 86.1679 145.301 93.1531C142.887 96.4665 140.117 99.6111 137.433 102.642C136.794 103.367 136.156 104.092 135.52 104.816C130.127 110.989 123.126 119.15 116.819 127.545C116.757 127.627 116.664 127.682 116.561 127.699C116.457 127.715 116.35 127.692 116.264 127.633C116.179 127.575 116.121 127.486 116.103 127.387C116.086 127.288 116.111 127.187 116.172 127.105C122.495 118.688 129.506 110.513 134.91 104.331C135.545 103.603 136.183 102.877 136.826 102.153C139.497 99.1373 142.256 96.0044 144.648 92.7212C150.5 84.6915 150.901 77.1276 145.95 68.196C145.9 68.1066 145.89 68.0022 145.922 67.9058C145.953 67.8093 146.024 67.7287 146.117 67.6817C146.211 67.6346 146.321 67.6251 146.422 67.655C146.523 67.685 146.607 67.752 146.657 67.8414C147.424 69.2146 148.092 70.6365 148.655 72.0971Z" fill="white"/>
<path d="M161.659 73.4407C162.857 76.5783 163.475 79.8495 162.803 83.3501C161.929 87.9184 158.991 91.7831 156.231 94.9628C153.816 97.7481 151.203 100.446 148.676 103.057C146.925 104.866 145.115 106.735 143.386 108.615C134.853 117.905 127.172 127.56 120.555 137.312C120.494 137.387 120.405 137.436 120.308 137.452C120.21 137.467 120.109 137.447 120.026 137.395C119.943 137.343 119.883 137.264 119.859 137.172C119.834 137.081 119.846 136.983 119.893 136.9C126.528 127.119 134.233 117.434 142.791 108.116C144.524 106.23 146.337 104.357 148.091 102.545C150.61 99.9423 153.216 97.2513 155.624 94.4796C158.314 91.3772 161.185 87.6097 162.027 83.2146C163.225 76.9565 160.075 71.3512 157.03 65.9281C156.781 65.4876 156.535 65.0478 156.291 64.6088C156.267 64.5646 156.251 64.5163 156.246 64.4665C156.241 64.4166 156.247 64.3664 156.262 64.3185C156.277 64.2707 156.302 64.2262 156.336 64.1876C156.369 64.149 156.41 64.117 156.457 64.0936C156.503 64.0701 156.554 64.0556 156.606 64.0508C156.658 64.046 156.711 64.0511 156.761 64.0658C156.811 64.0804 156.858 64.1044 156.898 64.1362C156.939 64.1681 156.972 64.2072 156.997 64.2514L157.736 65.5692C159.165 68.133 160.627 70.7371 161.659 73.4407Z" fill="white"/>
<path d="M172.161 72.03C172.623 73.2399 173.058 74.4496 173.457 75.6669L173.703 76.4088C174.534 78.9042 175.478 81.7361 175.094 84.2789C174.305 89.5102 169.555 94.0377 166.407 97.0355C164.631 98.7283 162.798 100.413 161.025 102.043C157.535 105.254 153.918 108.576 150.609 112.084C140.479 122.759 131.656 134.5 124.311 147.079C124.257 147.161 124.171 147.221 124.072 147.245C123.973 147.269 123.869 147.257 123.779 147.209C123.69 147.162 123.623 147.084 123.592 146.991C123.562 146.898 123.569 146.798 123.614 146.71C130.989 134.08 139.846 122.29 150.016 111.57C153.349 108.047 156.971 104.717 160.473 101.497C162.244 99.8702 164.074 98.186 165.846 96.4996C168.916 93.5735 173.555 89.1521 174.306 84.17C174.664 81.797 173.753 79.0611 172.948 76.6386L172.7 75.8925C171.024 70.7765 168.649 65.5899 166.553 61.0149C166.523 60.9255 166.53 60.8288 166.57 60.7435C166.611 60.6582 166.683 60.5902 166.773 60.5526C166.863 60.5149 166.965 60.5104 167.058 60.5397C167.151 60.569 167.23 60.6301 167.279 60.7114C168.882 64.2272 170.661 68.098 172.161 72.03Z" fill="white"/>
<path d="M177.557 57.1697C177.986 58.3413 178.428 59.5131 178.895 60.7535C181.884 68.6875 185.271 77.6784 184.956 86.1297C184.724 92.3355 180.365 95.6991 175.749 99.2595L175.442 99.4962C169.068 104.419 162.475 109.511 156.597 115.369C145.624 126.309 136.289 139.875 128.059 156.84C128.015 156.931 127.934 157.001 127.835 157.036C127.736 157.071 127.627 157.066 127.532 157.024C127.436 156.982 127.362 156.905 127.325 156.811C127.289 156.717 127.294 156.612 127.338 156.521C135.605 139.483 144.989 125.852 156.031 114.848C161.943 108.955 168.555 103.848 174.95 98.9088L175.256 98.6725C179.921 95.0741 183.947 91.9608 184.167 86.1016C184.479 77.8008 181.118 68.878 178.153 61.0092C177.68 59.7695 177.244 58.5942 176.814 57.4197C176.788 57.3282 176.8 57.231 176.846 57.1471C176.892 57.0632 176.969 56.9987 177.062 56.9663C177.155 56.934 177.258 56.9361 177.35 56.9722C177.441 57.0083 177.515 57.0759 177.558 57.1615L177.557 57.1697Z" fill="white"/>
<path d="M187.822 53.6069L187.834 53.6367C188.202 54.9207 188.581 56.2078 188.984 57.5744C191.872 67.3476 195.133 78.4305 193.858 88.476C193.021 95.1086 189.256 98.6292 183.045 102.467C173.118 108.599 166.093 113.974 160.265 119.896C148.876 131.465 139.836 146.312 131.815 166.618C131.778 166.713 131.704 166.789 131.608 166.831C131.511 166.872 131.402 166.876 131.303 166.84C131.204 166.805 131.124 166.734 131.081 166.642C131.037 166.55 131.033 166.446 131.07 166.352C139.128 145.942 148.223 131.015 159.682 119.37C165.555 113.404 172.627 107.992 182.608 101.825C188.621 98.1104 192.26 94.7187 193.065 88.3787C194.32 78.4846 191.078 67.482 188.215 57.774C187.812 56.4102 187.434 55.1231 187.066 53.8358C187.043 53.7429 187.058 53.6453 187.107 53.5625C187.157 53.4797 187.237 53.4177 187.333 53.3889C187.428 53.36 187.531 53.3665 187.621 53.407C187.712 53.4476 187.783 53.5191 187.821 53.6074L187.822 53.6069Z" fill="white"/>
<path d="M198.086 50.0429L198.105 50.0939C198.377 51.3251 198.659 52.5812 198.945 53.8569C201.685 66.0445 204.791 79.8591 201.918 91.8778C200.09 99.5257 194.343 103.308 188.961 105.999C178.23 111.364 170.192 116.991 163.664 123.709C157.059 130.499 151.452 138.598 146.516 148.456C142.605 156.249 139.124 165.126 135.558 176.397C135.547 176.449 135.524 176.497 135.492 176.54C135.46 176.583 135.419 176.619 135.372 176.646C135.324 176.673 135.272 176.69 135.217 176.696C135.162 176.703 135.107 176.698 135.054 176.683C135.001 176.667 134.952 176.642 134.91 176.608C134.868 176.573 134.835 176.531 134.811 176.484C134.787 176.436 134.774 176.384 134.772 176.332C134.77 176.279 134.78 176.227 134.801 176.178C138.379 164.872 141.872 155.958 145.794 148.127C150.767 138.208 156.42 130.048 163.079 123.195C169.669 116.41 177.776 110.736 188.59 105.33C192.126 103.562 194.665 101.831 196.612 99.8718C198.897 97.5688 200.378 94.9005 201.139 91.7142C203.974 79.8584 200.888 66.1317 198.164 54.0205C197.877 52.7435 197.595 51.4873 197.324 50.2528C197.301 50.1582 197.318 50.0589 197.369 49.9755C197.421 49.892 197.505 49.8307 197.603 49.8041C197.7 49.7776 197.805 49.7878 197.895 49.8328C197.985 49.8777 198.054 49.9539 198.087 50.0457L198.086 50.0429Z" fill="white"/>
<path d="M208.323 46.4891C208.334 46.5163 208.341 46.5447 208.344 46.5736C208.675 49.135 209.051 51.7014 209.451 54.4186C211.461 68.1094 213.55 82.2642 209.377 95.1629C206.579 103.814 199.957 107.459 193.216 110.111C181.7 114.64 172.659 120.61 165.574 128.364C158.924 135.653 153.482 144.599 148.954 155.73C145.006 165.438 142.157 175.729 139.35 186.297C139.337 186.345 139.315 186.39 139.283 186.43C139.252 186.47 139.213 186.504 139.168 186.53C139.123 186.555 139.074 186.572 139.022 186.579C138.97 186.587 138.918 186.584 138.867 186.572C138.817 186.56 138.769 186.538 138.727 186.508C138.685 186.479 138.65 186.441 138.623 186.399C138.596 186.356 138.578 186.308 138.571 186.259C138.563 186.21 138.566 186.16 138.579 186.111C141.393 175.519 144.243 165.206 148.214 155.458C152.774 144.237 158.26 135.22 164.971 127.87C172.138 120.027 181.277 113.99 192.909 109.414C204.01 105.048 207.018 99.8788 208.61 94.9456C212.729 82.2068 210.659 68.137 208.656 54.5291C208.256 51.8105 207.877 49.2398 207.547 46.6703C207.535 46.6218 207.533 46.5715 207.541 46.5222C207.549 46.4729 207.567 46.4257 207.595 46.3832C207.622 46.3406 207.658 46.3037 207.7 46.2743C207.743 46.245 207.79 46.2239 207.841 46.2123C207.892 46.2007 207.945 46.1987 207.997 46.2065C208.048 46.2143 208.098 46.2317 208.142 46.2578C208.187 46.2839 208.226 46.318 208.256 46.3584C208.287 46.3988 208.309 46.4445 208.322 46.493L208.323 46.4891Z" fill="white"/>
<path d="M218.57 42.9336C218.585 42.9733 218.593 43.015 218.594 43.0571C218.691 48.9042 218.972 54.8904 219.242 60.679C219.53 66.8617 219.83 73.2536 219.908 79.5043C219.991 85.9349 218.599 92.9158 215.99 99.1576C214.129 103.614 211.518 107.121 208.233 109.584C205.221 111.842 201.542 112.989 197.986 114.104C197.427 114.277 196.869 114.452 196.317 114.629C183.391 118.777 174.054 124.701 166.908 133.279C154.039 148.731 149.455 168.799 145.022 188.207C144.417 190.859 143.789 193.602 143.158 196.251C143.135 196.349 143.072 196.435 142.982 196.488C142.893 196.542 142.785 196.559 142.683 196.537C142.58 196.515 142.491 196.454 142.434 196.369C142.378 196.284 142.36 196.181 142.383 196.083C143.014 193.437 143.64 190.696 144.246 188.047C148.699 168.555 153.303 148.4 166.283 132.806C173.524 124.111 182.982 118.097 196.061 113.905C196.616 113.727 197.176 113.552 197.737 113.376C201.229 112.288 204.839 111.163 207.741 108.988C210.915 106.609 213.441 103.207 215.251 98.8761C217.822 92.7245 219.195 85.8482 219.113 79.5135C219.034 73.2763 218.735 66.8886 218.448 60.7121C218.177 54.9187 217.897 48.9278 217.799 43.0697C217.796 42.9795 217.828 42.8914 217.887 42.8214C217.947 42.7513 218.031 42.7037 218.124 42.6873C218.217 42.6709 218.313 42.6867 218.395 42.7318C218.477 42.777 218.539 42.8485 218.57 42.9336Z" fill="white"/>
<path d="M228.829 39.3709C228.85 39.424 228.857 39.4808 228.851 39.537C228.016 47.8137 227.688 56.2759 227.37 64.4584C227.19 69.0975 227.004 73.8929 226.727 78.6008L226.683 79.3421C226.218 87.3251 225.736 95.574 221.954 103.058C219.188 108.516 216.114 112.268 212.552 114.515C209.102 116.676 204.895 117.778 200.824 118.838C200.029 119.045 199.28 119.241 198.529 119.445L197.613 119.694C192.68 121.035 187.578 122.421 183.117 124.842C177.815 127.72 172.744 132.253 168.446 137.953C162.504 145.836 159.522 155.048 156.749 164.585C154.123 173.614 152.117 182.899 150.172 191.873C149.153 196.587 148.103 201.457 146.965 206.252C146.941 206.35 146.878 206.435 146.789 206.489C146.7 206.542 146.592 206.56 146.489 206.537C146.387 206.515 146.297 206.455 146.241 206.37C146.185 206.285 146.167 206.182 146.19 206.084C147.322 201.299 148.375 196.429 149.394 191.721C151.338 182.731 153.349 173.436 155.98 164.375C158.779 154.769 161.785 145.487 167.802 137.501C172.162 131.713 177.325 127.103 182.725 124.173C187.27 121.707 192.417 120.307 197.397 118.955L198.312 118.706C199.066 118.501 199.853 118.295 200.615 118.096C204.626 117.052 208.775 115.972 212.115 113.871C215.559 111.712 218.543 108.061 221.241 102.725C224.955 95.3809 225.425 87.2068 225.894 79.2949L225.936 78.5555C226.212 73.8528 226.399 69.0603 226.579 64.426C226.897 56.2325 227.227 47.7584 228.063 39.4601C228.072 39.3743 228.11 39.2937 228.173 39.2317C228.236 39.1696 228.319 39.1299 228.409 39.119C228.498 39.1081 228.589 39.1267 228.666 39.1717C228.744 39.2167 228.802 39.2854 228.833 39.3665L228.829 39.3709Z" fill="white"/>
<path d="M239.122 35.7986C239.148 35.867 239.153 35.9412 239.136 36.0122C236.69 46.3164 235.553 56.9628 234.453 67.2592C234.163 69.9801 233.87 72.7917 233.542 75.5642C233.424 76.5796 233.31 77.605 233.2 78.6402C232.149 88.0328 231.059 97.7459 227.288 106.29C224.953 111.576 221.319 115.61 216.18 118.623C211.201 121.543 205.296 123.204 200.176 124.453C190.455 126.814 185.565 129.218 182.731 130.822C177.041 134.042 172.859 138.178 169.946 143.467C164.825 152.767 162.195 163.278 159.738 174.128C158.494 179.62 157.439 185.221 156.419 190.637C154.831 199.075 153.189 207.802 150.796 216.286C150.769 216.383 150.702 216.466 150.611 216.516C150.519 216.567 150.411 216.581 150.309 216.555C150.207 216.529 150.12 216.465 150.067 216.378C150.014 216.291 150 216.187 150.027 216.09C152.412 207.637 154.051 198.927 155.637 190.503C156.658 185.081 157.713 179.473 158.961 173.968C161.429 163.064 164.074 152.499 169.249 143.111C172.235 137.694 176.514 133.46 182.332 130.167C188.332 126.771 195.28 124.859 199.983 123.718C205.045 122.488 210.878 120.844 215.767 117.977C220.76 115.049 224.291 111.131 226.559 105.995C230.288 97.554 231.368 87.8975 232.413 78.56C232.528 77.5239 232.642 76.4976 232.754 75.4811C233.074 72.7146 233.373 69.9023 233.665 67.1828C234.766 56.8649 235.906 46.195 238.363 35.8451C238.382 35.7653 238.428 35.6935 238.493 35.6405C238.558 35.5874 238.64 35.556 238.726 35.5509C238.811 35.5457 238.896 35.5672 238.968 35.612C239.04 35.6568 239.094 35.7226 239.124 35.7995L239.122 35.7986Z" fill="white"/>
<path d="M249.099 32.336C249.133 32.424 249.131 32.5211 249.093 32.6078C243.953 44.6842 242.153 57.7522 240.411 70.3885C238.698 82.8206 236.924 95.6768 231.984 107.673C228.859 115.253 224.403 120.585 218.357 123.969C213.211 126.851 207.347 128.22 201.686 129.54L201.36 129.617C195.749 130.922 189.952 132.281 184.907 135.105C179.021 138.399 174.677 143.605 171.613 151.025C166.705 162.92 164.948 175.727 163.233 188.118C161.486 200.801 159.677 213.915 154.498 226.082C154.48 226.131 154.452 226.176 154.416 226.214C154.38 226.252 154.336 226.283 154.287 226.304C154.237 226.325 154.184 226.337 154.13 226.338C154.076 226.339 154.023 226.329 153.973 226.31C153.923 226.291 153.877 226.262 153.84 226.225C153.802 226.189 153.772 226.145 153.752 226.097C153.733 226.049 153.723 225.998 153.725 225.946C153.727 225.895 153.74 225.844 153.763 225.798C158.9 213.723 160.704 200.655 162.445 188.019C164.158 175.585 165.931 162.727 170.872 150.739C173.999 143.158 178.455 137.826 184.501 134.443C189.647 131.562 195.511 130.192 201.169 128.872L201.495 128.796C207.106 127.491 212.905 126.131 217.953 123.306C223.837 120.012 228.183 114.805 231.247 107.387C236.154 95.4849 237.92 82.6747 239.626 70.2867C241.375 57.603 243.182 44.486 248.362 32.3203C248.392 32.2495 248.444 32.1891 248.511 32.147C248.578 32.1049 248.657 32.0832 248.737 32.0845C248.817 32.0859 248.895 32.1103 248.96 32.1547C249.026 32.199 249.075 32.2612 249.103 32.333L249.099 32.336Z" fill="white"/>
<path d="M252.821 42.0871C252.849 42.1601 252.853 42.2394 252.832 42.3145C250.477 50.6595 248.856 59.259 247.296 67.5723C246.34 72.6542 245.346 77.91 244.201 83.0703C241.546 95.0036 238.916 105.664 233.617 115.29C230.632 120.708 226.353 124.942 220.535 128.235C214.534 131.629 207.588 133.541 202.884 134.684C197.818 135.916 191.981 137.559 187.089 140.419C182.07 143.353 178.537 147.269 176.308 152.405C172.676 160.75 171.581 170.195 170.523 179.328L170.255 181.616C169.884 184.765 169.542 187.968 169.212 191.067C168.106 201.437 166.965 212.167 164.495 222.56C164.472 222.658 164.409 222.744 164.319 222.797C164.23 222.851 164.122 222.869 164.019 222.847C163.916 222.824 163.827 222.764 163.77 222.679C163.714 222.594 163.696 222.491 163.719 222.393C166.175 212.04 167.313 201.34 168.416 190.991C168.749 187.891 169.089 184.685 169.462 181.531L169.73 179.241C170.795 170.055 171.898 160.555 175.572 152.11C177.87 146.829 181.502 142.791 186.671 139.769C191.652 136.856 197.555 135.187 202.685 133.946C210.185 132.124 215.558 130.162 220.13 127.578C225.82 124.358 230.002 120.222 232.914 114.931C238.169 105.397 240.782 94.7838 243.431 82.9056C244.578 77.7557 245.565 72.5073 246.52 67.4321C248.087 59.1019 249.707 50.4867 252.071 42.11C252.092 42.0318 252.14 41.9623 252.206 41.9116C252.272 41.861 252.353 41.8319 252.438 41.8285C252.523 41.8251 252.606 41.8477 252.677 41.8929C252.747 41.9381 252.8 42.0035 252.829 42.0797L252.821 42.0871Z" fill="white"/>
<path d="M256.647 52.1143C256.673 52.1827 256.678 52.2569 256.661 52.3279C255.53 57.114 254.477 61.984 253.457 66.6927C251.513 75.6821 249.503 84.9775 246.868 94.0298C244.072 103.646 241.063 112.938 235.051 120.904C230.714 126.649 225.554 131.258 220.129 134.23C215.654 136.683 210.557 138.065 205.627 139.402L204.545 139.696C203.783 139.906 203 140.108 202.236 140.306C198.227 141.351 194.083 142.429 190.742 144.529C187.338 146.674 184.266 150.422 181.617 155.677C177.902 163.042 177.424 171.238 176.961 179.166L176.922 179.847C176.645 184.547 176.459 189.338 176.279 193.972C175.96 202.168 175.632 210.641 174.794 218.941C174.784 219.042 174.733 219.134 174.651 219.198C174.57 219.262 174.465 219.293 174.36 219.283C174.255 219.274 174.158 219.225 174.091 219.147C174.024 219.07 173.992 218.97 174.002 218.869C174.838 210.591 175.167 202.128 175.483 193.939C175.664 189.302 175.85 184.508 176.126 179.801L176.167 179.118C176.633 171.117 177.116 162.844 180.904 155.341C183.617 149.961 186.782 146.108 190.306 143.885C193.756 141.724 197.961 140.622 202.029 139.564C202.825 139.356 203.578 139.161 204.324 138.956L205.407 138.662C210.291 137.338 215.341 135.969 219.731 133.562C225.058 130.643 230.132 126.109 234.405 120.449C240.332 112.589 243.324 103.366 246.101 93.8191C248.72 84.793 250.733 75.5047 252.677 66.5316C253.697 61.8176 254.745 56.9463 255.885 52.1509C255.904 52.0711 255.949 51.9993 256.015 51.9462C256.08 51.8932 256.162 51.8618 256.247 51.8566C256.333 51.8515 256.418 51.8729 256.49 51.9178C256.562 51.9626 256.616 52.0284 256.646 52.1053L256.647 52.1143Z" fill="white"/>
<path d="M260.461 62.1079C260.487 62.1763 260.492 62.2505 260.475 62.3215C259.844 64.971 259.217 67.7154 258.611 70.3691C254.16 89.8573 249.557 110.009 236.572 125.605C229.334 134.294 219.876 140.308 206.797 144.5C206.206 144.69 205.608 144.875 205.009 145.061C201.696 146.089 198.26 147.153 195.478 149.147C192.149 151.539 189.499 155.03 187.607 159.529C185.036 165.645 183.665 172.521 183.745 178.891C183.824 185.129 184.122 191.515 184.41 197.689C184.68 203.485 184.961 209.477 185.059 215.335C185.061 215.436 185.021 215.533 184.947 215.605C184.874 215.678 184.774 215.719 184.668 215.721C184.563 215.722 184.461 215.684 184.385 215.614C184.309 215.544 184.266 215.448 184.264 215.348C184.166 209.499 183.886 203.513 183.617 197.724C183.328 191.542 183.029 185.149 182.95 178.901C182.868 172.433 184.26 165.453 186.869 159.247C188.808 154.617 191.552 151.013 195.001 148.54C197.888 146.471 201.378 145.39 204.765 144.347C205.367 144.161 205.958 143.978 206.546 143.788C219.472 139.641 228.809 133.717 235.955 125.14C248.822 109.682 253.405 89.6181 257.836 70.214C258.443 67.5585 259.071 64.8135 259.702 62.1606C259.721 62.0808 259.767 62.0091 259.832 61.956C259.898 61.903 259.979 61.8715 260.065 61.8664C260.151 61.8613 260.236 61.8827 260.307 61.9275C260.379 61.9724 260.434 62.0381 260.463 62.115L260.461 62.1079Z" fill="white"/>
<path d="M264.262 72.0707C264.289 72.1419 264.294 72.2193 264.274 72.2929C261.5 82.7337 258.689 92.9042 254.816 102.52C250.361 113.583 245.027 122.521 238.512 129.846C231.23 138.032 221.883 144.293 209.943 148.994C205.696 150.664 202.746 152.287 200.375 154.259C197.582 156.579 195.635 159.417 194.422 162.934C190.019 175.707 192.132 189.983 194.182 203.793C194.588 206.544 194.973 209.141 195.308 211.736C195.314 211.833 195.282 211.928 195.217 212.003C195.151 212.077 195.059 212.125 194.958 212.137C194.857 212.149 194.756 212.123 194.674 212.066C194.592 212.008 194.536 211.923 194.518 211.828C194.186 209.246 193.802 206.65 193.396 203.899C191.433 190.65 189.211 175.634 193.672 162.696C196.52 154.437 203.032 150.891 209.646 148.29C221.471 143.638 230.718 137.442 237.915 129.352C244.373 122.093 249.662 113.226 254.085 102.245C257.942 92.6672 260.746 82.5232 263.513 72.1041C263.526 72.0558 263.549 72.0104 263.58 71.9705C263.611 71.9307 263.651 71.897 263.695 71.8716C263.74 71.8462 263.79 71.8294 263.842 71.8223C263.893 71.8152 263.946 71.8179 263.997 71.8303C264.058 71.8468 264.114 71.8773 264.16 71.9192C264.207 71.9611 264.241 72.0131 264.262 72.0707Z" fill="white"/>
<path d="M268.046 81.9814C268.075 82.0585 268.078 82.1428 268.053 82.2214C264.536 93.3391 261.11 102.117 257.274 109.842C252.415 119.618 246.916 127.68 240.446 134.497C233.689 141.615 225.372 147.516 214.262 153.064C210.816 154.787 208.316 156.462 206.409 158.327C204.159 160.498 202.575 163.214 201.827 166.182C198.731 178.019 201.865 191.906 204.63 204.157C204.943 205.541 205.238 206.847 205.523 208.151C205.545 208.25 205.524 208.353 205.466 208.438C205.408 208.522 205.317 208.581 205.213 208.602C205.11 208.623 205.001 208.603 204.913 208.548C204.824 208.493 204.762 208.406 204.74 208.307C204.455 207.007 204.16 205.7 203.848 204.318C201.065 191.986 197.911 178.009 201.051 166.002C202.955 158.721 208.608 155.041 213.883 152.402C224.903 146.893 233.152 141.042 239.845 133.993C246.264 127.231 251.726 119.226 256.544 109.522C260.376 101.832 263.789 93.0892 267.296 82.0071C267.32 81.931 267.368 81.8641 267.435 81.8157C267.501 81.7674 267.581 81.7402 267.665 81.7379C267.748 81.7356 267.83 81.7584 267.899 81.803C267.968 81.8477 268.021 81.9119 268.049 81.9866L268.046 81.9814Z" fill="white"/>
<path d="M271.792 91.7962C271.824 91.8809 271.824 91.9739 271.791 92.0584C263.866 112.121 255 126.818 243.89 138.311C237.806 144.6 230.515 150.237 220.248 156.579C212.478 161.377 210.561 164.961 209.865 169.535C208.359 179.43 211.661 190.571 214.57 200.402C214.998 201.846 215.403 203.21 215.792 204.569C215.816 204.665 215.8 204.766 215.747 204.851C215.694 204.935 215.609 204.997 215.51 205.023C215.41 205.049 215.304 205.036 215.213 204.989C215.123 204.941 215.056 204.862 215.025 204.768C214.638 203.413 214.234 202.05 213.807 200.608C210.869 190.704 207.552 179.487 209.079 169.426C210.141 162.444 214.764 159.064 219.816 155.943C230.025 149.636 237.269 144.041 243.305 137.798C254.344 126.38 263.16 111.762 271.046 91.7932C271.075 91.7204 271.126 91.6578 271.193 91.6137C271.26 91.5696 271.339 91.5462 271.421 91.5467C271.502 91.5472 271.582 91.5715 271.648 91.6164C271.714 91.6613 271.765 91.7245 271.792 91.7976L271.792 91.7962Z" fill="white"/>
<path d="M275.527 101.592C275.545 101.639 275.553 101.688 275.551 101.738C275.549 101.787 275.536 101.836 275.514 101.881C267.416 118.573 258.278 131.96 247.573 142.811C241.379 149.088 234.225 154.616 227.908 159.493L227.42 159.871C223.124 163.179 219.077 166.301 218.72 171.814C218.179 180.163 221.606 189.209 224.626 197.19C225.127 198.502 225.593 199.746 226.046 200.98C226.071 201.071 226.06 201.169 226.014 201.252C225.968 201.336 225.891 201.401 225.798 201.433C225.704 201.466 225.602 201.463 225.51 201.427C225.418 201.391 225.344 201.324 225.302 201.238C224.85 200.005 224.381 198.766 223.885 197.455C220.838 189.403 217.381 180.276 217.932 171.775C218.299 165.914 222.488 162.693 226.919 159.28L227.411 158.896C233.708 154.034 240.844 148.522 246.998 142.285C257.643 131.494 266.736 118.171 274.797 101.555C274.83 101.487 274.884 101.43 274.951 101.39C275.018 101.351 275.096 101.332 275.174 101.335C275.253 101.339 275.329 101.364 275.392 101.408C275.456 101.453 275.504 101.514 275.531 101.584L275.527 101.592Z" fill="white"/>
<path d="M279.262 111.381C279.282 111.432 279.29 111.486 279.285 111.541C279.281 111.595 279.265 111.647 279.237 111.695C271.863 124.326 263.005 136.115 252.834 146.835C249.502 150.357 245.883 153.685 242.382 156.904C240.61 158.532 238.778 160.217 237.006 161.905C233.933 164.824 229.297 169.251 228.548 174.234C228.188 176.618 229.092 179.324 229.887 181.714L230.152 182.512C231.828 187.627 234.203 192.813 236.3 197.39C236.328 197.436 236.345 197.487 236.351 197.54C236.357 197.594 236.351 197.647 236.333 197.698C236.316 197.749 236.287 197.796 236.249 197.835C236.212 197.875 236.166 197.906 236.114 197.928C236.063 197.949 236.007 197.96 235.951 197.96C235.895 197.959 235.84 197.948 235.789 197.925C235.738 197.903 235.693 197.871 235.655 197.831C235.618 197.791 235.59 197.744 235.574 197.693C233.47 193.098 231.085 187.891 229.396 182.738L229.132 181.943C228.307 179.477 227.373 176.682 227.759 174.126C228.548 168.893 233.298 164.365 236.444 161.37C238.221 159.675 240.055 157.989 241.83 156.358C245.321 153.148 248.93 149.829 252.244 146.327C262.374 135.652 271.198 123.913 278.544 111.335C278.581 111.271 278.636 111.219 278.703 111.184C278.77 111.15 278.846 111.135 278.922 111.14C278.998 111.146 279.071 111.172 279.132 111.216C279.193 111.26 279.239 111.32 279.265 111.388L279.262 111.381Z" fill="white"/>
</g>
</g>
</g>
</svg>
