<svg width="60" height="60" viewBox="0 0 60 60" fill="none" xmlns="http://www.w3.org/2000/svg">
<rect width="60" height="60" rx="13.3333" fill="#F4F7FF"/>
<path fill-rule="evenodd" clip-rule="evenodd" d="M46.22 13.7773C46.5455 14.1028 46.7054 14.5586 46.6545 15.0161L46.3029 18.1773C46.3029 18.1775 46.303 18.1772 46.3029 18.1773C45.99 20.9994 44.7251 23.6312 42.7168 25.6383C42.7167 25.6384 42.7169 25.6382 42.7168 25.6383L28.3454 40.0068C28.0612 40.2909 27.6758 40.4505 27.2739 40.4504C26.872 40.4504 26.4866 40.2906 26.2025 40.0064L19.9904 33.7913C19.3989 33.1996 19.399 32.2405 19.9907 31.6488L34.3591 17.2804C34.3591 17.2804 34.3591 17.2804 34.3591 17.2804C36.3666 15.2728 38.9977 14.0081 41.8194 13.6944C41.8195 13.6944 41.8194 13.6944 41.8194 13.6944L44.9812 13.3428C45.4387 13.2919 45.8945 13.4518 46.22 13.7773ZM43.4334 16.5639L42.1544 16.7062C40.0164 16.9438 38.0229 17.902 36.5019 19.4231L23.2045 32.7205L27.2745 36.7924L40.5743 23.4953C42.0957 21.9749 43.0541 19.9813 43.2911 17.8434L43.4334 16.5639Z" fill="#1476FF"/>
<path d="M21.0601 32.7201L15.7535 30.9503C15.5757 30.8912 15.4161 30.7877 15.2897 30.6496C15.1633 30.5114 15.0743 30.3432 15.0313 30.161C14.9883 29.9787 14.9926 29.7885 15.0439 29.6084C15.0951 29.4283 15.1916 29.2643 15.3242 29.132L15.6641 28.7921C16.8184 27.6376 18.2714 26.8274 19.8603 26.4521C21.4491 26.0769 23.1111 26.1516 24.6599 26.6677L26.4987 27.2801L21.0601 32.7201Z" stroke="#1476FF" stroke-width="3.33333" stroke-linecap="round" stroke-linejoin="round"/>
<path fill-rule="evenodd" clip-rule="evenodd" d="M23.6803 27.9577C22.5455 27.6682 21.3548 27.6564 20.21 27.9267C18.9583 28.2223 17.8086 28.8441 16.8769 29.7273L20.6524 30.9865L23.6803 27.9577ZM25.1402 25.2302C23.3245 24.6252 21.3761 24.5377 19.5135 24.9776C17.6508 25.4174 15.9474 26.3673 14.5942 27.7208C14.5942 27.7208 14.5941 27.7208 14.5941 27.7209L14.2554 28.0596C14.2552 28.0598 14.2549 28.06 14.2547 28.0603C14.2546 28.0604 14.2544 28.0605 14.2543 28.0607C13.9393 28.3754 13.71 28.7654 13.5881 29.1936C13.466 29.6224 13.4558 30.0753 13.5582 30.5091C13.6606 30.943 13.8724 31.3435 14.1733 31.6724C14.4738 32.0008 14.8532 32.247 15.2756 32.3876C15.2756 32.3876 15.2756 32.3876 15.2756 32.3876C15.2762 32.3878 15.2768 32.388 15.2774 32.3882L20.5822 34.1575C21.1268 34.3391 21.7273 34.1974 22.1331 33.7914L27.5717 28.3514C27.943 27.98 28.0955 27.4428 27.9747 26.9318C27.854 26.4207 27.4772 26.0086 26.9789 25.8426L25.1405 25.2303C25.1404 25.2303 25.1403 25.2302 25.1402 25.2302Z" fill="#1476FF"/>
<path d="M27.2734 38.9351L29.0433 44.2418C29.1023 44.4195 29.2058 44.5791 29.344 44.7055C29.4821 44.832 29.6503 44.9209 29.8326 44.9639C30.0148 45.007 30.2051 45.0026 30.3852 44.9514C30.5653 44.9001 30.7292 44.8036 30.8615 44.6711L31.2029 44.3312C32.3572 43.1767 33.1672 41.7236 33.5421 40.1348C33.9171 38.5459 33.8422 36.884 33.3259 35.3353L32.7164 33.5039L27.2734 38.9351Z" stroke="#1476FF" stroke-width="3.33333" stroke-linecap="round" stroke-linejoin="round"/>
<path fill-rule="evenodd" clip-rule="evenodd" d="M33.0672 32.0296C33.578 32.1506 33.9898 32.5274 34.1555 33.0255L34.7648 34.8561C34.7648 34.8563 34.7649 34.8565 34.7649 34.8567C34.765 34.8567 34.765 34.8568 34.765 34.8569C35.3701 36.6723 35.4578 38.6204 35.0183 40.4828C34.5787 42.3455 33.6291 44.0491 32.2759 45.4025L32.2735 45.4049L31.9355 45.7414C31.9348 45.7421 31.9341 45.7429 31.9333 45.7436C31.6188 46.058 31.2292 46.2869 30.8015 46.4087C30.3727 46.5307 29.9198 46.541 29.486 46.4386C29.0521 46.3362 28.6517 46.1244 28.3227 45.8235C27.9941 45.5228 27.7478 45.1431 27.6073 44.7205C27.6071 44.7201 27.607 44.7197 27.6069 44.7194L25.8376 39.4145C25.6559 38.8695 25.798 38.2685 26.2047 37.8626L31.6477 32.4314C32.0193 32.0606 32.5563 31.9086 33.0672 32.0296ZM29.009 39.3453L30.2682 43.121C31.1516 42.189 31.7735 41.0389 32.069 39.7868C32.3387 38.6438 32.3272 37.4551 32.0389 36.3219L29.009 39.3453Z" fill="#1476FF"/>
<path fill-rule="evenodd" clip-rule="evenodd" d="M21.5842 36.3285C21.6386 37.1636 21.0058 37.8846 20.1708 37.939C19.74 37.9671 19.3342 38.1512 19.0293 38.4568L19.0262 38.4599C19.0263 38.4598 19.0243 38.4618 19.0202 38.4663C19.0161 38.4709 19.0103 38.4775 19.0029 38.4865C18.9878 38.5048 18.968 38.5303 18.9438 38.5644C18.8945 38.6336 18.835 38.7262 18.7665 38.8451C18.6284 39.0847 18.4752 39.3925 18.3121 39.7582C17.9859 40.4893 17.6539 41.3738 17.3524 42.2454C17.2811 42.4515 17.212 42.6555 17.1455 42.8552C17.3446 42.7888 17.5482 42.7198 17.7538 42.6486C18.6252 42.3471 19.5096 42.0151 20.241 41.6889C20.6069 41.5257 20.9151 41.3725 21.1552 41.2342C21.2744 41.1656 21.3673 41.106 21.4369 41.0565C21.4712 41.0321 21.497 41.0122 21.5155 40.9969C21.5246 40.9894 21.5314 40.9836 21.5361 40.9793C21.5388 40.9769 21.5407 40.9751 21.5418 40.9741C21.5425 40.9733 21.5429 40.973 21.5429 40.973L21.5443 40.9716C21.7095 40.8068 21.8405 40.611 21.9298 40.3954C22.0191 40.1798 22.0649 39.9487 22.0646 39.7153C22.0635 38.8785 22.741 38.1993 23.5778 38.1982C24.4146 38.1971 25.0938 38.8746 25.0949 39.7114C25.0958 40.344 24.9716 40.9705 24.7295 41.555C24.4875 42.1391 24.1326 42.6697 23.6851 43.1162C23.1415 43.6596 22.2503 44.1107 21.4755 44.4563C20.6304 44.8333 19.6539 45.1978 18.7447 45.5124C17.831 45.8286 16.9617 46.1024 16.3224 46.2968C16.0021 46.3942 15.7382 46.4721 15.5536 46.5259C15.4612 46.5528 15.3886 46.5736 15.3386 46.5879L15.2809 46.6044L15.2598 46.6103C15.2597 46.6104 15.2591 46.6105 14.8491 45.1519C13.3904 44.7421 13.3905 44.742 13.3905 44.7419L13.3966 44.7204L13.413 44.6626C13.4273 44.6126 13.4482 44.5399 13.4751 44.4475C13.5288 44.2627 13.6067 43.9986 13.7041 43.6782C13.8985 43.0386 14.1724 42.1688 14.4886 41.2547C14.8032 40.3453 15.1677 39.3686 15.5447 38.5235C15.8899 37.7499 16.3411 36.8586 16.8854 36.3152C17.7105 35.4888 18.8083 34.9911 19.9737 34.9151C20.8088 34.8607 21.5298 35.4935 21.5842 36.3285ZM14.8491 45.1519L13.3905 44.7419C13.2423 45.2693 13.3904 45.836 13.7778 46.2234C14.1653 46.6107 14.7324 46.7586 15.2598 46.6103L14.8491 45.1519Z" fill="#1476FF"/>
</svg>
