<svg width="64" height="65" viewBox="0 0 64 65" fill="none" xmlns="http://www.w3.org/2000/svg">
<path d="M60 0.794922H4C2.93913 0.794922 1.92172 1.21635 1.17157 1.96649C0.421427 2.71664 0 3.73406 0 4.79492L0 60.7949C0 61.8558 0.421427 62.8732 1.17157 63.6233C1.92172 64.3735 2.93913 64.7949 4 64.7949H60C61.0609 64.7949 62.0783 64.3735 62.8284 63.6233C63.5786 62.8732 64 61.8558 64 60.7949V4.79492C64 3.73406 63.5786 2.71664 62.8284 1.96649C62.0783 1.21635 61.0609 0.794922 60 0.794922V0.794922ZM24 26.1283C22.3449 26.1291 20.7303 25.6166 19.3787 24.6614C18.0271 23.7062 17.005 22.3553 16.4533 20.7949H12C11.2928 20.7949 10.6145 20.514 10.1144 20.0139C9.61429 19.5138 9.33333 18.8355 9.33333 18.1283C9.33333 17.421 9.61429 16.7427 10.1144 16.2426C10.6145 15.7425 11.2928 15.4616 12 15.4616H16.4533C16.9422 14.079 17.8016 12.8573 18.9378 11.9302C20.074 11.003 21.4431 10.4059 22.8957 10.2043C24.3482 10.0026 25.8283 10.2041 27.174 10.7867C28.5198 11.3693 29.6796 12.3106 30.5266 13.5077C31.3736 14.7049 31.8752 16.1118 31.9766 17.5748C32.0781 19.0378 31.7755 20.5005 31.1018 21.8031C30.4282 23.1057 29.4095 24.1981 28.157 24.9609C26.9045 25.7236 25.4665 26.1275 24 26.1283ZM26.6667 47.4616C26.6667 48.1688 26.3857 48.8471 25.8856 49.3472C25.3855 49.8473 24.7072 50.1283 24 50.1283H12C11.2928 50.1283 10.6145 49.8473 10.1144 49.3472C9.61429 48.8471 9.33333 48.1688 9.33333 47.4616C9.33333 46.7543 9.61429 46.0761 10.1144 45.576C10.6145 45.0759 11.2928 44.7949 12 44.7949H24C24.7072 44.7949 25.3855 45.0759 25.8856 45.576C26.3857 46.0761 26.6667 46.7543 26.6667 47.4616ZM38.6667 39.4616C40.3217 39.4607 41.9363 39.9732 43.2879 40.9284C44.6396 41.8836 45.6616 43.2345 46.2133 44.7949H52C52.7072 44.7949 53.3855 45.0759 53.8856 45.576C54.3857 46.0761 54.6667 46.7543 54.6667 47.4616C54.6667 48.1688 54.3857 48.8471 53.8856 49.3472C53.3855 49.8473 52.7072 50.1283 52 50.1283H46.2133C45.7245 51.5109 44.865 52.7325 43.7289 53.6597C42.5927 54.5869 41.2235 55.1839 39.771 55.3856C38.3184 55.5872 36.8384 55.3858 35.4926 54.8032C34.1468 54.2206 32.9871 53.2793 32.1401 52.0821C31.2931 50.885 30.7915 49.478 30.69 48.0151C30.5886 46.5521 30.8912 45.0894 31.5648 43.7868C32.2385 42.4842 33.2572 41.3918 34.5097 40.629C35.7621 39.8662 37.2002 39.4624 38.6667 39.4616ZM52 20.7949H38.6667C37.9594 20.7949 37.2811 20.514 36.7811 20.0139C36.281 19.5138 36 18.8355 36 18.1283C36 17.421 36.281 16.7427 36.7811 16.2426C37.2811 15.7425 37.9594 15.4616 38.6667 15.4616H52C52.7072 15.4616 53.3855 15.7425 53.8856 16.2426C54.3857 16.7427 54.6667 17.421 54.6667 18.1283C54.6667 18.8355 54.3857 19.5138 53.8856 20.0139C53.3855 20.514 52.7072 20.7949 52 20.7949Z" fill="#1476FF"/>
</svg>
