<svg width="64" height="38" viewBox="0 0 64 38" fill="none" xmlns="http://www.w3.org/2000/svg">
<path d="M18.6781 23.6826C20.4042 25.3182 22.703 26.2117 25.0806 26.1711C27.4583 26.1306 29.7252 25.1592 31.3946 23.4657L37.197 17.6632C37.4477 17.4308 37.777 17.3016 38.1189 17.3016C38.4608 17.3016 38.79 17.4308 39.0407 17.6632L48.7204 27.3701C48.785 27.4275 48.8356 27.4988 48.8685 27.5787C48.9013 27.6585 48.9156 27.7448 48.9102 27.831C48.912 27.9168 48.8961 28.002 48.8634 28.0813C48.8307 28.1606 48.7821 28.2323 48.7204 28.2919L44.1111 32.8742C43.7837 33.2539 43.568 33.717 43.4879 34.2119C43.4079 34.7069 43.4667 35.2143 43.6577 35.6779C43.8487 36.1414 44.1646 36.5429 44.5701 36.8378C44.9756 37.1326 45.4549 37.3092 45.9548 37.348H61.6538C62.3729 37.348 63.0626 37.0624 63.5711 36.5539C64.0796 36.0454 64.3652 35.3557 64.3652 34.6366V19.0461C64.3229 18.5512 64.1453 18.0774 63.8521 17.6765C63.5588 17.2756 63.1611 16.963 62.7022 16.7728C62.2434 16.5825 61.7411 16.522 61.2502 16.5977C60.7593 16.6735 60.2987 16.8826 59.9185 17.2023L55.2007 21.7575C55.0753 21.8737 54.9107 21.9383 54.7398 21.9383C54.5688 21.9383 54.4042 21.8737 54.2788 21.7575L44.5991 12.132C42.8537 10.4646 40.5327 9.53419 38.1189 9.53419C35.705 9.53419 33.384 10.4646 31.6386 12.132L25.8633 17.9344C25.6203 18.1712 25.2943 18.3038 24.955 18.3038C24.6156 18.3038 24.2897 18.1712 24.0467 17.9344L6.80216 1.66598C6.05309 0.981967 5.06579 0.618749 4.05203 0.654231C3.03826 0.689712 2.07877 1.12107 1.37936 1.85578C0.695346 2.60485 0.332128 3.59215 0.36761 4.60591C0.403091 5.61968 0.834447 6.57917 1.56916 7.27858L18.6781 23.6826Z" fill="#1476FF"/>
</svg>
