<svg width="60" height="60" viewBox="0 0 60 60" fill="none" xmlns="http://www.w3.org/2000/svg">
<rect width="60" height="60" rx="14.4" fill="#EAF4FF"/>
<path fill-rule="evenodd" clip-rule="evenodd" d="M15.0949 16.9597C15.0053 17.67 14.9994 18.5686 14.9994 19.8149C14.9994 21.0671 15.0007 21.9662 15.086 22.6812C15.1698 23.3832 15.3138 23.6836 15.4382 23.8395C15.5426 23.9704 15.7752 24.1787 16.4622 24.3503C17.1758 24.5285 18.2323 24.6297 19.8142 24.6297C21.3961 24.6297 22.4526 24.5285 23.1662 24.3503C23.8531 24.1787 24.0857 23.9704 24.1901 23.8395C24.3145 23.6836 24.4586 23.3832 24.5423 22.6812C24.6276 21.9662 24.629 21.0671 24.629 19.8149C24.629 18.5686 24.623 17.67 24.5335 16.9597C24.4456 16.2623 24.2982 15.9581 24.1686 15.7974C24.0577 15.6598 23.8177 15.4505 23.1341 15.2792C22.4241 15.1012 21.3767 15.0001 19.8142 15.0001C18.2517 15.0001 17.2043 15.1012 16.4942 15.2792C15.8106 15.4505 15.5707 15.6598 15.4598 15.7974C15.3301 15.9581 15.1828 16.2623 15.0949 16.9597ZM15.6838 12.0458C16.7918 11.7681 18.162 11.6667 19.8142 11.6667C21.4664 11.6667 22.8366 11.7681 23.9445 12.0458C25.079 12.3302 26.0576 12.8297 26.7633 13.7048C27.4504 14.5568 27.7179 15.5691 27.8406 16.5427C27.9618 17.5034 27.9623 18.6304 27.9623 19.8149C27.9623 19.853 27.9623 19.891 27.9623 19.9289C27.9625 21.0661 27.9626 22.1508 27.8522 23.076C27.7366 24.045 27.4794 25.0612 26.7962 25.9179C26.093 26.7996 25.1116 27.3002 23.9737 27.5843C22.8624 27.8618 21.4833 27.963 19.8142 27.963C18.1451 27.963 16.7659 27.8618 15.6546 27.5843C14.5168 27.3002 13.5354 26.7996 12.8322 25.9179C12.1489 25.0612 11.8918 24.045 11.7762 23.076C11.6658 22.1508 11.6659 21.0661 11.666 19.9289C11.666 19.891 11.666 19.853 11.666 19.8149C11.666 18.6304 11.6666 17.5034 11.7877 16.5427C11.9105 15.5691 12.178 14.5568 12.8651 13.7048C13.5708 12.8297 14.5494 12.3302 15.6838 12.0458Z" fill="#1476FF"/>
<path fill-rule="evenodd" clip-rule="evenodd" d="M35.464 16.9597C35.3745 17.67 35.3685 18.5686 35.3685 19.8149C35.3685 21.0671 35.3699 21.9662 35.4552 22.6812C35.5389 23.3832 35.683 23.6836 35.8074 23.8395C35.9118 23.9704 36.1444 24.1787 36.8313 24.3503C37.5449 24.5285 38.6014 24.6297 40.1833 24.6297C41.7652 24.6297 42.8217 24.5285 43.5353 24.3503C44.2223 24.1787 44.4549 23.9704 44.5593 23.8395C44.6837 23.6836 44.8277 23.3832 44.9115 22.6812C44.9968 21.9662 44.9981 21.0671 44.9981 19.8149C44.9981 18.5686 44.9922 17.67 44.9026 16.9597C44.8147 16.2623 44.6674 15.9581 44.5377 15.7974C44.4268 15.6598 44.1869 15.4505 43.5033 15.2792C42.7932 15.1012 41.7458 15.0001 40.1833 15.0001C38.6208 15.0001 37.5734 15.1012 36.8634 15.2792C36.1798 15.4505 35.9398 15.6598 35.8289 15.7974C35.6993 15.9581 35.5519 16.2623 35.464 16.9597ZM36.053 12.0458C37.1609 11.7681 38.5311 11.6667 40.1833 11.6667C41.8355 11.6667 43.2057 11.7681 44.3137 12.0458C45.4481 12.3302 46.4267 12.8297 47.1324 13.7048C47.8195 14.5568 48.087 15.5691 48.2098 16.5427C48.3309 17.5034 48.3315 18.6304 48.3315 19.8149C48.3315 19.853 48.3315 19.891 48.3315 19.9289C48.3316 21.0661 48.3317 22.1508 48.2213 23.076C48.1057 24.045 47.8486 25.0612 47.1653 25.9179C46.4621 26.7996 45.4807 27.3002 44.3429 27.5843C43.2316 27.8618 41.8524 27.963 40.1833 27.963C38.5142 27.963 37.1351 27.8618 36.0238 27.5843C34.8859 27.3002 33.9045 26.7996 33.2013 25.9179C32.5181 25.0612 32.2609 24.045 32.1453 23.076C32.0349 22.1508 32.035 21.0661 32.0352 19.9289C32.0352 19.891 32.0352 19.853 32.0352 19.8149C32.0352 18.6304 32.0357 17.5034 32.1569 16.5427C32.2796 15.5691 32.5471 14.5568 33.2342 13.7048C33.9399 12.8297 34.9185 12.3302 36.053 12.0458Z" fill="#1476FF"/>
<path fill-rule="evenodd" clip-rule="evenodd" d="M15.0949 37.3301C15.0053 38.0404 14.9994 38.939 14.9994 40.1853C14.9994 41.4374 15.0007 42.3366 15.086 43.0515C15.1698 43.7535 15.3138 44.0539 15.4382 44.2099C15.5426 44.3408 15.7752 44.5491 16.4622 44.7206C17.1758 44.8988 18.2323 45.0001 19.8142 45.0001C21.3961 45.0001 22.4526 44.8988 23.1662 44.7206C23.8531 44.5491 24.0857 44.3408 24.1901 44.2099C24.3145 44.0539 24.4586 43.7535 24.5423 43.0515C24.6276 42.3366 24.629 41.4374 24.629 40.1853C24.629 38.939 24.623 38.0404 24.5335 37.3301C24.4456 36.6327 24.2982 36.3285 24.1686 36.1677C24.0577 36.0301 23.8177 35.8209 23.1341 35.6495C22.4241 35.4716 21.3767 35.3704 19.8142 35.3704C18.2517 35.3704 17.2043 35.4716 16.4942 35.6495C15.8106 35.8209 15.5707 36.0301 15.4598 36.1677C15.3301 36.3285 15.1828 36.6327 15.0949 37.3301ZM15.6838 32.4162C16.7918 32.1385 18.162 32.0371 19.8142 32.0371C21.4664 32.0371 22.8366 32.1385 23.9445 32.4162C25.079 32.7005 26.0576 33.2001 26.7633 34.0752C27.4504 34.9271 27.7179 35.9394 27.8406 36.9131C27.9618 37.8738 27.9623 39.0008 27.9623 40.1853C27.9623 40.2233 27.9623 40.2613 27.9623 40.2993C27.9625 41.4364 27.9626 42.5211 27.8522 43.4464C27.7366 44.4154 27.4794 45.4315 26.7962 46.2882C26.093 47.17 25.1116 47.6705 23.9737 47.9547C22.8624 48.2322 21.4833 48.3334 19.8142 48.3334C18.1451 48.3334 16.7659 48.2322 15.6546 47.9547C14.5168 47.6705 13.5354 47.17 12.8322 46.2882C12.1489 45.4315 11.8918 44.4154 11.7762 43.4464C11.6658 42.5211 11.6659 41.4364 11.666 40.2993C11.666 40.2613 11.666 40.2233 11.666 40.1853C11.666 39.0008 11.6666 37.8738 11.7877 36.9131C11.9105 35.9394 12.178 34.9271 12.8651 34.0752C13.5708 33.2001 14.5494 32.7005 15.6838 32.4162Z" fill="#1476FF"/>
<path fill-rule="evenodd" clip-rule="evenodd" d="M35.464 37.3301C35.3745 38.0404 35.3685 38.939 35.3685 40.1853C35.3685 41.4374 35.3699 42.3366 35.4552 43.0515C35.5389 43.7535 35.683 44.0539 35.8074 44.2099C35.9118 44.3408 36.1444 44.5491 36.8313 44.7206C37.5449 44.8988 38.6014 45.0001 40.1833 45.0001C41.7652 45.0001 42.8217 44.8988 43.5353 44.7206C44.2223 44.5491 44.4549 44.3408 44.5593 44.2099C44.6837 44.0539 44.8277 43.7535 44.9115 43.0515C44.9968 42.3366 44.9981 41.4374 44.9981 40.1853C44.9981 38.939 44.9922 38.0404 44.9026 37.3301C44.8147 36.6327 44.6674 36.3285 44.5377 36.1677C44.4268 36.0301 44.1869 35.8209 43.5033 35.6495C42.7932 35.4716 41.7458 35.3704 40.1833 35.3704C38.6208 35.3704 37.5734 35.4716 36.8634 35.6495C36.1798 35.8209 35.9398 36.0301 35.8289 36.1677C35.6993 36.3285 35.5519 36.6327 35.464 37.3301ZM36.053 32.4162C37.1609 32.1385 38.5311 32.0371 40.1833 32.0371C41.8355 32.0371 43.2057 32.1385 44.3137 32.4162C45.4481 32.7005 46.4267 33.2001 47.1324 34.0752C47.8195 34.9271 48.087 35.9394 48.2098 36.9131C48.3309 37.8738 48.3315 39.0008 48.3315 40.1853C48.3315 40.2233 48.3315 40.2613 48.3315 40.2993C48.3316 41.4364 48.3317 42.5211 48.2213 43.4464C48.1057 44.4154 47.8486 45.4315 47.1653 46.2882C46.4621 47.17 45.4807 47.6705 44.3429 47.9547C43.2316 48.2322 41.8524 48.3334 40.1833 48.3334C38.5142 48.3334 37.1351 48.2322 36.0238 47.9547C34.8859 47.6705 33.9045 47.17 33.2013 46.2882C32.5181 45.4315 32.2609 44.4154 32.1453 43.4464C32.0349 42.5211 32.035 41.4364 32.0352 40.2993C32.0352 40.2613 32.0352 40.2233 32.0352 40.1853C32.0352 39.0008 32.0357 37.8738 32.1569 36.9131C32.2796 35.9394 32.5471 34.9271 33.2342 34.0752C33.9399 33.2001 34.9185 32.7005 36.053 32.4162Z" fill="#1476FF"/>
</svg>
