<svg width="64" height="64" viewBox="0 0 64 64" fill="none" xmlns="http://www.w3.org/2000/svg">
<path d="M31.1727 53.8774C31.6812 53.5705 32.3178 53.5705 32.8263 53.8774L51.6532 65.2408C52.8649 65.9722 54.3597 64.8857 54.0381 63.5074L49.0413 42.0927C48.9064 41.5143 49.1029 40.9087 49.5518 40.5198L66.1872 26.1089C67.257 25.1822 66.6851 23.4249 65.2748 23.3053L43.3735 21.4478C42.7821 21.3976 42.2671 21.0243 42.0355 20.4779L33.4726 0.275381C32.9213 -1.02543 31.0777 -1.02543 30.5263 0.275382L21.9634 20.4779C21.7318 21.0243 21.2168 21.3976 20.6255 21.4478L-1.27586 23.3053C-2.68618 23.4249 -3.25806 25.1822 -2.18827 26.1089L14.4471 40.5198C14.896 40.9087 15.0926 41.5143 14.9576 42.0927L9.96087 63.5074C9.63926 64.8857 11.1341 65.9722 12.3458 65.2408L31.1727 53.8774Z" fill="#1476FF"/>
</svg>
