<svg width="220" height="218" viewBox="0 0 220 218" fill="none" xmlns="http://www.w3.org/2000/svg">
<path d="M106.229 1.41186C108.528 -0.0585601 111.472 -0.0585579 113.771 1.41186L128.554 10.8655C129.983 11.7793 131.695 12.1433 133.372 11.8896L150.721 9.26584C153.42 8.85774 156.11 10.0553 157.612 12.3337L167.271 26.9827C168.205 28.3987 169.621 29.4275 171.256 29.8779L188.173 34.5377C190.804 35.2625 192.774 37.4504 193.22 40.143L196.086 57.4543C196.363 59.1276 197.238 60.6435 198.549 61.72L212.108 72.8576C214.217 74.59 215.127 77.3901 214.439 80.0312L210.016 97.0115C209.588 98.6528 209.771 100.394 210.531 101.91L218.387 117.6C219.61 120.04 219.302 122.968 217.599 125.101L206.652 138.815C205.594 140.14 205.053 141.805 205.13 143.499L205.926 161.028C206.05 163.754 204.577 166.304 202.154 167.56L186.576 175.635C185.07 176.416 183.899 177.717 183.28 179.296L176.878 195.633C175.882 198.174 173.5 199.905 170.775 200.066L153.259 201.107C151.566 201.208 149.967 201.92 148.76 203.111L136.266 215.431C134.322 217.347 131.443 217.96 128.888 216.999L112.463 210.826C110.875 210.229 109.125 210.229 107.537 210.826L91.1122 216.999C88.5575 217.96 85.6776 217.347 83.7343 215.431L71.2404 203.111C70.0327 201.92 68.4337 201.208 66.7406 201.107L49.2246 200.066C46.5002 199.905 44.1182 198.174 43.1224 195.633L36.7199 179.296C36.101 177.717 34.9298 176.416 33.4239 175.635L17.8456 167.56C15.4225 166.304 13.9504 163.754 14.0742 161.028L14.8701 143.499C14.947 141.805 14.4062 140.14 13.348 138.815L2.40094 125.101C0.698236 122.968 0.390478 120.04 1.6125 117.6L9.46918 101.91C10.2286 100.394 10.4116 98.6528 9.98406 97.0115L5.56112 80.0312C4.87318 77.3901 5.783 74.59 7.89196 72.8576L21.4509 61.72C22.7616 60.6434 23.6368 59.1276 23.9138 57.4543L26.7798 40.143C27.2255 37.4504 29.1956 35.2625 31.8268 34.5377L48.7436 29.8779C50.3789 29.4275 51.7949 28.3987 52.7286 26.9827L62.3879 12.3337C63.8903 10.0553 66.58 8.85774 69.2785 9.26584L86.6281 11.8896C88.3052 12.1433 90.0173 11.7793 91.4462 10.8655L106.229 1.41186Z" fill="#1476FF"/>
</svg>
