<svg width="16" height="13" viewBox="0 0 16 13" fill="none" xmlns="http://www.w3.org/2000/svg">
<path d="M10.4224 0.402496V0.399902H11.0976L11.3443 0.449176C11.5088 0.481165 11.6581 0.523086 11.7923 0.574953C11.9265 0.62682 12.0563 0.687336 12.1818 0.756487C12.3074 0.825639 12.4212 0.8961 12.5234 0.967845C12.6246 1.03873 12.7155 1.11394 12.796 1.19347C12.8757 1.27386 12.9999 1.29461 13.1687 1.25571C13.3375 1.21681 13.5193 1.16277 13.714 1.09362C13.9088 1.02447 14.1014 0.94667 14.2919 0.860221C14.4823 0.773772 14.5983 0.718884 14.6399 0.695544C14.6805 0.671348 14.7022 0.658381 14.7048 0.656644L14.7074 0.652754L14.7203 0.64627L14.7333 0.639787L14.7463 0.633303L14.7593 0.62682L14.7619 0.62293L14.7658 0.620337L14.7697 0.617743L14.7723 0.613853L14.7853 0.609963L14.7983 0.60737L14.7957 0.62682L14.7918 0.64627L14.7853 0.66572L14.7788 0.68517L14.7723 0.698137L14.7658 0.711104L14.7593 0.730554C14.755 0.743521 14.7507 0.760805 14.7463 0.782421C14.742 0.804036 14.7009 0.890473 14.623 1.04176C14.5451 1.19304 14.4477 1.34647 14.3308 1.50207C14.2139 1.65767 14.1092 1.77523 14.0166 1.85477C13.9231 1.93516 13.8612 1.99135 13.8309 2.02334C13.8006 2.05618 13.7638 2.08643 13.7205 2.1141L13.6556 2.15689L13.6426 2.16338L13.6296 2.16986L13.6271 2.17375L13.6231 2.17634L13.6192 2.17894L13.6167 2.18283L13.6037 2.18931L13.5907 2.19579L13.5881 2.19968L13.5842 2.20228L13.5803 2.20487L13.5777 2.20876L13.5751 2.21265L13.5712 2.21524L13.5673 2.21784L13.5647 2.22173H13.6296L13.9932 2.14393C14.2356 2.09206 14.4671 2.02939 14.6879 1.95591L15.0385 1.83921L15.0774 1.82624L15.0969 1.81976L15.1099 1.81328L15.1229 1.80679L15.1359 1.80031L15.1488 1.79383L15.1748 1.78994L15.2008 1.78734V1.81328L15.1943 1.81587L15.1878 1.81976L15.1852 1.82365L15.1813 1.82624L15.1774 1.82884L15.1748 1.83273L15.1722 1.83662L15.1683 1.83921L15.1644 1.8418L15.1618 1.84569L15.1592 1.84958L15.1553 1.85218L15.1488 1.86514L15.1424 1.87811L15.1385 1.8807C15.1367 1.8833 15.0818 1.95677 14.9736 2.10114C14.8653 2.24636 14.8069 2.31983 14.7983 2.32157C14.7896 2.32416 14.7775 2.33713 14.7619 2.36047C14.7472 2.38467 14.6554 2.48106 14.4866 2.64963C14.3178 2.8182 14.1525 2.96817 13.9906 3.09957C13.8279 3.23184 13.7456 3.39435 13.7439 3.58712C13.7413 3.77903 13.7314 3.99602 13.714 4.23805C13.6967 4.4801 13.6643 4.74159 13.6167 5.02254C13.5691 5.30349 13.4955 5.62118 13.3959 5.97559C13.2964 6.33001 13.1752 6.6758 13.0323 7.01293C12.8895 7.35007 12.7402 7.65262 12.5844 7.9206C12.4286 8.18859 12.2857 8.41551 12.1559 8.60136C12.026 8.78721 11.894 8.96226 11.7598 9.12651C11.6257 9.29076 11.456 9.47575 11.2509 9.68149C11.0448 9.88636 10.9323 9.99874 10.9133 10.0186C10.8934 10.0376 10.8085 10.1085 10.6587 10.2313C10.5099 10.3549 10.3497 10.4785 10.1783 10.6021C10.0078 10.7249 9.8511 10.8273 9.70827 10.9094C9.56543 10.9916 9.39318 11.0853 9.19148 11.1908C8.99065 11.2971 8.77337 11.3957 8.53965 11.4865C8.30592 11.5772 8.05921 11.6615 7.79952 11.7393C7.53983 11.8171 7.28879 11.8776 7.04641 11.9208C6.80404 11.9641 6.52919 12.0008 6.22188 12.0311L5.76093 12.0764V12.0829H4.91692V12.0764L4.80655 12.07C4.73298 12.0656 4.67238 12.0613 4.62477 12.057C4.57717 12.0527 4.39754 12.0289 4.0859 11.9857C3.77427 11.9425 3.52973 11.8992 3.35227 11.856C3.17482 11.8128 2.91079 11.7307 2.5602 11.6096C2.20962 11.4886 1.90967 11.3663 1.66037 11.2427C1.41193 11.1199 1.25611 11.0421 1.19292 11.0093C1.13059 10.9773 1.06047 10.9375 0.982567 10.89L0.865705 10.8187L0.863121 10.8148L0.859212 10.8122L0.855317 10.8096L0.85272 10.8057L0.839735 10.7992L0.826751 10.7927L0.824167 10.7888L0.820258 10.7863L0.816363 10.7837L0.813766 10.7798L0.811182 10.7759L0.807274 10.7733H0.800781V10.7474L0.813766 10.7499L0.826751 10.7538L0.885182 10.7603C0.924136 10.7646 1.03018 10.7711 1.20331 10.7798C1.37644 10.7884 1.56038 10.7884 1.75515 10.7798C1.94992 10.7711 2.14903 10.7517 2.35245 10.7214C2.55588 10.6912 2.7961 10.6393 3.0731 10.5658C3.35011 10.4923 3.60461 10.405 3.83661 10.3039C4.06774 10.2019 4.2322 10.1258 4.33003 10.0757C4.42697 10.0264 4.575 9.93476 4.77409 9.80078L5.07274 9.5998L5.07534 9.59591L5.07923 9.59331L5.08314 9.59072L5.08572 9.58683L5.08832 9.58294L5.09222 9.58035L5.09612 9.57775L5.09871 9.57386L5.11169 9.56997L5.12468 9.56738L5.12727 9.55441L5.13117 9.54144L5.13508 9.53885L5.13766 9.53496L5.03378 9.52848C4.96454 9.52416 4.89745 9.51983 4.83252 9.51551C4.7676 9.51119 4.66589 9.49174 4.52738 9.45716C4.38889 9.42258 4.23956 9.37071 4.07941 9.30156C3.91927 9.23241 3.76345 9.15028 3.61196 9.05519C3.46048 8.96011 3.35097 8.881 3.28345 8.8179C3.2168 8.75565 3.13023 8.66749 3.02376 8.55338C2.91815 8.43842 2.82639 8.32041 2.74848 8.19939C2.67057 8.07837 2.59613 7.93874 2.52516 7.78056L2.41737 7.54457L2.41088 7.52512L2.40439 7.50567L2.40049 7.4927L2.3979 7.47974L2.41737 7.48233L2.43685 7.48622L2.57968 7.50567C2.67491 7.51864 2.82423 7.52295 3.02765 7.51864C3.23108 7.51432 3.37175 7.50567 3.44965 7.4927C3.52756 7.47974 3.57518 7.47109 3.59249 7.46677L3.61845 7.46029L3.65092 7.4538L3.68338 7.44732L3.68598 7.44343L3.68987 7.44083L3.69378 7.43824L3.69636 7.43435L3.67039 7.42787L3.64442 7.42138L3.61845 7.4149L3.59249 7.40842L3.56652 7.40194C3.54921 7.39762 3.51891 7.38897 3.47562 7.376C3.43235 7.36303 3.31548 7.31549 3.12504 7.23337C2.9346 7.15125 2.78311 7.07128 2.67057 6.99348C2.55776 6.91546 2.45019 6.83013 2.34855 6.73804C2.24727 6.64468 2.13605 6.52452 2.01485 6.37756C1.89366 6.23061 1.78546 6.05988 1.69023 5.86538C1.59501 5.67088 1.5236 5.48502 1.47598 5.30781C1.42856 5.13163 1.39727 4.95152 1.38251 4.76969L1.35912 4.49739L1.37211 4.49998L1.38509 4.50387L1.39808 4.51035L1.41106 4.51684L1.42405 4.52332L1.43703 4.5298L1.63829 4.62057C1.77248 4.68109 1.93911 4.73295 2.1382 4.77617C2.33731 4.81939 2.45633 4.84317 2.49528 4.84749L2.55371 4.85397H2.67057L2.66799 4.85008L2.66408 4.84749L2.66019 4.8449L2.65759 4.84101L2.65501 4.83712L2.6511 4.83452L2.6472 4.83193L2.6446 4.82804L2.63162 4.82156L2.61864 4.81507L2.61605 4.81118L2.61214 4.80859L2.60825 4.806L2.60565 4.80211L2.59267 4.79562L2.57968 4.78914L2.5771 4.78525C2.5745 4.78351 2.53727 4.75585 2.46542 4.70226C2.39443 4.6478 2.31999 4.57735 2.24208 4.4909C2.16417 4.40446 2.08626 4.31369 2.00836 4.2186C1.9303 4.1233 1.86079 4.02134 1.8006 3.91389C1.74001 3.80583 1.67595 3.66837 1.60843 3.50154C1.54178 3.33557 1.49114 3.1683 1.45651 2.99973C1.42189 2.83116 1.40241 2.66476 1.39808 2.50051C1.39375 2.33626 1.39808 2.19579 1.41106 2.07909C1.42405 1.96239 1.45001 1.83056 1.48897 1.68361C1.52792 1.53666 1.5842 1.38106 1.65777 1.21681L1.76814 0.970438L1.77463 0.950988L1.78112 0.931538L1.78503 0.928945L1.78762 0.925055L1.79021 0.921165L1.79411 0.918571L1.79802 0.921165L1.8006 0.925055L1.8032 0.928945L1.80709 0.931538L1.811 0.934132L1.81359 0.938021L1.81618 0.941912L1.82008 0.944505L1.82657 0.957472L1.83306 0.970438L1.83697 0.973032L1.83956 0.976922L2.01485 1.17142C2.13171 1.30109 2.27022 1.44589 2.43036 1.60581C2.59051 1.76573 2.67923 1.84871 2.69654 1.85477C2.71386 1.86168 2.7355 1.88156 2.76147 1.91442C2.78744 1.94641 2.874 2.02291 3.02116 2.14393C3.16833 2.26495 3.36093 2.40543 3.59898 2.56535C3.83704 2.72526 4.10106 2.88303 4.39104 3.03863C4.68104 3.19423 4.99267 3.3347 5.32594 3.46005C5.65922 3.5854 5.89294 3.66752 6.02711 3.70642C6.16129 3.74532 6.39068 3.79502 6.7153 3.85554C7.03992 3.91605 7.28447 3.95495 7.44893 3.97224C7.61341 3.98952 7.72595 3.99947 7.78653 4.00206L7.87743 4.00465L7.87484 3.9852L7.87093 3.96575L7.84497 3.80367C7.82766 3.69562 7.819 3.54433 7.819 3.34983C7.819 3.15533 7.83415 2.97596 7.86444 2.81171C7.89475 2.64746 7.9402 2.48106 8.00078 2.31249C8.06138 2.14393 8.12068 2.00863 8.17867 1.90664C8.23754 1.8055 8.31458 1.69009 8.4098 1.56042C8.50503 1.43076 8.62838 1.29677 8.77986 1.15846C8.93135 1.02014 9.10448 0.896956 9.29925 0.788904C9.49402 0.680852 9.67365 0.598721 9.83811 0.542536C10.0026 0.486352 10.1411 0.449604 10.2536 0.432319C10.3662 0.415035 10.4224 0.405089 10.4224 0.402496Z" fill="white"/>
</svg>
