<svg width="16" height="13" viewBox="0 0 16 13" fill="none" xmlns="http://www.w3.org/2000/svg">
<path d="M10.4216 0.402496V0.399902H11.0968L11.3435 0.449176C11.508 0.481165 11.6573 0.523086 11.7915 0.574953C11.9256 0.62682 12.0555 0.687336 12.181 0.756487C12.3065 0.825639 12.4204 0.8961 12.5225 0.967845C12.6238 1.03873 12.7147 1.11394 12.7952 1.19347C12.8748 1.27386 12.999 1.29461 13.1678 1.25571C13.3366 1.21681 13.5184 1.16277 13.7132 1.09362C13.908 1.02447 14.1006 0.94667 14.291 0.860221C14.4814 0.773772 14.5975 0.718884 14.639 0.695544C14.6797 0.671348 14.7013 0.658381 14.7039 0.656644L14.7065 0.652754L14.7195 0.64627L14.7325 0.639787L14.7455 0.633303L14.7584 0.62682L14.761 0.62293L14.7649 0.620337L14.7688 0.617743L14.7714 0.613853L14.7844 0.609963L14.7974 0.60737L14.7948 0.62682L14.7909 0.64627L14.7844 0.66572L14.7779 0.68517L14.7714 0.698137L14.7649 0.711104L14.7584 0.730554C14.7541 0.743521 14.7498 0.760805 14.7455 0.782421C14.7411 0.804036 14.7 0.890473 14.6221 1.04176C14.5442 1.19304 14.4468 1.34647 14.33 1.50207C14.2131 1.65767 14.1084 1.77523 14.0157 1.85477C13.9222 1.93516 13.8604 1.99135 13.83 2.02334C13.7998 2.05618 13.763 2.08643 13.7197 2.1141L13.6548 2.15689L13.6418 2.16338L13.6288 2.16986L13.6262 2.17375L13.6223 2.17634L13.6184 2.17894L13.6158 2.18283L13.6028 2.18931L13.5898 2.19579L13.5872 2.19968L13.5833 2.20228L13.5794 2.20487L13.5768 2.20876L13.5743 2.21265L13.5704 2.21524L13.5665 2.21784L13.5639 2.22173H13.6288L13.9924 2.14393C14.2347 2.09206 14.4663 2.02939 14.687 1.95591L15.0376 1.83921L15.0766 1.82624L15.0961 1.81976L15.109 1.81328L15.122 1.80679L15.135 1.80031L15.148 1.79383L15.174 1.78994L15.1999 1.78734V1.81328L15.1934 1.81587L15.1869 1.81976L15.1844 1.82365L15.1805 1.82624L15.1766 1.82884L15.174 1.83273L15.1714 1.83662L15.1675 1.83921L15.1636 1.8418L15.161 1.84569L15.1584 1.84958L15.1545 1.85218L15.148 1.86514L15.1415 1.87811L15.1376 1.8807C15.1359 1.8833 15.0809 1.95677 14.9727 2.10114C14.8645 2.24636 14.8061 2.31983 14.7974 2.32157C14.7888 2.32416 14.7766 2.33713 14.761 2.36047C14.7463 2.38467 14.6546 2.48106 14.4858 2.64963C14.317 2.8182 14.1516 2.96817 13.9898 3.09957C13.827 3.23184 13.7448 3.39435 13.7431 3.58712C13.7405 3.77903 13.7305 3.99602 13.7132 4.23805C13.6959 4.4801 13.6634 4.74159 13.6158 5.02254C13.5682 5.30349 13.4946 5.62118 13.3951 5.97559C13.2955 6.33001 13.1743 6.6758 13.0315 7.01293C12.8887 7.35007 12.7393 7.65262 12.5835 7.9206C12.4277 8.18859 12.2849 8.41551 12.155 8.60136C12.0252 8.78721 11.8932 8.96226 11.759 9.12651C11.6248 9.29076 11.4552 9.47575 11.25 9.68149C11.044 9.88636 10.9315 9.99874 10.9124 10.0186C10.8925 10.0376 10.8077 10.1085 10.6579 10.2313C10.509 10.3549 10.3489 10.4785 10.1775 10.6021C10.0069 10.7249 9.85024 10.8273 9.70741 10.9094C9.56458 10.9916 9.39233 11.0853 9.19062 11.1908C8.9898 11.2971 8.77252 11.3957 8.53879 11.4865C8.30507 11.5772 8.05836 11.6615 7.79866 11.7393C7.53897 11.8171 7.28794 11.8776 7.04555 11.9208C6.80318 11.9641 6.52834 12.0008 6.22103 12.0311L5.76007 12.0764V12.0829H4.91607V12.0764L4.8057 12.07C4.73213 12.0656 4.67153 12.0613 4.62391 12.057C4.57631 12.0527 4.39668 12.0289 4.08505 11.9857C3.77342 11.9425 3.52888 11.8992 3.35141 11.856C3.17397 11.8128 2.90994 11.7307 2.55935 11.6096C2.20876 11.4886 1.90882 11.3663 1.65951 11.2427C1.41108 11.1199 1.25526 11.0421 1.19206 11.0093C1.12974 10.9773 1.05962 10.9375 0.981712 10.89L0.86485 10.8187L0.862266 10.8148L0.858358 10.8122L0.854462 10.8096L0.851865 10.8057L0.838881 10.7992L0.825896 10.7927L0.823312 10.7888L0.819404 10.7863L0.815508 10.7837L0.812911 10.7798L0.810327 10.7759L0.806419 10.7733H0.799927V10.7474L0.812911 10.7499L0.825896 10.7538L0.884327 10.7603C0.923281 10.7646 1.02933 10.7711 1.20245 10.7798C1.37559 10.7884 1.55953 10.7884 1.7543 10.7798C1.94907 10.7711 2.14818 10.7517 2.3516 10.7214C2.55503 10.6912 2.79524 10.6393 3.07224 10.5658C3.34926 10.4923 3.60376 10.405 3.83576 10.3039C4.06688 10.2019 4.23135 10.1258 4.32917 10.0757C4.42612 10.0264 4.57414 9.93476 4.77324 9.80078L5.07188 9.5998L5.07448 9.59591L5.07838 9.59331L5.08228 9.59072L5.08487 9.58683L5.08747 9.58294L5.09136 9.58035L5.09527 9.57775L5.09785 9.57386L5.11084 9.56997L5.12382 9.56738L5.12642 9.55441L5.13031 9.54144L5.13422 9.53885L5.13681 9.53496L5.03293 9.52848C4.96368 9.52416 4.89659 9.51983 4.83167 9.51551C4.76674 9.51119 4.66504 9.49174 4.52653 9.45716C4.38803 9.42258 4.23871 9.37071 4.07856 9.30156C3.91842 9.23241 3.7626 9.15028 3.61111 9.05519C3.45963 8.96011 3.35012 8.881 3.2826 8.8179C3.21595 8.75565 3.12938 8.66749 3.0229 8.55338C2.9173 8.43842 2.82554 8.32041 2.74763 8.19939C2.66972 8.07837 2.59528 7.93874 2.5243 7.78056L2.41652 7.54457L2.41003 7.52512L2.40353 7.50567L2.39964 7.4927L2.39704 7.47974L2.41652 7.48233L2.436 7.48622L2.57883 7.50567C2.67406 7.51864 2.82338 7.52295 3.0268 7.51864C3.23023 7.51432 3.37089 7.50567 3.4488 7.4927C3.52671 7.47974 3.57432 7.47109 3.59163 7.46677L3.6176 7.46029L3.65006 7.4538L3.68252 7.44732L3.68512 7.44343L3.68902 7.44083L3.69292 7.43824L3.69551 7.43435L3.66954 7.42787L3.64357 7.42138L3.6176 7.4149L3.59163 7.40842L3.56566 7.40194C3.54835 7.39762 3.51806 7.38897 3.47477 7.376C3.43149 7.36303 3.31463 7.31549 3.12418 7.23337C2.93375 7.15125 2.78226 7.07128 2.66972 6.99348C2.5569 6.91546 2.44933 6.83013 2.3477 6.73804C2.24642 6.64468 2.13519 6.52452 2.01399 6.37756C1.89281 6.23061 1.78461 6.05988 1.68938 5.86538C1.59416 5.67088 1.52274 5.48502 1.47513 5.30781C1.42771 5.13163 1.39642 4.95152 1.38165 4.76969L1.35827 4.49739L1.37125 4.49998L1.38424 4.50387L1.39722 4.51035L1.41021 4.51684L1.42319 4.52332L1.43618 4.5298L1.63744 4.62057C1.77162 4.68109 1.93825 4.73295 2.13735 4.77617C2.33645 4.81939 2.45547 4.84317 2.49443 4.84749L2.55286 4.85397H2.66972L2.66714 4.85008L2.66323 4.84749L2.65933 4.8449L2.65673 4.84101L2.65415 4.83712L2.65024 4.83452L2.64635 4.83193L2.64375 4.82804L2.63077 4.82156L2.61778 4.81507L2.6152 4.81118L2.61129 4.80859L2.60739 4.806L2.6048 4.80211L2.59181 4.79562L2.57883 4.78914L2.57624 4.78525C2.57365 4.78351 2.53642 4.75585 2.46456 4.70226C2.39357 4.6478 2.31913 4.57735 2.24123 4.4909C2.16332 4.40446 2.08541 4.31369 2.0075 4.2186C1.92945 4.1233 1.85993 4.02134 1.79975 3.91389C1.73916 3.80583 1.67509 3.66837 1.60757 3.50154C1.54092 3.33557 1.49028 3.1683 1.45565 2.99973C1.42104 2.83116 1.40156 2.66476 1.39722 2.50051C1.3929 2.33626 1.39722 2.19579 1.41021 2.07909C1.42319 1.96239 1.44916 1.83056 1.48811 1.68361C1.52707 1.53666 1.58334 1.38106 1.65692 1.21681L1.76728 0.970438L1.77378 0.950988L1.78027 0.931538L1.78418 0.928945L1.78676 0.925055L1.78936 0.921165L1.79325 0.918571L1.79716 0.921165L1.79975 0.925055L1.80234 0.928945L1.80624 0.931538L1.81015 0.934132L1.81273 0.938021L1.81533 0.941912L1.81922 0.944505L1.82572 0.957472L1.83221 0.970438L1.83612 0.973032L1.8387 0.976922L2.01399 1.17142C2.13086 1.30109 2.26936 1.44589 2.4295 1.60581C2.58966 1.76573 2.67838 1.84871 2.69569 1.85477C2.71301 1.86168 2.73464 1.88156 2.76061 1.91442C2.78658 1.94641 2.87315 2.02291 3.02031 2.14393C3.16747 2.26495 3.36008 2.40543 3.59812 2.56535C3.83618 2.72526 4.1002 2.88303 4.39019 3.03863C4.68019 3.19423 4.99182 3.3347 5.32508 3.46005C5.65836 3.5854 5.89209 3.66752 6.02626 3.70642C6.16044 3.74532 6.38983 3.79502 6.71444 3.85554C7.03906 3.91605 7.28361 3.95495 7.44808 3.97224C7.61256 3.98952 7.72509 3.99947 7.78568 4.00206L7.87657 4.00465L7.87399 3.9852L7.87008 3.96575L7.84411 3.80367C7.8268 3.69562 7.81814 3.54433 7.81814 3.34983C7.81814 3.15533 7.83329 2.97596 7.86359 2.81171C7.89389 2.64746 7.93934 2.48106 7.99993 2.31249C8.06053 2.14393 8.11983 2.00863 8.17782 1.90664C8.23669 1.8055 8.31373 1.69009 8.40894 1.56042C8.50417 1.43076 8.62753 1.29677 8.77901 1.15846C8.9305 1.02014 9.10362 0.896956 9.29839 0.788904C9.49316 0.680852 9.67279 0.598721 9.83726 0.542536C10.0017 0.486352 10.1402 0.449604 10.2528 0.432319C10.3653 0.415035 10.4216 0.405089 10.4216 0.402496Z" fill="white"/>
</svg>
