<svg width="38" height="32" viewBox="0 0 38 32" fill="none" xmlns="http://www.w3.org/2000/svg">
<g filter="url(#filter0_d_2946_31279)">
<path d="M23.4785 0.0052501V0H24.8454L25.3449 0.0997518C25.6779 0.164512 25.9802 0.24938 26.2518 0.354382C26.5234 0.459383 26.7863 0.581895 27.0404 0.721888C27.2945 0.861882 27.525 1.00453 27.7318 1.14977C27.9368 1.29328 28.1208 1.44554 28.2838 1.60653C28.445 1.76928 28.6965 1.81128 29.0382 1.73253C29.3799 1.65378 29.7479 1.54439 30.1422 1.4044C30.5365 1.26441 30.9265 1.1069 31.312 0.931892C31.6976 0.75688 31.9324 0.645762 32.0165 0.598511C32.0989 0.549528 32.1427 0.523277 32.1479 0.51976L32.1532 0.511884L32.1795 0.498759L32.2058 0.485634L32.232 0.472509L32.2583 0.459383L32.2636 0.451508L32.2715 0.446258L32.2794 0.441008L32.2846 0.433133L32.3109 0.425258L32.3372 0.420008L32.332 0.459383L32.324 0.498759L32.3109 0.538135L32.2978 0.577511L32.2846 0.603761L32.2715 0.630012L32.2583 0.669387C32.2496 0.695638 32.2408 0.73063 32.232 0.774389C32.2233 0.818149 32.14 0.993135 31.9823 1.2994C31.8246 1.60566 31.6274 1.91629 31.3909 2.23129C31.1543 2.5463 30.9423 2.78428 30.7547 2.9453C30.5655 3.10806 30.4402 3.2218 30.3788 3.28656C30.3175 3.35305 30.243 3.4143 30.1554 3.47031L30.0239 3.55694L29.9977 3.57007L29.9714 3.58319L29.9661 3.59107L29.9582 3.59632L29.9503 3.60157L29.9451 3.60944L29.9188 3.62257L29.8925 3.63569L29.8873 3.64357L29.8794 3.64882L29.8715 3.65407L29.8662 3.66194L29.861 3.66982L29.8531 3.67507L29.8452 3.68032L29.8399 3.68819H29.9714L30.7074 3.53069C31.1981 3.42569 31.6669 3.29882 32.1138 3.15006L32.8235 2.9138L32.9024 2.88755L32.9418 2.87443L32.9681 2.8613L32.9944 2.84818L33.0206 2.83505L33.0469 2.82193L33.0995 2.81405L33.1521 2.8088V2.8613L33.1389 2.86655L33.1258 2.87443L33.1206 2.8823L33.1126 2.88755L33.1048 2.8928L33.0995 2.90068L33.0943 2.90855L33.0864 2.9138L33.0785 2.91905L33.0732 2.92693L33.068 2.9348L33.0601 2.94005L33.0469 2.9663L33.0338 2.99256L33.0259 2.99781C33.0224 3.00306 32.9111 3.15179 32.6921 3.44406C32.473 3.73807 32.3547 3.8868 32.3372 3.89032C32.3197 3.89557 32.2951 3.92182 32.2636 3.96907C32.2338 4.01806 32.048 4.2132 31.7063 4.55446C31.3646 4.89572 31.0299 5.19933 30.7022 5.46535C30.3727 5.73311 30.2062 6.0621 30.2027 6.45237C30.1975 6.84088 30.1773 7.28015 30.1422 7.77014C30.1072 8.26016 30.0415 8.78953 29.9451 9.3583C29.8487 9.92707 29.6998 10.5702 29.4982 11.2877C29.2967 12.0052 29.0513 12.7052 28.7622 13.3877C28.473 14.0703 28.1707 14.6828 27.8553 15.2253C27.5398 15.7678 27.2507 16.2272 26.9878 16.6034C26.725 16.9797 26.4577 17.3341 26.1861 17.6666C25.9145 17.9991 25.571 18.3736 25.1557 18.7901C24.7386 19.2049 24.5108 19.4324 24.4722 19.4726C24.4319 19.5111 24.2602 19.6546 23.957 19.9031C23.6555 20.1534 23.3313 20.4036 22.9843 20.6539C22.6391 20.9024 22.3219 21.1098 22.0328 21.276C21.7436 21.4423 21.3949 21.6321 20.9865 21.8457C20.58 22.0609 20.1401 22.2604 19.6669 22.4442C19.1938 22.6279 18.6943 22.7985 18.1686 22.956C17.6429 23.1136 17.1347 23.2361 16.644 23.3236C16.1533 23.411 15.5969 23.4854 14.9747 23.5467L14.0416 23.6386V23.6517H12.3329V23.6386L12.1095 23.6254C11.9605 23.6167 11.8379 23.6079 11.7415 23.5992C11.6451 23.5904 11.2814 23.5423 10.6506 23.4548C10.0197 23.3673 9.52462 23.2798 9.16536 23.1923C8.80612 23.1048 8.27161 22.9385 7.56186 22.6935C6.85212 22.4485 6.24489 22.2009 5.74019 21.9507C5.23724 21.7021 4.9218 21.5446 4.79386 21.4781C4.66769 21.4134 4.52574 21.3329 4.36802 21.2366L4.13143 21.0923L4.1262 21.0844L4.11829 21.0791L4.1104 21.0739L4.10515 21.066L4.07886 21.0529L4.05257 21.0398L4.04734 21.0319L4.03943 21.0266L4.03154 21.0214L4.02629 21.0135L4.02106 21.0056L4.01314 21.0004H4V20.9479L4.02629 20.9531L4.05257 20.961L4.17086 20.9741C4.24972 20.9829 4.46441 20.996 4.81489 21.0135C5.1654 21.031 5.53778 21.031 5.93208 21.0135C6.32638 20.996 6.72947 20.9566 7.14127 20.8954C7.55311 20.8341 8.03942 20.7291 8.60019 20.5804C9.161 20.4316 9.67622 20.2549 10.1459 20.0501C10.6138 19.8436 10.9467 19.6896 11.1448 19.5881C11.341 19.4884 11.6407 19.3028 12.0438 19.0316L12.6484 18.6247L12.6536 18.6168L12.6615 18.6116L12.6694 18.6063L12.6746 18.5985L12.6799 18.5906L12.6878 18.5853L12.6957 18.5801L12.7009 18.5722L12.7272 18.5643L12.7535 18.5591L12.7588 18.5328L12.7667 18.5066L12.7746 18.5013L12.7798 18.4935L12.5695 18.4803C12.4293 18.4716 12.2935 18.4628 12.1621 18.4541C12.0306 18.4454 11.8247 18.406 11.5443 18.336C11.2639 18.266 10.9616 18.161 10.6374 18.021C10.3132 17.881 9.99778 17.7147 9.6911 17.5222C9.38443 17.3297 9.16273 17.1695 9.02604 17.0418C8.89111 16.9158 8.71585 16.7373 8.5003 16.5063C8.28651 16.2736 8.10074 16.0347 7.94302 15.7897C7.7853 15.5447 7.6346 15.262 7.49092 14.9418L7.27271 14.464L7.25957 14.4246L7.24642 14.3853L7.23854 14.359L7.23328 14.3328L7.27271 14.338L7.31214 14.3459L7.60129 14.3853C7.79408 14.4115 8.09638 14.4203 8.50819 14.4115C8.92002 14.4028 9.20479 14.3853 9.36251 14.359C9.52023 14.3328 9.61663 14.3153 9.65167 14.3065L9.70424 14.2934L9.76996 14.2803L9.83567 14.2671L9.84093 14.2593L9.84882 14.254L9.85673 14.2488L9.86196 14.2409L9.80939 14.2278L9.75681 14.2146L9.70424 14.2015L9.65167 14.1884L9.59909 14.1753C9.56405 14.1665 9.50272 14.149 9.41508 14.1228C9.32747 14.0965 9.09089 14.0002 8.70534 13.834C8.31982 13.6678 8.01313 13.5059 7.7853 13.3484C7.55691 13.1904 7.33914 13.0177 7.13339 12.8312C6.92835 12.6422 6.70318 12.399 6.45782 12.1015C6.21248 11.804 5.99343 11.4583 5.80065 11.0646C5.60789 10.6708 5.46331 10.2946 5.36691 9.93581C5.27091 9.57915 5.20757 9.21452 5.17768 8.84641L5.13033 8.29515L5.15662 8.3004L5.18291 8.30828L5.20919 8.3214L5.23548 8.33453L5.26177 8.34765L5.28805 8.36078L5.6955 8.54453C5.96715 8.66704 6.30449 8.77205 6.70754 8.85954C7.11062 8.94703 7.35157 8.99518 7.43043 9.00392L7.54872 9.01704H7.7853L7.78007 9.00917L7.77216 9.00392L7.76427 8.99867L7.75901 8.99079L7.75378 8.98292L7.74587 8.97767L7.73799 8.97242L7.73273 8.96454L7.70644 8.95142L7.68015 8.93829L7.67492 8.93042L7.66701 8.92517L7.65912 8.91991L7.65387 8.91204L7.62758 8.89891L7.60129 8.88579L7.59606 8.87791C7.59081 8.8744 7.51544 8.8184 7.36997 8.70991C7.22626 8.59966 7.07556 8.45704 6.91784 8.28203C6.76012 8.10702 6.60239 7.92326 6.44467 7.73077C6.28666 7.53783 6.14593 7.33141 6.02408 7.11388C5.90143 6.89514 5.77173 6.61685 5.63504 6.27912C5.50011 5.94311 5.39759 5.60448 5.32748 5.26322C5.2574 4.92197 5.21797 4.58509 5.20919 4.25258C5.20044 3.92006 5.20919 3.63569 5.23548 3.39944C5.26177 3.16318 5.31434 2.89629 5.3932 2.5988C5.47206 2.3013 5.58599 1.9863 5.73493 1.65378L5.95837 1.15502L5.97151 1.11565L5.98465 1.07627L5.99257 1.07102L5.9978 1.06314L6.00306 1.05527L6.01094 1.05002L6.01885 1.05527L6.02408 1.06314L6.02934 1.07102L6.03723 1.07627L6.04514 1.08152L6.05037 1.0894L6.05563 1.09727L6.06352 1.10252L6.07666 1.12877L6.0898 1.15502L6.09771 1.16027L6.10295 1.16815L6.45782 1.5619C6.6944 1.82441 6.9748 2.11755 7.299 2.4413C7.62322 2.76504 7.80283 2.93305 7.83788 2.9453C7.87294 2.9593 7.91674 2.99954 7.96931 3.06606C8.02188 3.13082 8.19714 3.28569 8.49505 3.53069C8.79298 3.77569 9.18289 4.06008 9.66481 4.38383C10.1468 4.70758 10.6812 5.02697 11.2683 5.34197C11.8554 5.65698 12.4863 5.94135 13.161 6.19511C13.8357 6.44888 14.3088 6.61512 14.5804 6.69387C14.8521 6.77263 15.3165 6.87324 15.9736 6.99575C16.6308 7.11827 17.1259 7.19702 17.4588 7.23201C17.7918 7.267 18.0197 7.28713 18.1423 7.29238L18.3263 7.29764L18.3211 7.25826L18.3132 7.21888L18.2606 6.89075C18.2256 6.67201 18.208 6.36574 18.208 5.97199C18.208 5.57823 18.2387 5.21511 18.3 4.88259C18.3614 4.55008 18.4534 4.2132 18.576 3.87195C18.6987 3.53069 18.8188 3.25679 18.9362 3.05031C19.0554 2.84555 19.2113 2.61192 19.4041 2.34942C19.5969 2.08691 19.8466 1.81567 20.1532 1.53565C20.4599 1.25564 20.8104 1.00626 21.2047 0.787515C21.599 0.568769 21.9627 0.402499 22.2956 0.288755C22.6286 0.175012 22.909 0.100618 23.1368 0.0656262C23.3646 0.0306343 23.4785 0.0105002 23.4785 0.0052501Z" fill="#0B0E2C"/>
</g>
<defs>
<filter id="filter0_d_2946_31279" x="0" y="0" width="37.1523" height="31.6519" filterUnits="userSpaceOnUse" color-interpolation-filters="sRGB">
<feFlood flood-opacity="0" result="BackgroundImageFix"/>
<feColorMatrix in="SourceAlpha" type="matrix" values="0 0 0 0 0 0 0 0 0 0 0 0 0 0 0 0 0 0 127 0" result="hardAlpha"/>
<feOffset dy="4"/>
<feGaussianBlur stdDeviation="2"/>
<feComposite in2="hardAlpha" operator="out"/>
<feColorMatrix type="matrix" values="0 0 0 0 0 0 0 0 0 0 0 0 0 0 0 0 0 0 0.25 0"/>
<feBlend mode="normal" in2="BackgroundImageFix" result="effect1_dropShadow_2946_31279"/>
<feBlend mode="normal" in="SourceGraphic" in2="effect1_dropShadow_2946_31279" result="shape"/>
</filter>
</defs>
</svg>
